<svg width="226" height="79" viewBox="0 0 226 79" fill="none" xmlns="http://www.w3.org/2000/svg">
<path fill-rule="evenodd" clip-rule="evenodd" d="M113.77 3.56172C102.977 7.40938 96.883 16.9123 99.1056 24.8693C106.278 31.0275 110.711 39.2092 110.711 48.2316H108.711C108.711 39.8527 104.578 32.1516 97.6799 26.2824L97.4767 26.3557L97.3595 26.0119C96.9416 25.6623 96.508 25.3205 96.0705 24.9846C88.2072 18.9768 77.3009 15.2316 65.2111 15.2316C53.1213 15.2316 42.215 18.9768 34.3517 24.9846C26.7267 30.8098 22.0041 38.7209 21.7228 47.4113C26.8361 46.5891 32.422 46.6896 37.8986 47.7492C44.8361 49.092 48.0549 51.4416 50.1642 53.9416C50.8361 54.7414 51.4181 55.5891 51.9416 56.3527L52.0588 56.5236L52.1291 56.6223C52.3088 56.8859 52.4806 57.1379 52.6525 57.3693C53.3908 58.3811 54.1408 59.2229 55.2267 59.8742L54.1994 61.5891C52.7853 60.7404 51.8478 59.6584 51.0353 58.5471C50.7424 58.1428 50.4728 57.7521 50.2111 57.3674L50.1838 57.3283C49.7072 56.6281 49.2384 55.9455 48.633 55.2316C46.8674 53.135 44.0822 50.9836 37.5197 49.7131C29.9181 48.2424 22.1603 48.7082 15.9416 50.925C9.71892 53.1438 5.16814 57.0598 3.67204 62.4162L3.36345 62.3303C2.41814 64.9348 1.98845 66.9729 2.00017 68.9768C2.01189 71.1701 2.55095 73.4064 3.64861 76.3859L1.7697 77.0773C0.636887 74.0041 0.0118867 71.5168 0.000167968 68.9865C-0.0115508 66.4523 0.590012 63.9602 1.77751 60.8732L2.03142 60.9699C4.00017 55.2629 9.00407 51.2746 15.2697 49.0412C16.6877 48.5354 18.172 48.1047 19.715 47.7746C19.8752 38.1916 25.0236 29.5949 33.1369 23.3957C41.3791 17.0979 52.7228 13.2316 65.2111 13.2316C77.4064 13.2316 88.5158 16.9084 96.7072 22.9465C95.8361 14.3127 102.746 5.36738 113.098 1.67793C124.047 -2.22539 135.731 0.859572 140.008 9.08027L140.953 8.69258C149.406 5.35957 159.906 4.8 170.473 7.74629C181.035 10.6926 189.735 16.6076 195.238 23.8352C200.684 30.9758 203.043 39.4514 200.891 47.5764C201.414 47.6994 201.938 47.8342 202.465 47.9807C210.289 50.1633 216.742 54.548 220.832 59.9172C224.926 65.2873 226.688 71.6975 224.977 77.841L223.047 77.3039C224.559 71.8957 223.047 66.1213 219.242 61.1301C215.438 56.1379 209.371 51.9836 201.926 49.9074C194.481 47.8303 187.141 48.2443 181.301 50.5471C175.461 52.8488 171.18 57.008 169.672 62.4162L167.746 61.8791C169.461 55.7355 174.285 51.1633 180.567 48.6867C185.899 46.5842 192.32 45.9699 198.926 47.1672C200.934 39.7365 198.832 31.8449 193.649 25.0471C188.43 18.1975 180.117 12.5129 169.934 9.67305C159.75 6.83223 149.695 7.39473 141.684 10.5539C133.676 13.7121 127.762 19.4367 125.676 26.9162L123.746 26.3781C125.781 19.0871 131.094 13.4221 138.18 9.91133C134.445 2.9543 124.137 -0.134569 113.77 3.56172ZM73.7111 78.2316H76.7111H81.2111V76.2316H76.7111H73.7111V78.2316ZM55.7111 78.2316H52.7111V76.2316H55.7111H60.2111V78.2316H55.7111ZM32.7111 78.2316H35.7111H40.2111V76.2316H35.7111H32.7111V78.2316ZM15.7111 78.2316H12.7111V76.2316H15.7111H20.2111V78.2316H15.7111ZM96.7111 78.2316H99.7111H104.211V76.2316H99.7111H96.7111V78.2316ZM122.711 78.2316H119.711V76.2316H122.711H127.211V78.2316H122.711ZM142.711 78.2316H145.711H150.211V76.2316H145.711H142.711V78.2316ZM167.711 78.2316H164.711V76.2316H167.711H172.211V78.2316H167.711ZM187.711 78.2316H190.711H195.211V76.2316H190.711H187.711V78.2316ZM210.711 78.2316H207.711V76.2316H210.711H215.211V78.2316H210.711Z" transform="translate(0.289062 0.767578)" fill="white"/>
</svg>
