<svg width="74" height="183" viewBox="0 0 74 183" fill="none" xmlns="http://www.w3.org/2000/svg">
<path fill-rule="evenodd" clip-rule="evenodd" d="M6.42662 0L6.62974 2.96973C6.95006 7.68652 7.87584 10.9492 9.67271 13.7656C11.3915 16.4502 13.9462 18.8076 17.7391 21.6279C22.954 18.084 29.2274 16.0166 35.9774 16.0166C42.9383 16.0166 49.3876 18.2129 54.6922 21.958C58.7313 18.9893 61.4227 16.5547 63.2079 13.7656C65.0047 10.9492 65.9305 7.68652 66.2508 2.96973L66.454 0L68.0829 2.49023C71.3133 7.41602 72.9227 11.5771 72.8797 16.1182C72.8329 20.6221 71.161 25.3613 68.1454 31.4385L67.6415 32.4521L66.6962 31.8281L61.5087 28.3945C66.0555 34.1045 68.7743 41.3691 68.7743 49.2734H67.2469V49.7354H4.18053V49.2734H3.18053C3.18053 46.4512 3.52818 43.7109 4.18053 41.0938V40.7461H4.27037C5.32896 36.6816 7.12974 32.9219 9.51646 29.624L6.18443 31.8281L5.23912 32.4521L4.73521 31.4385C1.71959 25.3613 0.0477131 20.6221 0.000838112 16.1182C-0.0421306 11.5771 1.56724 7.41602 4.79771 2.49023L6.42662 0ZM5.8524 42.7461H26.5829C27.4188 44.9004 29.0165 46.6738 31.0477 47.7354H5.21568C5.29771 46.0332 5.51256 44.3662 5.8524 42.7461ZM6.34068 40.7461H26.0516C25.9813 40.2783 25.9422 39.7988 25.9422 39.3105C25.9422 34.0635 30.1962 29.8105 35.4422 29.8105C40.6883 29.8105 44.9422 34.0635 44.9422 39.3105C44.9422 39.7988 44.9032 40.2783 44.8329 40.7461H65.618C61.9618 27.6211 50.0633 18.0166 35.9774 18.0166C29.9032 18.0166 24.2313 19.8037 19.4579 22.8887L19.5712 22.9707L18.3719 23.7637L16.8758 24.7539C11.8719 28.7754 8.12584 34.3408 6.34068 40.7461ZM39.8368 47.7354C41.868 46.6738 43.4657 44.9004 44.3016 42.7461H66.1024C66.4422 44.3662 66.6571 46.0332 66.7391 47.7354H39.8368ZM7.98912 14.8418C9.81724 17.7031 12.4501 20.1455 16.0477 22.8594L15.6962 23.1348L6.02818 29.5322C3.37193 24.0293 2.0399 19.9004 2.00084 16.0986C1.96959 12.8301 2.89537 9.71191 4.94224 6.08398C5.43443 9.55273 6.38756 12.3311 7.98912 14.8418ZM56.8016 22.8828L66.8524 29.5322C69.5087 24.0293 70.8407 19.9004 70.8797 16.0986C70.911 12.8301 69.9852 9.71191 67.9383 6.08398C67.4462 9.55273 66.493 12.3311 64.8915 14.8418C63.0594 17.7109 60.4149 20.1592 56.8016 22.8828ZM50.3094 62.9902C37.0047 62.1152 17.8954 61.8887 8.91881 61.8311C7.27818 61.8203 5.94224 63.1475 5.94224 64.8105V84.8105C5.94224 86.4678 7.28599 87.8105 8.94224 87.8105H65.4696C67.2821 87.8105 68.4188 86.3242 68.0946 84.8389C67.2391 80.8867 65.6297 75.5137 62.7508 71.0713C59.8954 66.6602 55.9305 63.3604 50.3094 62.9902ZM8.93443 59.8311C6.17271 59.8125 3.94224 62.0488 3.94224 64.8105V84.8105C3.94224 87.5723 6.18053 89.8105 8.94224 89.8105H65.4696C68.4071 89.8105 70.6727 87.2871 70.0516 84.415C68.2938 76.3105 63.3563 61.8447 50.4422 60.9951C37.0712 60.1152 17.9071 59.8887 8.93443 59.8311ZM24.9422 182.311H49.9422V181.311H50.9422V90.8105H48.9422V180.311H25.9422V90.8105H23.9422V181.311H24.9422V182.311ZM35.4422 46.8105C39.5829 46.8105 42.9422 43.4531 42.9422 39.3105C42.9422 35.168 39.5829 31.8105 35.4422 31.8105C31.3016 31.8105 27.9422 35.168 27.9422 39.3105C27.9422 43.4531 31.3016 46.8105 35.4422 46.8105Z" transform="translate(0.144531)" fill="white"/>
</svg>
