<svg width="35" height="35" viewBox="0 0 35 35" fill="none" xmlns="http://www.w3.org/2000/svg">
<path fill-rule="evenodd" clip-rule="evenodd" d="M17.5 33C26.0605 33 33 26.0605 33 17.5C33 14.5898 32.1982 11.8672 30.8027 9.54102L23.4014 15.3223C24.167 17.5605 24.8213 19.8828 25.0967 21.8965C25.248 23.0059 25.29 24.0723 25.1465 25C25.0029 25.9238 24.6562 26.8223 23.9297 27.4414C21.9756 29.1035 19.9502 30.3047 17.7725 30.4336C15.54 30.5684 13.3926 29.5664 11.2363 27.3809C10.7422 26.8789 10.4258 26.2695 10.2383 25.6074L6.56055 28.4805C9.36426 31.2734 13.2305 33 17.5 33ZM5.23438 26.9785C3.20703 24.3574 2 21.0703 2 17.5C2 8.93945 8.93945 2 17.5 2C22.4316 2 26.8252 4.30273 29.6641 7.89258L22.6885 13.3418C21.9443 11.3594 21.1592 9.51172 20.5244 8.08398C20.1387 7.21875 19.8076 6.50391 19.5723 6.00586L19.2959 5.42773L19.2217 5.27344L19.2021 5.23438L19.1943 5.21875L18.3945 3.59961L17.4463 5.13672L17.4375 5.15234L17.4141 5.18945L17.3262 5.33594L16.9971 5.88867C16.7158 6.36523 16.3213 7.04883 15.8594 7.88281C14.9385 9.54688 13.749 11.8164 12.6855 14.2227C11.626 16.6172 10.6699 19.1992 10.2441 21.4746C10.1318 22.0742 10.0537 22.666 10.0225 23.2363L5.23438 26.9785ZM12.0225 24.2129C12.0283 24.3027 12.0371 24.3887 12.0479 24.4727C12.1348 25.1895 12.3555 25.668 12.6602 25.9766C14.5664 27.9082 16.1855 28.5254 17.6533 28.4375C19.1768 28.3477 20.7881 27.4883 22.6328 25.918C22.8555 25.7285 23.0664 25.3633 23.1699 24.6934C23.2725 24.0312 23.2529 23.1777 23.1143 22.166C22.8906 20.5195 22.375 18.5879 21.7295 16.6289L12.0225 24.2129ZM21.0342 14.6348L12.2842 21.4707C12.7002 19.5039 13.54 17.2344 14.5146 15.0312C15.5459 12.6973 16.7051 10.4844 17.6094 8.85156C17.8232 8.46484 18.0215 8.11328 18.2012 7.79883C18.3516 8.12695 18.5186 8.49609 18.6973 8.89844C19.3848 10.4453 20.2461 12.4824 21.0342 14.6348ZM17.5 35C27.165 35 35 27.1641 35 17.5C35 7.83594 27.165 0 17.5 0C7.83496 0 0 7.83594 0 17.5C0 27.1641 7.83496 35 17.5 35ZM20.4648 22.0273C20.6367 23.4141 20.5537 24.0625 20.3301 24.4375C20.1387 24.7578 19.6934 25.1055 18.3594 25.3828L18.7676 27.3418C20.2324 27.0352 21.4053 26.5352 22.0469 25.4648C22.6562 24.4453 22.6201 23.1582 22.4492 21.7812L20.4648 22.0273Z" fill="white"/>
</svg>
