<svg width="91" height="68" viewBox="0 0 91 68" fill="none" xmlns="http://www.w3.org/2000/svg">
<path fill-rule="evenodd" clip-rule="evenodd" d="M35.0352 9.9082L39.6133 1.99902H49.3594L54.2305 10.4219L49.3555 18.8467H40.2031L35.0352 9.9082ZM33.2539 9L38.457 0H50.5117L56.293 10H67.5117L73.293 20H83.5117L89.5391 30.4229L83.5117 40.8457H71.7148L66.5117 49.8457H55.7148L50.5117 58.8457H39.7148L34.5117 67.8457H22.457L16.4297 57.4229L21.9219 47.9229L17.2227 39.7939H6.02734L0 29.3711L6.02734 18.9482H16.7031L22.457 9H33.2539ZM32.7617 10.999H23.6133L18.7383 19.4238L23.6094 27.8467H33.3555L37.9336 19.9375L32.7617 10.999ZM40.2031 37.8467L35.0352 28.9082L39.6133 20.999H49.3594L54.2305 29.4219L49.3555 37.8467H40.2031ZM51.7383 20.4238L56.6133 11.999H66.3594L71.2305 20.4219L66.3555 28.8467H56.6094L51.7383 20.4238ZM67.7383 30.4238L72.6094 38.8467H82.3555L87.2305 30.4219L82.3594 21.999H72.6133L67.7383 30.4238ZM2.30859 29.3721L7.18359 20.9473H16.9297L21.7344 29.2529L16.793 37.7949H7.17969L2.30859 29.3721ZM23.7461 29.999H32.7617L37.9336 38.9375L33.3555 46.8467H23.6094L18.8047 38.541L23.7461 29.999ZM56.207 47.8467L51.0352 38.9082L55.6133 30.999H65.3594L70.2305 39.4219L65.3555 47.8467H56.207ZM39.6133 39.999H48.7617L53.9336 48.9375L49.3555 56.8467H40.207L35.0469 47.9229L39.6133 39.999ZM32.7617 48.999L37.9336 57.9375L33.3555 65.8467H23.6094L18.7383 57.4238L23.6133 48.999H32.7617Z" transform="translate(0.664062)" fill="white"/>
</svg>
