<svg width="1120" height="206" viewBox="0 0 1120 206" fill="none" xmlns="http://www.w3.org/2000/svg">
<g opacity="0.4">
<g filter="url(#filter0_d)">
<rect width="1060" height="144" rx="8" transform="translate(29 30)" fill="#4B494C"/>
<mask id="mask0" mask-type="alpha" maskUnits="userSpaceOnUse" x="29" y="30" width="1061" height="145">
<rect width="1061" height="145" rx="8" transform="translate(29 30)" fill="#4B494C"/>
</mask>
<g mask="url(#mask0)">
<path d="M12.0508 0L22.4871 6.02025L22.4871 18.0607L12.0508 24.081L1.6145 18.0607L1.6145 6.02025L12.0508 0Z" transform="matrix(0.866395 -0.499359 0.500641 0.865655 61.293 49.1318)" fill="white"/>
<path d="M12.0508 0L22.4871 6.02025L22.4871 18.0607L12.0508 24.081L1.6145 18.0607L1.6145 6.02025L12.0508 0Z" transform="matrix(0.866395 -0.499359 0.500641 0.865655 61.3516 73.1523)" fill="white"/>
<path d="M12.0508 0L22.4871 6.02025L22.4871 18.0607L12.0508 24.081L1.6145 18.0607L1.6145 6.02025L12.0508 0Z" transform="matrix(0.866395 -0.499359 0.500641 0.865655 82.2773 36.9941)" fill="white"/>
<path d="M12.0508 0L22.4871 6.02025L22.4871 18.0607L12.0508 24.081L1.6145 18.0607L1.6145 6.02025L12.0508 0Z" transform="matrix(0.866395 -0.499359 0.500641 0.865655 82.2773 61.1699)" fill="white"/>
<path d="M12.0508 0L22.4871 6.02025L22.4871 18.0607L12.0508 24.081L1.6145 18.0607L1.6145 6.02025L12.0508 0Z" transform="matrix(0.866395 -0.499359 0.500641 0.865655 61.3516 97.1162)" fill="white"/>
<path d="M12.0508 0L22.4871 6.02025L22.4871 18.0607L12.0508 24.081L1.6145 18.0607L1.6145 6.02025L12.0508 0Z" transform="matrix(0.866395 -0.499359 0.500641 0.865655 61.3516 121.082)" fill="white"/>
<path d="M12.0508 0L22.4871 6.02025L22.4871 18.0607L12.0508 24.081L1.6145 18.0607L1.6145 6.02025L12.0508 0Z" transform="matrix(0.866395 -0.499359 0.500641 0.865655 82.2773 133.066)" fill="white"/>
<path d="M12.0508 0L22.4871 6.02025L22.4871 18.0607L12.0508 24.081L1.6145 18.0607L1.6145 6.02025L12.0508 0Z" transform="matrix(0.866395 -0.499359 0.500641 0.865655 61.3516 145.048)" fill="white"/>
<path d="M12.0508 0L22.4871 6.02025L22.4871 18.0607L12.0508 24.081L1.6145 18.0607L1.6145 6.02025L12.0508 0Z" transform="matrix(0.866395 -0.499359 0.500641 0.865655 82.2773 157.03)" fill="white"/>
<path d="M12.0508 0L22.4871 6.02025L22.4871 18.0607L12.0508 24.081L1.6145 18.0607L1.6145 6.02025L12.0508 0Z" transform="matrix(0.866395 -0.499359 0.500641 0.865655 82.2773 85.1357)" fill="white"/>
<path d="M12.0508 0L22.4871 6.02025L22.4871 18.0607L12.0508 24.081L1.6145 18.0607L1.6145 6.02025L12.0508 0Z" transform="matrix(0.866395 -0.499359 0.500641 0.865655 82.2773 109.1)" fill="white"/>
<path d="M12.0508 0L22.4871 6.02025L22.4871 18.0607L12.0508 24.081L1.6145 18.0607L1.6145 6.02025L12.0508 0Z" transform="matrix(0.866395 -0.499359 0.500641 0.865655 61.293 24.9062)" fill="white"/>
<path d="M12.0508 0L22.4871 6.02025L22.4871 18.0607L12.0508 24.081L1.6145 18.0607L1.6145 6.02025L12.0508 0Z" transform="matrix(0.866395 -0.499359 0.500641 0.865655 61.293 168.8)" fill="white"/>
<path d="M12.0508 0L22.4871 6.02025L22.4871 18.0607L12.0508 24.081L1.6145 18.0607L1.6145 6.02025L12.0508 0Z" transform="matrix(0.866395 -0.499359 0.500641 0.865655 19.5469 49.1318)" fill="white"/>
<path d="M12.0508 0L22.4871 6.02025L22.4871 18.0607L12.0508 24.081L1.6145 18.0607L1.6145 6.02025L12.0508 0Z" transform="matrix(0.866395 -0.499359 0.500641 0.865655 19.6055 73.1523)" fill="white"/>
<path d="M12.0508 0L22.4871 6.02025L22.4871 18.0607L12.0508 24.081L1.6145 18.0607L1.6145 6.02025L12.0508 0Z" transform="matrix(0.866395 -0.499359 0.500641 0.865655 40.5312 36.9941)" fill="white"/>
<path d="M12.0508 0L22.4871 6.02025L22.4871 18.0607L12.0508 24.081L1.6145 18.0607L1.6145 6.02025L12.0508 0Z" transform="matrix(0.866395 -0.499359 0.500641 0.865655 40.5312 61.1699)" fill="white"/>
<path d="M12.0508 0L22.4871 6.02025L22.4871 18.0607L12.0508 24.081L1.6145 18.0607L1.6145 6.02025L12.0508 0Z" transform="matrix(0.866395 -0.499359 0.500641 0.865655 19.6055 97.1162)" fill="white"/>
<path d="M12.0508 0L22.4871 6.02025L22.4871 18.0607L12.0508 24.081L1.6145 18.0607L1.6145 6.02025L12.0508 0Z" transform="matrix(0.866395 -0.499359 0.500641 0.865655 19.6055 121.082)" fill="white"/>
<path d="M12.0508 0L22.4871 6.02025L22.4871 18.0607L12.0508 24.081L1.6145 18.0607L1.6145 6.02025L12.0508 0Z" transform="matrix(0.866395 -0.499359 0.500641 0.865655 40.5312 133.066)" fill="white"/>
<path d="M12.0508 0L22.4871 6.02025L22.4871 18.0607L12.0508 24.081L1.6145 18.0607L1.6145 6.02025L12.0508 0Z" transform="matrix(0.866395 -0.499359 0.500641 0.865655 19.6055 145.048)" fill="white"/>
<path d="M12.0508 0L22.4871 6.02025L22.4871 18.0607L12.0508 24.081L1.6145 18.0607L1.6145 6.02025L12.0508 0Z" transform="matrix(0.866395 -0.499359 0.500641 0.865655 40.5312 157.03)" fill="white"/>
<path d="M12.0508 0L22.4871 6.02025L22.4871 18.0607L12.0508 24.081L1.6145 18.0607L1.6145 6.02025L12.0508 0Z" transform="matrix(0.866395 -0.499359 0.500641 0.865655 40.5312 85.1357)" fill="white"/>
<path d="M12.0508 0L22.4871 6.02025L22.4871 18.0607L12.0508 24.081L1.6145 18.0607L1.6145 6.02025L12.0508 0Z" transform="matrix(0.866395 -0.499359 0.500641 0.865655 40.5312 109.1)" fill="white"/>
<path d="M12.0508 0L22.4871 6.02025L22.4871 18.0607L12.0508 24.081L1.6145 18.0607L1.6145 6.02025L12.0508 0Z" transform="matrix(0.866395 -0.499359 0.500641 0.865655 19.5469 24.9062)" fill="white"/>
<path d="M12.0508 0L22.4871 6.02025L22.4871 18.0607L12.0508 24.081L1.6145 18.0607L1.6145 6.02025L12.0508 0Z" transform="matrix(0.866395 -0.499359 0.500641 0.865655 19.5469 168.8)" fill="white"/>
<path d="M12.0508 0L22.4871 6.02025L22.4871 18.0607L12.0508 24.081L1.6145 18.0607L1.6145 6.02025L12.0508 0Z" transform="matrix(0.866395 -0.499359 0.500641 0.865655 102.93 49.1318)" fill="white"/>
<path d="M12.0508 0L22.4871 6.02025L22.4871 18.0607L12.0508 24.081L1.6145 18.0607L1.6145 6.02025L12.0508 0Z" transform="matrix(0.866395 -0.499359 0.500641 0.865655 102.988 73.1523)" fill="white"/>
<path d="M12.0508 0L22.4871 6.02025L22.4871 18.0607L12.0508 24.081L1.6145 18.0607L1.6145 6.02025L12.0508 0Z" transform="matrix(0.866395 -0.499359 0.500641 0.865655 123.914 36.9941)" fill="white"/>
<path d="M12.0508 0L22.4871 6.02025L22.4871 18.0607L12.0508 24.081L1.6145 18.0607L1.6145 6.02025L12.0508 0Z" transform="matrix(0.866395 -0.499359 0.500641 0.865655 123.914 61.1699)" fill="white"/>
<path d="M12.0508 0L22.4871 6.02025L22.4871 18.0607L12.0508 24.081L1.6145 18.0607L1.6145 6.02025L12.0508 0Z" transform="matrix(0.866395 -0.499359 0.500641 0.865655 102.988 97.1162)" fill="white"/>
<path d="M12.0508 0L22.4871 6.02025L22.4871 18.0607L12.0508 24.081L1.6145 18.0607L1.6145 6.02025L12.0508 0Z" transform="matrix(0.866395 -0.499359 0.500641 0.865655 102.988 121.082)" fill="white"/>
<path d="M12.0508 0L22.4871 6.02025L22.4871 18.0607L12.0508 24.081L1.6145 18.0607L1.6145 6.02025L12.0508 0Z" transform="matrix(0.866395 -0.499359 0.500641 0.865655 123.914 133.066)" fill="white"/>
<path d="M12.0508 0L22.4871 6.02025L22.4871 18.0607L12.0508 24.081L1.6145 18.0607L1.6145 6.02025L12.0508 0Z" transform="matrix(0.866395 -0.499359 0.500641 0.865655 102.988 145.048)" fill="white"/>
<path d="M12.0508 0L22.4871 6.02025L22.4871 18.0607L12.0508 24.081L1.6145 18.0607L1.6145 6.02025L12.0508 0Z" transform="matrix(0.866395 -0.499359 0.500641 0.865655 123.914 157.03)" fill="white"/>
<path d="M12.0508 0L22.4871 6.02025L22.4871 18.0607L12.0508 24.081L1.6145 18.0607L1.6145 6.02025L12.0508 0Z" transform="matrix(0.866395 -0.499359 0.500641 0.865655 123.914 85.1357)" fill="white"/>
<path d="M12.0508 0L22.4871 6.02025L22.4871 18.0607L12.0508 24.081L1.6145 18.0607L1.6145 6.02025L12.0508 0Z" transform="matrix(0.866395 -0.499359 0.500641 0.865655 123.914 109.1)" fill="white"/>
<path d="M12.0508 0L22.4871 6.02025L22.4871 18.0607L12.0508 24.081L1.6145 18.0607L1.6145 6.02025L12.0508 0Z" transform="matrix(0.866395 -0.499359 0.500641 0.865655 102.93 24.9062)" fill="white"/>
<path d="M12.0508 0L22.4871 6.02025L22.4871 18.0607L12.0508 24.081L1.6145 18.0607L1.6145 6.02025L12.0508 0Z" transform="matrix(0.866395 -0.499359 0.500641 0.865655 102.93 168.8)" fill="white"/>
<path d="M12.0508 0L22.4871 6.02025L22.4871 18.0607L12.0508 24.081L1.6145 18.0607L1.6145 6.02025L12.0508 0Z" transform="matrix(0.866395 -0.499359 0.500641 0.865655 145.098 49.3428)" fill="white"/>
<path d="M12.0508 0L22.4871 6.02025L22.4871 18.0607L12.0508 24.081L1.6145 18.0607L1.6145 6.02025L12.0508 0Z" transform="matrix(0.866395 -0.499359 0.500641 0.865655 145.156 73.3633)" fill="white"/>
<path d="M12.0508 0L22.4871 6.02025L22.4871 18.0607L12.0508 24.081L1.6145 18.0607L1.6145 6.02025L12.0508 0Z" transform="matrix(0.866395 -0.499359 0.500641 0.865655 166.082 37.2051)" fill="white"/>
<path d="M12.0508 0L22.4871 6.02025L22.4871 18.0607L12.0508 24.081L1.6145 18.0607L1.6145 6.02025L12.0508 0Z" transform="matrix(0.866395 -0.499359 0.500641 0.865655 166.082 61.3809)" fill="white"/>
<path d="M12.0508 0L22.4871 6.02025L22.4871 18.0607L12.0508 24.081L1.6145 18.0607L1.6145 6.02025L12.0508 0Z" transform="matrix(0.866395 -0.499359 0.500641 0.865655 145.156 97.3271)" fill="white"/>
<path d="M12.0508 0L22.4871 6.02025L22.4871 18.0607L12.0508 24.081L1.6145 18.0607L1.6145 6.02025L12.0508 0Z" transform="matrix(0.866395 -0.499359 0.500641 0.865655 145.156 121.293)" fill="white"/>
<path d="M12.0508 0L22.4871 6.02025L22.4871 18.0607L12.0508 24.081L1.6145 18.0607L1.6145 6.02025L12.0508 0Z" transform="matrix(0.866395 -0.499359 0.500641 0.865655 166.082 133.277)" fill="white"/>
<path d="M12.0508 0L22.4871 6.02025L22.4871 18.0607L12.0508 24.081L1.6145 18.0607L1.6145 6.02025L12.0508 0Z" transform="matrix(0.866395 -0.499359 0.500641 0.865655 145.156 145.259)" fill="white"/>
<path d="M12.0508 0L22.4871 6.02025L22.4871 18.0607L12.0508 24.081L1.6145 18.0607L1.6145 6.02025L12.0508 0Z" transform="matrix(0.866395 -0.499359 0.500641 0.865655 166.082 157.241)" fill="white"/>
<path d="M12.0508 0L22.4871 6.02025L22.4871 18.0607L12.0508 24.081L1.6145 18.0607L1.6145 6.02025L12.0508 0Z" transform="matrix(0.866395 -0.499359 0.500641 0.865655 166.082 85.3467)" fill="white"/>
<path d="M12.0508 0L22.4871 6.02025L22.4871 18.0607L12.0508 24.081L1.6145 18.0607L1.6145 6.02025L12.0508 0Z" transform="matrix(0.866395 -0.499359 0.500641 0.865655 166.082 109.311)" fill="white"/>
<path d="M12.0508 0L22.4871 6.02025L22.4871 18.0607L12.0508 24.081L1.6145 18.0607L1.6145 6.02025L12.0508 0Z" transform="matrix(0.866395 -0.499359 0.500641 0.865655 145.098 25.1172)" fill="white"/>
<path d="M12.0508 0L22.4871 6.02025L22.4871 18.0607L12.0508 24.081L1.6145 18.0607L1.6145 6.02025L12.0508 0Z" transform="matrix(0.866395 -0.499359 0.500641 0.865655 145.098 169.011)" fill="white"/>
<path d="M12.0508 0L22.4871 6.02025L22.4871 18.0607L12.0508 24.081L1.6145 18.0607L1.6145 6.02025L12.0508 0Z" transform="matrix(0.866395 -0.499359 0.500641 0.865655 187.055 49.5576)" fill="white"/>
<path d="M12.0508 0L22.4871 6.02025L22.4871 18.0607L12.0508 24.081L1.6145 18.0607L1.6145 6.02025L12.0508 0Z" transform="matrix(0.866395 -0.499359 0.500641 0.865655 187.113 73.5781)" fill="white"/>
<path d="M12.0508 0L22.4871 6.02025L22.4871 18.0607L12.0508 24.081L1.6145 18.0607L1.6145 6.02025L12.0508 0Z" transform="matrix(0.866395 -0.499359 0.500641 0.865655 208.039 37.4199)" fill="white"/>
<path d="M12.0508 0L22.4871 6.02025L22.4871 18.0607L12.0508 24.081L1.6145 18.0607L1.6145 6.02025L12.0508 0Z" transform="matrix(0.866395 -0.499359 0.500641 0.865655 208.039 61.5957)" fill="white"/>
<path d="M12.0508 0L22.4871 6.02025L22.4871 18.0607L12.0508 24.081L1.6145 18.0607L1.6145 6.02025L12.0508 0Z" transform="matrix(0.866395 -0.499359 0.500641 0.865655 187.113 97.542)" fill="white"/>
<path d="M12.0508 0L22.4871 6.02025L22.4871 18.0607L12.0508 24.081L1.6145 18.0607L1.6145 6.02025L12.0508 0Z" transform="matrix(0.866395 -0.499359 0.500641 0.865655 187.113 121.508)" fill="white"/>
<path d="M12.0508 0L22.4871 6.02025L22.4871 18.0607L12.0508 24.081L1.6145 18.0607L1.6145 6.02025L12.0508 0Z" transform="matrix(0.866395 -0.499359 0.500641 0.865655 208.039 133.492)" fill="white"/>
<path d="M12.0508 0L22.4871 6.02025L22.4871 18.0607L12.0508 24.081L1.6145 18.0607L1.6145 6.02025L12.0508 0Z" transform="matrix(0.866395 -0.499359 0.500641 0.865655 187.113 145.474)" fill="white"/>
<path d="M12.0508 0L22.4871 6.02025L22.4871 18.0607L12.0508 24.081L1.6145 18.0607L1.6145 6.02025L12.0508 0Z" transform="matrix(0.866395 -0.499359 0.500641 0.865655 208.039 157.456)" fill="white"/>
<path d="M12.0508 0L22.4871 6.02025L22.4871 18.0607L12.0508 24.081L1.6145 18.0607L1.6145 6.02025L12.0508 0Z" transform="matrix(0.866395 -0.499359 0.500641 0.865655 208.039 85.5615)" fill="white"/>
<path d="M12.0508 0L22.4871 6.02025L22.4871 18.0607L12.0508 24.081L1.6145 18.0607L1.6145 6.02025L12.0508 0Z" transform="matrix(0.866395 -0.499359 0.500641 0.865655 208.039 109.525)" fill="white"/>
<path d="M12.0508 0L22.4871 6.02025L22.4871 18.0607L12.0508 24.081L1.6145 18.0607L1.6145 6.02025L12.0508 0Z" transform="matrix(0.866395 -0.499359 0.500641 0.865655 187.055 25.332)" fill="white"/>
<path d="M12.0508 0L22.4871 6.02025L22.4871 18.0607L12.0508 24.081L1.6145 18.0607L1.6145 6.02025L12.0508 0Z" transform="matrix(0.866395 -0.499359 0.500641 0.865655 187.055 169.226)" fill="white"/>
<path d="M12.0508 0L22.4871 6.02025L22.4871 18.0607L12.0508 24.081L1.6145 18.0607L1.6145 6.02025L12.0508 0Z" transform="matrix(0.866395 -0.499359 0.500641 0.865655 270.438 49.5576)" fill="white"/>
<path d="M12.0508 0L22.4871 6.02025L22.4871 18.0607L12.0508 24.081L1.6145 18.0607L1.6145 6.02025L12.0508 0Z" transform="matrix(0.866395 -0.499359 0.500641 0.865655 270.496 73.5781)" fill="white"/>
<path d="M12.0508 0L22.4871 6.02025L22.4871 18.0607L12.0508 24.081L1.6145 18.0607L1.6145 6.02025L12.0508 0Z" transform="matrix(0.866395 -0.499359 0.500641 0.865655 291.422 37.4199)" fill="white"/>
<path d="M12.0508 0L22.4871 6.02025L22.4871 18.0607L12.0508 24.081L1.6145 18.0607L1.6145 6.02025L12.0508 0Z" transform="matrix(0.866395 -0.499359 0.500641 0.865655 291.422 61.5957)" fill="white"/>
<path d="M12.0508 0L22.4871 6.02025L22.4871 18.0607L12.0508 24.081L1.6145 18.0607L1.6145 6.02025L12.0508 0Z" transform="matrix(0.866395 -0.499359 0.500641 0.865655 270.496 97.542)" fill="white"/>
<path d="M12.0508 0L22.4871 6.02025L22.4871 18.0607L12.0508 24.081L1.6145 18.0607L1.6145 6.02025L12.0508 0Z" transform="matrix(0.866395 -0.499359 0.500641 0.865655 270.496 121.508)" fill="white"/>
<path d="M12.0508 0L22.4871 6.02025L22.4871 18.0607L12.0508 24.081L1.6145 18.0607L1.6145 6.02025L12.0508 0Z" transform="matrix(0.866395 -0.499359 0.500641 0.865655 291.422 133.492)" fill="white"/>
<path d="M12.0508 0L22.4871 6.02025L22.4871 18.0607L12.0508 24.081L1.6145 18.0607L1.6145 6.02025L12.0508 0Z" transform="matrix(0.866395 -0.499359 0.500641 0.865655 270.496 145.474)" fill="white"/>
<path d="M12.0508 0L22.4871 6.02025L22.4871 18.0607L12.0508 24.081L1.6145 18.0607L1.6145 6.02025L12.0508 0Z" transform="matrix(0.866395 -0.499359 0.500641 0.865655 291.422 157.456)" fill="white"/>
<path d="M12.0508 0L22.4871 6.02025L22.4871 18.0607L12.0508 24.081L1.6145 18.0607L1.6145 6.02025L12.0508 0Z" transform="matrix(0.866395 -0.499359 0.500641 0.865655 291.422 85.5615)" fill="white"/>
<path d="M12.0508 0L22.4871 6.02025L22.4871 18.0607L12.0508 24.081L1.6145 18.0607L1.6145 6.02025L12.0508 0Z" transform="matrix(0.866395 -0.499359 0.500641 0.865655 291.422 109.525)" fill="white"/>
<path d="M12.0508 0L22.4871 6.02025L22.4871 18.0607L12.0508 24.081L1.6145 18.0607L1.6145 6.02025L12.0508 0Z" transform="matrix(0.866395 -0.499359 0.500641 0.865655 270.438 25.332)" fill="white"/>
<path d="M12.0508 0L22.4871 6.02025L22.4871 18.0607L12.0508 24.081L1.6145 18.0607L1.6145 6.02025L12.0508 0Z" transform="matrix(0.866395 -0.499359 0.500641 0.865655 270.438 169.226)" fill="white"/>
<path d="M12.0508 0L22.4871 6.02025L22.4871 18.0607L12.0508 24.081L1.6145 18.0607L1.6145 6.02025L12.0508 0Z" transform="matrix(0.866395 -0.499359 0.500641 0.865655 228.695 49.5576)" fill="white"/>
<path d="M12.0508 0L22.4871 6.02025L22.4871 18.0607L12.0508 24.081L1.6145 18.0607L1.6145 6.02025L12.0508 0Z" transform="matrix(0.866395 -0.499359 0.500641 0.865655 228.754 73.5781)" fill="white"/>
<path d="M12.0508 0L22.4871 6.02025L22.4871 18.0607L12.0508 24.081L1.6145 18.0607L1.6145 6.02025L12.0508 0Z" transform="matrix(0.866395 -0.499359 0.500641 0.865655 249.68 37.4199)" fill="white"/>
<path d="M12.0508 0L22.4871 6.02025L22.4871 18.0607L12.0508 24.081L1.6145 18.0607L1.6145 6.02025L12.0508 0Z" transform="matrix(0.866395 -0.499359 0.500641 0.865655 249.68 61.5957)" fill="white"/>
<path d="M12.0508 0L22.4871 6.02025L22.4871 18.0607L12.0508 24.081L1.6145 18.0607L1.6145 6.02025L12.0508 0Z" transform="matrix(0.866395 -0.499359 0.500641 0.865655 228.754 97.542)" fill="white"/>
<path d="M12.0508 0L22.4871 6.02025L22.4871 18.0607L12.0508 24.081L1.6145 18.0607L1.6145 6.02025L12.0508 0Z" transform="matrix(0.866395 -0.499359 0.500641 0.865655 228.754 121.508)" fill="white"/>
<path d="M12.0508 0L22.4871 6.02025L22.4871 18.0607L12.0508 24.081L1.6145 18.0607L1.6145 6.02025L12.0508 0Z" transform="matrix(0.866395 -0.499359 0.500641 0.865655 249.68 133.492)" fill="white"/>
<path d="M12.0508 0L22.4871 6.02025L22.4871 18.0607L12.0508 24.081L1.6145 18.0607L1.6145 6.02025L12.0508 0Z" transform="matrix(0.866395 -0.499359 0.500641 0.865655 228.754 145.474)" fill="white"/>
<path d="M12.0508 0L22.4871 6.02025L22.4871 18.0607L12.0508 24.081L1.6145 18.0607L1.6145 6.02025L12.0508 0Z" transform="matrix(0.866395 -0.499359 0.500641 0.865655 249.68 157.456)" fill="white"/>
<path d="M12.0508 0L22.4871 6.02025L22.4871 18.0607L12.0508 24.081L1.6145 18.0607L1.6145 6.02025L12.0508 0Z" transform="matrix(0.866395 -0.499359 0.500641 0.865655 249.68 85.5615)" fill="white"/>
<path d="M12.0508 0L22.4871 6.02025L22.4871 18.0607L12.0508 24.081L1.6145 18.0607L1.6145 6.02025L12.0508 0Z" transform="matrix(0.866395 -0.499359 0.500641 0.865655 249.68 109.525)" fill="white"/>
<path d="M12.0508 0L22.4871 6.02025L22.4871 18.0607L12.0508 24.081L1.6145 18.0607L1.6145 6.02025L12.0508 0Z" transform="matrix(0.866395 -0.499359 0.500641 0.865655 228.695 25.332)" fill="white"/>
<path d="M12.0508 0L22.4871 6.02025L22.4871 18.0607L12.0508 24.081L1.6145 18.0607L1.6145 6.02025L12.0508 0Z" transform="matrix(0.866395 -0.499359 0.500641 0.865655 228.695 169.226)" fill="white"/>
<path d="M12.0508 0L22.4871 6.02025L22.4871 18.0607L12.0508 24.081L1.6145 18.0607L1.6145 6.02025L12.0508 0Z" transform="matrix(0.866395 -0.499359 0.500641 0.865655 312.078 49.5576)" fill="white"/>
<path d="M12.0508 0L22.4871 6.02025L22.4871 18.0607L12.0508 24.081L1.6145 18.0607L1.6145 6.02025L12.0508 0Z" transform="matrix(0.866395 -0.499359 0.500641 0.865655 312.137 73.5781)" fill="white"/>
<path d="M12.0508 0L22.4871 6.02025L22.4871 18.0607L12.0508 24.081L1.6145 18.0607L1.6145 6.02025L12.0508 0Z" transform="matrix(0.866395 -0.499359 0.500641 0.865655 333.062 37.4199)" fill="white"/>
<path d="M12.0508 0L22.4871 6.02025L22.4871 18.0607L12.0508 24.081L1.6145 18.0607L1.6145 6.02025L12.0508 0Z" transform="matrix(0.866395 -0.499359 0.500641 0.865655 333.062 61.5957)" fill="white"/>
<path d="M12.0508 0L22.4871 6.02025L22.4871 18.0607L12.0508 24.081L1.6145 18.0607L1.6145 6.02025L12.0508 0Z" transform="matrix(0.866395 -0.499359 0.500641 0.865655 312.137 97.542)" fill="white"/>
<path d="M12.0508 0L22.4871 6.02025L22.4871 18.0607L12.0508 24.081L1.6145 18.0607L1.6145 6.02025L12.0508 0Z" transform="matrix(0.866395 -0.499359 0.500641 0.865655 312.137 121.508)" fill="white"/>
<path d="M12.0508 0L22.4871 6.02025L22.4871 18.0607L12.0508 24.081L1.6145 18.0607L1.6145 6.02025L12.0508 0Z" transform="matrix(0.866395 -0.499359 0.500641 0.865655 333.062 133.492)" fill="white"/>
<path d="M12.0508 0L22.4871 6.02025L22.4871 18.0607L12.0508 24.081L1.6145 18.0607L1.6145 6.02025L12.0508 0Z" transform="matrix(0.866395 -0.499359 0.500641 0.865655 312.137 145.474)" fill="white"/>
<path d="M12.0508 0L22.4871 6.02025L22.4871 18.0607L12.0508 24.081L1.6145 18.0607L1.6145 6.02025L12.0508 0Z" transform="matrix(0.866395 -0.499359 0.500641 0.865655 333.062 157.456)" fill="white"/>
<path d="M12.0508 0L22.4871 6.02025L22.4871 18.0607L12.0508 24.081L1.6145 18.0607L1.6145 6.02025L12.0508 0Z" transform="matrix(0.866395 -0.499359 0.500641 0.865655 333.062 85.5615)" fill="white"/>
<path d="M12.0508 0L22.4871 6.02025L22.4871 18.0607L12.0508 24.081L1.6145 18.0607L1.6145 6.02025L12.0508 0Z" transform="matrix(0.866395 -0.499359 0.500641 0.865655 333.062 109.525)" fill="white"/>
<path d="M12.0508 0L22.4871 6.02025L22.4871 18.0607L12.0508 24.081L1.6145 18.0607L1.6145 6.02025L12.0508 0Z" transform="matrix(0.866395 -0.499359 0.500641 0.865655 312.078 25.332)" fill="white"/>
<path d="M12.0508 0L22.4871 6.02025L22.4871 18.0607L12.0508 24.081L1.6145 18.0607L1.6145 6.02025L12.0508 0Z" transform="matrix(0.866395 -0.499359 0.500641 0.865655 312.078 169.226)" fill="white"/>
<path d="M12.0508 0L22.4871 6.02025L22.4871 18.0607L12.0508 24.081L1.6145 18.0607L1.6145 6.02025L12.0508 0Z" transform="matrix(0.866395 -0.499359 0.500641 0.865655 354.246 49.7686)" fill="white"/>
<path d="M12.0508 0L22.4871 6.02025L22.4871 18.0607L12.0508 24.081L1.6145 18.0607L1.6145 6.02025L12.0508 0Z" transform="matrix(0.866395 -0.499359 0.500641 0.865655 354.305 73.7891)" fill="white"/>
<path d="M12.0508 0L22.4871 6.02025L22.4871 18.0607L12.0508 24.081L1.6145 18.0607L1.6145 6.02025L12.0508 0Z" transform="matrix(0.866395 -0.499359 0.500641 0.865655 375.23 37.6309)" fill="white"/>
<path d="M12.0508 0L22.4871 6.02025L22.4871 18.0607L12.0508 24.081L1.6145 18.0607L1.6145 6.02025L12.0508 0Z" transform="matrix(0.866395 -0.499359 0.500641 0.865655 375.23 61.8066)" fill="white"/>
<path d="M12.0508 0L22.4871 6.02025L22.4871 18.0607L12.0508 24.081L1.6145 18.0607L1.6145 6.02025L12.0508 0Z" transform="matrix(0.866395 -0.499359 0.500641 0.865655 354.305 97.7529)" fill="white"/>
<path d="M12.0508 0L22.4871 6.02025L22.4871 18.0607L12.0508 24.081L1.6145 18.0607L1.6145 6.02025L12.0508 0Z" transform="matrix(0.866395 -0.499359 0.500641 0.865655 354.305 121.719)" fill="white"/>
<path d="M12.0508 0L22.4871 6.02025L22.4871 18.0607L12.0508 24.081L1.6145 18.0607L1.6145 6.02025L12.0508 0Z" transform="matrix(0.866395 -0.499359 0.500641 0.865655 375.23 133.703)" fill="white"/>
<path d="M12.0508 0L22.4871 6.02025L22.4871 18.0607L12.0508 24.081L1.6145 18.0607L1.6145 6.02025L12.0508 0Z" transform="matrix(0.866395 -0.499359 0.500641 0.865655 354.305 145.685)" fill="white"/>
<path d="M12.0508 0L22.4871 6.02025L22.4871 18.0607L12.0508 24.081L1.6145 18.0607L1.6145 6.02025L12.0508 0Z" transform="matrix(0.866395 -0.499359 0.500641 0.865655 375.23 157.667)" fill="white"/>
<path d="M12.0508 0L22.4871 6.02025L22.4871 18.0607L12.0508 24.081L1.6145 18.0607L1.6145 6.02025L12.0508 0Z" transform="matrix(0.866395 -0.499359 0.500641 0.865655 375.23 85.7725)" fill="white"/>
<path d="M12.0508 0L22.4871 6.02025L22.4871 18.0607L12.0508 24.081L1.6145 18.0607L1.6145 6.02025L12.0508 0Z" transform="matrix(0.866395 -0.499359 0.500641 0.865655 375.23 109.736)" fill="white"/>
<path d="M12.0508 0L22.4871 6.02025L22.4871 18.0607L12.0508 24.081L1.6145 18.0607L1.6145 6.02025L12.0508 0Z" transform="matrix(0.866395 -0.499359 0.500641 0.865655 354.246 25.543)" fill="white"/>
<path d="M12.0508 0L22.4871 6.02025L22.4871 18.0607L12.0508 24.081L1.6145 18.0607L1.6145 6.02025L12.0508 0Z" transform="matrix(0.866395 -0.499359 0.500641 0.865655 354.246 169.437)" fill="white"/>
<path d="M12.0508 0L22.4871 6.02025L22.4871 18.0607L12.0508 24.081L1.6145 18.0607L1.6145 6.02025L12.0508 0Z" transform="matrix(0.866395 -0.499359 0.500641 0.865655 396.203 49.9795)" fill="white"/>
<path d="M12.0508 0L22.4871 6.02025L22.4871 18.0607L12.0508 24.081L1.6145 18.0607L1.6145 6.02025L12.0508 0Z" transform="matrix(0.866395 -0.499359 0.500641 0.865655 396.262 74)" fill="white"/>
<path d="M12.0508 0L22.4871 6.02025L22.4871 18.0607L12.0508 24.081L1.6145 18.0607L1.6145 6.02025L12.0508 0Z" transform="matrix(0.866395 -0.499359 0.500641 0.865655 417.188 37.8418)" fill="white"/>
<path d="M12.0508 0L22.4871 6.02025L22.4871 18.0607L12.0508 24.081L1.6145 18.0607L1.6145 6.02025L12.0508 0Z" transform="matrix(0.866395 -0.499359 0.500641 0.865655 417.188 62.0176)" fill="white"/>
<path d="M12.0508 0L22.4871 6.02025L22.4871 18.0607L12.0508 24.081L1.6145 18.0607L1.6145 6.02025L12.0508 0Z" transform="matrix(0.866395 -0.499359 0.500641 0.865655 396.262 97.9639)" fill="white"/>
<path d="M12.0508 0L22.4871 6.02025L22.4871 18.0607L12.0508 24.081L1.6145 18.0607L1.6145 6.02025L12.0508 0Z" transform="matrix(0.866395 -0.499359 0.500641 0.865655 396.262 121.93)" fill="white"/>
<path d="M12.0508 0L22.4871 6.02025L22.4871 18.0607L12.0508 24.081L1.6145 18.0607L1.6145 6.02025L12.0508 0Z" transform="matrix(0.866395 -0.499359 0.500641 0.865655 417.188 133.914)" fill="white"/>
<path d="M12.0508 0L22.4871 6.02025L22.4871 18.0607L12.0508 24.081L1.6145 18.0607L1.6145 6.02025L12.0508 0Z" transform="matrix(0.866395 -0.499359 0.500641 0.865655 396.262 145.896)" fill="white"/>
<path d="M12.0508 0L22.4871 6.02025L22.4871 18.0607L12.0508 24.081L1.6145 18.0607L1.6145 6.02025L12.0508 0Z" transform="matrix(0.866395 -0.499359 0.500641 0.865655 417.188 157.878)" fill="white"/>
<path d="M12.0508 0L22.4871 6.02025L22.4871 18.0607L12.0508 24.081L1.6145 18.0607L1.6145 6.02025L12.0508 0Z" transform="matrix(0.866395 -0.499359 0.500641 0.865655 417.188 85.9834)" fill="white"/>
<path d="M12.0508 0L22.4871 6.02025L22.4871 18.0607L12.0508 24.081L1.6145 18.0607L1.6145 6.02025L12.0508 0Z" transform="matrix(0.866395 -0.499359 0.500641 0.865655 417.188 109.947)" fill="white"/>
<path d="M12.0508 0L22.4871 6.02025L22.4871 18.0607L12.0508 24.081L1.6145 18.0607L1.6145 6.02025L12.0508 0Z" transform="matrix(0.866395 -0.499359 0.500641 0.865655 396.203 25.7539)" fill="white"/>
<path d="M12.0508 0L22.4871 6.02025L22.4871 18.0607L12.0508 24.081L1.6145 18.0607L1.6145 6.02025L12.0508 0Z" transform="matrix(0.866395 -0.499359 0.500641 0.865655 396.203 169.647)" fill="white"/>
<path d="M12.0508 0L22.4871 6.02025L22.4871 18.0607L12.0508 24.081L1.6145 18.0607L1.6145 6.02025L12.0508 0Z" transform="matrix(0.866395 -0.499359 0.500641 0.865655 479.586 49.9795)" fill="white"/>
<path d="M12.0508 0L22.4871 6.02025L22.4871 18.0607L12.0508 24.081L1.6145 18.0607L1.6145 6.02025L12.0508 0Z" transform="matrix(0.866395 -0.499359 0.500641 0.865655 479.645 74)" fill="white"/>
<path d="M12.0508 0L22.4871 6.02025L22.4871 18.0607L12.0508 24.081L1.6145 18.0607L1.6145 6.02025L12.0508 0Z" transform="matrix(0.866395 -0.499359 0.500641 0.865655 500.57 37.8418)" fill="white"/>
<path d="M12.0508 0L22.4871 6.02025L22.4871 18.0607L12.0508 24.081L1.6145 18.0607L1.6145 6.02025L12.0508 0Z" transform="matrix(0.866395 -0.499359 0.500641 0.865655 500.57 62.0176)" fill="white"/>
<path d="M12.0508 0L22.4871 6.02025L22.4871 18.0607L12.0508 24.081L1.6145 18.0607L1.6145 6.02025L12.0508 0Z" transform="matrix(0.866395 -0.499359 0.500641 0.865655 479.645 97.9639)" fill="white"/>
<path d="M12.0508 0L22.4871 6.02025L22.4871 18.0607L12.0508 24.081L1.6145 18.0607L1.6145 6.02025L12.0508 0Z" transform="matrix(0.866395 -0.499359 0.500641 0.865655 479.645 121.93)" fill="white"/>
<path d="M12.0508 0L22.4871 6.02025L22.4871 18.0607L12.0508 24.081L1.6145 18.0607L1.6145 6.02025L12.0508 0Z" transform="matrix(0.866395 -0.499359 0.500641 0.865655 500.57 133.914)" fill="white"/>
<path d="M12.0508 0L22.4871 6.02025L22.4871 18.0607L12.0508 24.081L1.6145 18.0607L1.6145 6.02025L12.0508 0Z" transform="matrix(0.866395 -0.499359 0.500641 0.865655 479.645 145.896)" fill="white"/>
<path d="M12.0508 0L22.4871 6.02025L22.4871 18.0607L12.0508 24.081L1.6145 18.0607L1.6145 6.02025L12.0508 0Z" transform="matrix(0.866395 -0.499359 0.500641 0.865655 500.57 157.878)" fill="white"/>
<path d="M12.0508 0L22.4871 6.02025L22.4871 18.0607L12.0508 24.081L1.6145 18.0607L1.6145 6.02025L12.0508 0Z" transform="matrix(0.866395 -0.499359 0.500641 0.865655 500.57 85.9834)" fill="white"/>
<path d="M12.0508 0L22.4871 6.02025L22.4871 18.0607L12.0508 24.081L1.6145 18.0607L1.6145 6.02025L12.0508 0Z" transform="matrix(0.866395 -0.499359 0.500641 0.865655 500.57 109.947)" fill="white"/>
<path d="M12.0508 0L22.4871 6.02025L22.4871 18.0607L12.0508 24.081L1.6145 18.0607L1.6145 6.02025L12.0508 0Z" transform="matrix(0.866395 -0.499359 0.500641 0.865655 479.586 25.7539)" fill="white"/>
<path d="M12.0508 0L22.4871 6.02025L22.4871 18.0607L12.0508 24.081L1.6145 18.0607L1.6145 6.02025L12.0508 0Z" transform="matrix(0.866395 -0.499359 0.500641 0.865655 479.586 169.647)" fill="white"/>
<path d="M12.0508 0L22.4871 6.02025L22.4871 18.0607L12.0508 24.081L1.6145 18.0607L1.6145 6.02025L12.0508 0Z" transform="matrix(0.866395 -0.499359 0.500641 0.865655 437.84 49.9795)" fill="white"/>
<path d="M12.0508 0L22.4871 6.02025L22.4871 18.0607L12.0508 24.081L1.6145 18.0607L1.6145 6.02025L12.0508 0Z" transform="matrix(0.866395 -0.499359 0.500641 0.865655 437.898 74)" fill="white"/>
<path d="M12.0508 0L22.4871 6.02025L22.4871 18.0607L12.0508 24.081L1.6145 18.0607L1.6145 6.02025L12.0508 0Z" transform="matrix(0.866395 -0.499359 0.500641 0.865655 458.824 37.8418)" fill="white"/>
<path d="M12.0508 0L22.4871 6.02025L22.4871 18.0607L12.0508 24.081L1.6145 18.0607L1.6145 6.02025L12.0508 0Z" transform="matrix(0.866395 -0.499359 0.500641 0.865655 458.824 62.0176)" fill="white"/>
<path d="M12.0508 0L22.4871 6.02025L22.4871 18.0607L12.0508 24.081L1.6145 18.0607L1.6145 6.02025L12.0508 0Z" transform="matrix(0.866395 -0.499359 0.500641 0.865655 437.898 97.9639)" fill="white"/>
<path d="M12.0508 0L22.4871 6.02025L22.4871 18.0607L12.0508 24.081L1.6145 18.0607L1.6145 6.02025L12.0508 0Z" transform="matrix(0.866395 -0.499359 0.500641 0.865655 437.898 121.93)" fill="white"/>
<path d="M12.0508 0L22.4871 6.02025L22.4871 18.0607L12.0508 24.081L1.6145 18.0607L1.6145 6.02025L12.0508 0Z" transform="matrix(0.866395 -0.499359 0.500641 0.865655 458.824 133.914)" fill="white"/>
<path d="M12.0508 0L22.4871 6.02025L22.4871 18.0607L12.0508 24.081L1.6145 18.0607L1.6145 6.02025L12.0508 0Z" transform="matrix(0.866395 -0.499359 0.500641 0.865655 437.898 145.896)" fill="white"/>
<path d="M12.0508 0L22.4871 6.02025L22.4871 18.0607L12.0508 24.081L1.6145 18.0607L1.6145 6.02025L12.0508 0Z" transform="matrix(0.866395 -0.499359 0.500641 0.865655 458.824 157.878)" fill="white"/>
<path d="M12.0508 0L22.4871 6.02025L22.4871 18.0607L12.0508 24.081L1.6145 18.0607L1.6145 6.02025L12.0508 0Z" transform="matrix(0.866395 -0.499359 0.500641 0.865655 458.824 85.9834)" fill="white"/>
<path d="M12.0508 0L22.4871 6.02025L22.4871 18.0607L12.0508 24.081L1.6145 18.0607L1.6145 6.02025L12.0508 0Z" transform="matrix(0.866395 -0.499359 0.500641 0.865655 458.824 109.947)" fill="white"/>
<path d="M12.0508 0L22.4871 6.02025L22.4871 18.0607L12.0508 24.081L1.6145 18.0607L1.6145 6.02025L12.0508 0Z" transform="matrix(0.866395 -0.499359 0.500641 0.865655 437.84 25.7539)" fill="white"/>
<path d="M12.0508 0L22.4871 6.02025L22.4871 18.0607L12.0508 24.081L1.6145 18.0607L1.6145 6.02025L12.0508 0Z" transform="matrix(0.866395 -0.499359 0.500641 0.865655 437.84 169.647)" fill="white"/>
<path d="M12.0508 0L22.4871 6.02025L22.4871 18.0607L12.0508 24.081L1.6145 18.0607L1.6145 6.02025L12.0508 0Z" transform="matrix(0.866395 -0.499359 0.500641 0.865655 521.223 49.9795)" fill="white"/>
<path d="M12.0508 0L22.4871 6.02025L22.4871 18.0607L12.0508 24.081L1.6145 18.0607L1.6145 6.02025L12.0508 0Z" transform="matrix(0.866395 -0.499359 0.500641 0.865655 521.281 74)" fill="white"/>
<path d="M12.0508 0L22.4871 6.02025L22.4871 18.0607L12.0508 24.081L1.6145 18.0607L1.6145 6.02025L12.0508 0Z" transform="matrix(0.866395 -0.499359 0.500641 0.865655 542.207 37.8418)" fill="white"/>
<path d="M12.0508 0L22.4871 6.02025L22.4871 18.0607L12.0508 24.081L1.6145 18.0607L1.6145 6.02025L12.0508 0Z" transform="matrix(0.866395 -0.499359 0.500641 0.865655 542.207 62.0176)" fill="white"/>
<path d="M12.0508 0L22.4871 6.02025L22.4871 18.0607L12.0508 24.081L1.6145 18.0607L1.6145 6.02025L12.0508 0Z" transform="matrix(0.866395 -0.499359 0.500641 0.865655 521.281 97.9639)" fill="white"/>
<path d="M12.0508 0L22.4871 6.02025L22.4871 18.0607L12.0508 24.081L1.6145 18.0607L1.6145 6.02025L12.0508 0Z" transform="matrix(0.866395 -0.499359 0.500641 0.865655 521.281 121.93)" fill="white"/>
<path d="M12.0508 0L22.4871 6.02025L22.4871 18.0607L12.0508 24.081L1.6145 18.0607L1.6145 6.02025L12.0508 0Z" transform="matrix(0.866395 -0.499359 0.500641 0.865655 542.207 133.914)" fill="white"/>
<path d="M12.0508 0L22.4871 6.02025L22.4871 18.0607L12.0508 24.081L1.6145 18.0607L1.6145 6.02025L12.0508 0Z" transform="matrix(0.866395 -0.499359 0.500641 0.865655 521.281 145.896)" fill="white"/>
<path d="M12.0508 0L22.4871 6.02025L22.4871 18.0607L12.0508 24.081L1.6145 18.0607L1.6145 6.02025L12.0508 0Z" transform="matrix(0.866395 -0.499359 0.500641 0.865655 542.207 157.878)" fill="white"/>
<path d="M12.0508 0L22.4871 6.02025L22.4871 18.0607L12.0508 24.081L1.6145 18.0607L1.6145 6.02025L12.0508 0Z" transform="matrix(0.866395 -0.499359 0.500641 0.865655 542.207 85.9834)" fill="white"/>
<path d="M12.0508 0L22.4871 6.02025L22.4871 18.0607L12.0508 24.081L1.6145 18.0607L1.6145 6.02025L12.0508 0Z" transform="matrix(0.866395 -0.499359 0.500641 0.865655 542.207 109.947)" fill="white"/>
<path d="M12.0508 0L22.4871 6.02025L22.4871 18.0607L12.0508 24.081L1.6145 18.0607L1.6145 6.02025L12.0508 0Z" transform="matrix(0.866395 -0.499359 0.500641 0.865655 521.223 25.7539)" fill="white"/>
<path d="M12.0508 0L22.4871 6.02025L22.4871 18.0607L12.0508 24.081L1.6145 18.0607L1.6145 6.02025L12.0508 0Z" transform="matrix(0.866395 -0.499359 0.500641 0.865655 521.223 169.647)" fill="white"/>
<path d="M12.0508 0L22.4871 6.02025L22.4871 18.0607L12.0508 24.081L1.6145 18.0607L1.6145 6.02025L12.0508 0Z" transform="matrix(0.866395 -0.499359 0.500641 0.865655 563.391 50.1904)" fill="white"/>
<path d="M12.0508 0L22.4871 6.02025L22.4871 18.0607L12.0508 24.081L1.6145 18.0607L1.6145 6.02025L12.0508 0Z" transform="matrix(0.866395 -0.499359 0.500641 0.865655 563.449 74.2109)" fill="white"/>
<path d="M12.0508 0L22.4871 6.02025L22.4871 18.0607L12.0508 24.081L1.6145 18.0607L1.6145 6.02025L12.0508 0Z" transform="matrix(0.866395 -0.499359 0.500641 0.865655 584.375 38.0527)" fill="white"/>
<path d="M12.0508 0L22.4871 6.02025L22.4871 18.0607L12.0508 24.081L1.6145 18.0607L1.6145 6.02025L12.0508 0Z" transform="matrix(0.866395 -0.499359 0.500641 0.865655 584.375 62.2285)" fill="white"/>
<path d="M12.0508 0L22.4871 6.02025L22.4871 18.0607L12.0508 24.081L1.6145 18.0607L1.6145 6.02025L12.0508 0Z" transform="matrix(0.866395 -0.499359 0.500641 0.865655 563.449 98.1748)" fill="white"/>
<path d="M12.0508 0L22.4871 6.02025L22.4871 18.0607L12.0508 24.081L1.6145 18.0607L1.6145 6.02025L12.0508 0Z" transform="matrix(0.866395 -0.499359 0.500641 0.865655 563.449 122.141)" fill="white"/>
<path d="M12.0508 0L22.4871 6.02025L22.4871 18.0607L12.0508 24.081L1.6145 18.0607L1.6145 6.02025L12.0508 0Z" transform="matrix(0.866395 -0.499359 0.500641 0.865655 584.375 134.125)" fill="white"/>
<path d="M12.0508 0L22.4871 6.02025L22.4871 18.0607L12.0508 24.081L1.6145 18.0607L1.6145 6.02025L12.0508 0Z" transform="matrix(0.866395 -0.499359 0.500641 0.865655 563.449 146.106)" fill="white"/>
<path d="M12.0508 0L22.4871 6.02025L22.4871 18.0607L12.0508 24.081L1.6145 18.0607L1.6145 6.02025L12.0508 0Z" transform="matrix(0.866395 -0.499359 0.500641 0.865655 584.375 158.089)" fill="white"/>
<path d="M12.0508 0L22.4871 6.02025L22.4871 18.0607L12.0508 24.081L1.6145 18.0607L1.6145 6.02025L12.0508 0Z" transform="matrix(0.866395 -0.499359 0.500641 0.865655 584.375 86.1943)" fill="white"/>
<path d="M12.0508 0L22.4871 6.02025L22.4871 18.0607L12.0508 24.081L1.6145 18.0607L1.6145 6.02025L12.0508 0Z" transform="matrix(0.866395 -0.499359 0.500641 0.865655 584.375 110.158)" fill="white"/>
<path d="M12.0508 0L22.4871 6.02025L22.4871 18.0607L12.0508 24.081L1.6145 18.0607L1.6145 6.02025L12.0508 0Z" transform="matrix(0.866395 -0.499359 0.500641 0.865655 563.391 25.9648)" fill="white"/>
<path d="M12.0508 0L22.4871 6.02025L22.4871 18.0607L12.0508 24.081L1.6145 18.0607L1.6145 6.02025L12.0508 0Z" transform="matrix(0.866395 -0.499359 0.500641 0.865655 563.391 169.858)" fill="white"/>
<path d="M12.0508 0L22.4871 6.02025L22.4871 18.0607L12.0508 24.081L1.6145 18.0607L1.6145 6.02025L12.0508 0Z" transform="matrix(0.866395 -0.499359 0.500641 0.865655 605.348 50.4033)" fill="white"/>
<path d="M12.0508 0L22.4871 6.02025L22.4871 18.0607L12.0508 24.081L1.6145 18.0607L1.6145 6.02025L12.0508 0Z" transform="matrix(0.866395 -0.499359 0.500641 0.865655 605.406 74.4238)" fill="white"/>
<path d="M12.0508 0L22.4871 6.02025L22.4871 18.0607L12.0508 24.081L1.6145 18.0607L1.6145 6.02025L12.0508 0Z" transform="matrix(0.866395 -0.499359 0.500641 0.865655 626.332 38.2656)" fill="white"/>
<path d="M12.0508 0L22.4871 6.02025L22.4871 18.0607L12.0508 24.081L1.6145 18.0607L1.6145 6.02025L12.0508 0Z" transform="matrix(0.866395 -0.499359 0.500641 0.865655 626.332 62.4414)" fill="white"/>
<path d="M12.0508 0L22.4871 6.02025L22.4871 18.0607L12.0508 24.081L1.6145 18.0607L1.6145 6.02025L12.0508 0Z" transform="matrix(0.866395 -0.499359 0.500641 0.865655 605.406 98.3877)" fill="white"/>
<path d="M12.0508 0L22.4871 6.02025L22.4871 18.0607L12.0508 24.081L1.6145 18.0607L1.6145 6.02025L12.0508 0Z" transform="matrix(0.866395 -0.499359 0.500641 0.865655 605.406 122.354)" fill="white"/>
<path d="M12.0508 0L22.4871 6.02025L22.4871 18.0607L12.0508 24.081L1.6145 18.0607L1.6145 6.02025L12.0508 0Z" transform="matrix(0.866395 -0.499359 0.500641 0.865655 626.332 134.338)" fill="white"/>
<path d="M12.0508 0L22.4871 6.02025L22.4871 18.0607L12.0508 24.081L1.6145 18.0607L1.6145 6.02025L12.0508 0Z" transform="matrix(0.866395 -0.499359 0.500641 0.865655 605.406 146.319)" fill="white"/>
<path d="M12.0508 0L22.4871 6.02025L22.4871 18.0607L12.0508 24.081L1.6145 18.0607L1.6145 6.02025L12.0508 0Z" transform="matrix(0.866395 -0.499359 0.500641 0.865655 626.332 158.302)" fill="white"/>
<path d="M12.0508 0L22.4871 6.02025L22.4871 18.0607L12.0508 24.081L1.6145 18.0607L1.6145 6.02025L12.0508 0Z" transform="matrix(0.866395 -0.499359 0.500641 0.865655 626.332 86.4072)" fill="white"/>
<path d="M12.0508 0L22.4871 6.02025L22.4871 18.0607L12.0508 24.081L1.6145 18.0607L1.6145 6.02025L12.0508 0Z" transform="matrix(0.866395 -0.499359 0.500641 0.865655 626.332 110.371)" fill="white"/>
<path d="M12.0508 0L22.4871 6.02025L22.4871 18.0607L12.0508 24.081L1.6145 18.0607L1.6145 6.02025L12.0508 0Z" transform="matrix(0.866395 -0.499359 0.500641 0.865655 605.348 26.1777)" fill="white"/>
<path d="M12.0508 0L22.4871 6.02025L22.4871 18.0607L12.0508 24.081L1.6145 18.0607L1.6145 6.02025L12.0508 0Z" transform="matrix(0.866395 -0.499359 0.500641 0.865655 605.348 170.071)" fill="white"/>
<path d="M12.0508 0L22.4871 6.02025L22.4871 18.0607L12.0508 24.081L1.6145 18.0607L1.6145 6.02025L12.0508 0Z" transform="matrix(0.866395 -0.499359 0.500641 0.865655 688.84 50.4053)" fill="white"/>
<path d="M12.0508 0L22.4871 6.02025L22.4871 18.0607L12.0508 24.081L1.6145 18.0607L1.6145 6.02025L12.0508 0Z" transform="matrix(0.866395 -0.499359 0.500641 0.865655 688.898 74.4258)" fill="white"/>
<path d="M12.0508 0L22.4871 6.02025L22.4871 18.0607L12.0508 24.081L1.6145 18.0607L1.6145 6.02025L12.0508 0Z" transform="matrix(0.866395 -0.499359 0.500641 0.865655 709.824 38.2676)" fill="white"/>
<path d="M12.0508 0L22.4871 6.02025L22.4871 18.0607L12.0508 24.081L1.6145 18.0607L1.6145 6.02025L12.0508 0Z" transform="matrix(0.866395 -0.499359 0.500641 0.865655 709.824 62.4434)" fill="white"/>
<path d="M12.0508 0L22.4871 6.02025L22.4871 18.0607L12.0508 24.081L1.6145 18.0607L1.6145 6.02025L12.0508 0Z" transform="matrix(0.866395 -0.499359 0.500641 0.865655 688.898 98.3896)" fill="white"/>
<path d="M12.0508 0L22.4871 6.02025L22.4871 18.0607L12.0508 24.081L1.6145 18.0607L1.6145 6.02025L12.0508 0Z" transform="matrix(0.866395 -0.499359 0.500641 0.865655 688.898 122.355)" fill="white"/>
<path d="M12.0508 0L22.4871 6.02025L22.4871 18.0607L12.0508 24.081L1.6145 18.0607L1.6145 6.02025L12.0508 0Z" transform="matrix(0.866395 -0.499359 0.500641 0.865655 709.824 134.34)" fill="white"/>
<path d="M12.0508 0L22.4871 6.02025L22.4871 18.0607L12.0508 24.081L1.6145 18.0607L1.6145 6.02025L12.0508 0Z" transform="matrix(0.866395 -0.499359 0.500641 0.865655 688.898 146.321)" fill="white"/>
<path d="M12.0508 0L22.4871 6.02025L22.4871 18.0607L12.0508 24.081L1.6145 18.0607L1.6145 6.02025L12.0508 0Z" transform="matrix(0.866395 -0.499359 0.500641 0.865655 709.824 158.304)" fill="white"/>
<path d="M12.0508 0L22.4871 6.02025L22.4871 18.0607L12.0508 24.081L1.6145 18.0607L1.6145 6.02025L12.0508 0Z" transform="matrix(0.866395 -0.499359 0.500641 0.865655 709.824 86.4092)" fill="white"/>
<path d="M12.0508 0L22.4871 6.02025L22.4871 18.0607L12.0508 24.081L1.6145 18.0607L1.6145 6.02025L12.0508 0Z" transform="matrix(0.866395 -0.499359 0.500641 0.865655 709.824 110.373)" fill="white"/>
<path d="M12.0508 0L22.4871 6.02025L22.4871 18.0607L12.0508 24.081L1.6145 18.0607L1.6145 6.02025L12.0508 0Z" transform="matrix(0.866395 -0.499359 0.500641 0.865655 688.84 26.1797)" fill="white"/>
<path d="M12.0508 0L22.4871 6.02025L22.4871 18.0607L12.0508 24.081L1.6145 18.0607L1.6145 6.02025L12.0508 0Z" transform="matrix(0.866395 -0.499359 0.500641 0.865655 688.84 170.073)" fill="white"/>
<path d="M12.0508 0L22.4871 6.02025L22.4871 18.0607L12.0508 24.081L1.6145 18.0607L1.6145 6.02025L12.0508 0Z" transform="matrix(0.866395 -0.499359 0.500641 0.865655 647.094 50.4053)" fill="white"/>
<path d="M12.0508 0L22.4871 6.02025L22.4871 18.0607L12.0508 24.081L1.6145 18.0607L1.6145 6.02025L12.0508 0Z" transform="matrix(0.866395 -0.499359 0.500641 0.865655 647.152 74.4258)" fill="white"/>
<path d="M12.0508 0L22.4871 6.02025L22.4871 18.0607L12.0508 24.081L1.6145 18.0607L1.6145 6.02025L12.0508 0Z" transform="matrix(0.866395 -0.499359 0.500641 0.865655 668.078 38.2676)" fill="white"/>
<path d="M12.0508 0L22.4871 6.02025L22.4871 18.0607L12.0508 24.081L1.6145 18.0607L1.6145 6.02025L12.0508 0Z" transform="matrix(0.866395 -0.499359 0.500641 0.865655 668.078 62.4434)" fill="white"/>
<path d="M12.0508 0L22.4871 6.02025L22.4871 18.0607L12.0508 24.081L1.6145 18.0607L1.6145 6.02025L12.0508 0Z" transform="matrix(0.866395 -0.499359 0.500641 0.865655 647.152 98.3896)" fill="white"/>
<path d="M12.0508 0L22.4871 6.02025L22.4871 18.0607L12.0508 24.081L1.6145 18.0607L1.6145 6.02025L12.0508 0Z" transform="matrix(0.866395 -0.499359 0.500641 0.865655 647.152 122.355)" fill="white"/>
<path d="M12.0508 0L22.4871 6.02025L22.4871 18.0607L12.0508 24.081L1.6145 18.0607L1.6145 6.02025L12.0508 0Z" transform="matrix(0.866395 -0.499359 0.500641 0.865655 668.078 134.34)" fill="white"/>
<path d="M12.0508 0L22.4871 6.02025L22.4871 18.0607L12.0508 24.081L1.6145 18.0607L1.6145 6.02025L12.0508 0Z" transform="matrix(0.866395 -0.499359 0.500641 0.865655 647.152 146.321)" fill="white"/>
<path d="M12.0508 0L22.4871 6.02025L22.4871 18.0607L12.0508 24.081L1.6145 18.0607L1.6145 6.02025L12.0508 0Z" transform="matrix(0.866395 -0.499359 0.500641 0.865655 668.078 158.304)" fill="white"/>
<path d="M12.0508 0L22.4871 6.02025L22.4871 18.0607L12.0508 24.081L1.6145 18.0607L1.6145 6.02025L12.0508 0Z" transform="matrix(0.866395 -0.499359 0.500641 0.865655 668.078 86.4092)" fill="white"/>
<path d="M12.0508 0L22.4871 6.02025L22.4871 18.0607L12.0508 24.081L1.6145 18.0607L1.6145 6.02025L12.0508 0Z" transform="matrix(0.866395 -0.499359 0.500641 0.865655 668.078 110.373)" fill="white"/>
<path d="M12.0508 0L22.4871 6.02025L22.4871 18.0607L12.0508 24.081L1.6145 18.0607L1.6145 6.02025L12.0508 0Z" transform="matrix(0.866395 -0.499359 0.500641 0.865655 647.094 26.1797)" fill="white"/>
<path d="M12.0508 0L22.4871 6.02025L22.4871 18.0607L12.0508 24.081L1.6145 18.0607L1.6145 6.02025L12.0508 0Z" transform="matrix(0.866395 -0.499359 0.500641 0.865655 647.094 170.073)" fill="white"/>
<path d="M12.0508 0L22.4871 6.02025L22.4871 18.0607L12.0508 24.081L1.6145 18.0607L1.6145 6.02025L12.0508 0Z" transform="matrix(0.866395 -0.499359 0.500641 0.865655 730.477 50.4053)" fill="white"/>
<path d="M12.0508 0L22.4871 6.02025L22.4871 18.0607L12.0508 24.081L1.6145 18.0607L1.6145 6.02025L12.0508 0Z" transform="matrix(0.866395 -0.499359 0.500641 0.865655 730.535 74.4258)" fill="white"/>
<path d="M12.0508 0L22.4871 6.02025L22.4871 18.0607L12.0508 24.081L1.6145 18.0607L1.6145 6.02025L12.0508 0Z" transform="matrix(0.866395 -0.499359 0.500641 0.865655 751.461 38.2676)" fill="white"/>
<path d="M12.0508 0L22.4871 6.02025L22.4871 18.0607L12.0508 24.081L1.6145 18.0607L1.6145 6.02025L12.0508 0Z" transform="matrix(0.866395 -0.499359 0.500641 0.865655 751.461 62.4434)" fill="white"/>
<path d="M12.0508 0L22.4871 6.02025L22.4871 18.0607L12.0508 24.081L1.6145 18.0607L1.6145 6.02025L12.0508 0Z" transform="matrix(0.866395 -0.499359 0.500641 0.865655 730.535 98.3896)" fill="white"/>
<path d="M12.0508 0L22.4871 6.02025L22.4871 18.0607L12.0508 24.081L1.6145 18.0607L1.6145 6.02025L12.0508 0Z" transform="matrix(0.866395 -0.499359 0.500641 0.865655 730.535 122.355)" fill="white"/>
<path d="M12.0508 0L22.4871 6.02025L22.4871 18.0607L12.0508 24.081L1.6145 18.0607L1.6145 6.02025L12.0508 0Z" transform="matrix(0.866395 -0.499359 0.500641 0.865655 751.461 134.34)" fill="white"/>
<path d="M12.0508 0L22.4871 6.02025L22.4871 18.0607L12.0508 24.081L1.6145 18.0607L1.6145 6.02025L12.0508 0Z" transform="matrix(0.866395 -0.499359 0.500641 0.865655 730.535 146.321)" fill="white"/>
<path d="M12.0508 0L22.4871 6.02025L22.4871 18.0607L12.0508 24.081L1.6145 18.0607L1.6145 6.02025L12.0508 0Z" transform="matrix(0.866395 -0.499359 0.500641 0.865655 751.461 158.304)" fill="white"/>
<path d="M12.0508 0L22.4871 6.02025L22.4871 18.0607L12.0508 24.081L1.6145 18.0607L1.6145 6.02025L12.0508 0Z" transform="matrix(0.866395 -0.499359 0.500641 0.865655 751.461 86.4092)" fill="white"/>
<path d="M12.0508 0L22.4871 6.02025L22.4871 18.0607L12.0508 24.081L1.6145 18.0607L1.6145 6.02025L12.0508 0Z" transform="matrix(0.866395 -0.499359 0.500641 0.865655 751.461 110.373)" fill="white"/>
<path d="M12.0508 0L22.4871 6.02025L22.4871 18.0607L12.0508 24.081L1.6145 18.0607L1.6145 6.02025L12.0508 0Z" transform="matrix(0.866395 -0.499359 0.500641 0.865655 730.477 26.1797)" fill="white"/>
<path d="M12.0508 0L22.4871 6.02025L22.4871 18.0607L12.0508 24.081L1.6145 18.0607L1.6145 6.02025L12.0508 0Z" transform="matrix(0.866395 -0.499359 0.500641 0.865655 730.477 170.073)" fill="white"/>
<path d="M12.0508 0L22.4871 6.02025L22.4871 18.0607L12.0508 24.081L1.6145 18.0607L1.6145 6.02025L12.0508 0Z" transform="matrix(0.866395 -0.499359 0.500641 0.865655 772.645 50.6201)" fill="white"/>
<path d="M12.0508 0L22.4871 6.02025L22.4871 18.0607L12.0508 24.081L1.6145 18.0607L1.6145 6.02025L12.0508 0Z" transform="matrix(0.866395 -0.499359 0.500641 0.865655 772.703 74.6406)" fill="white"/>
<path d="M12.0508 0L22.4871 6.02025L22.4871 18.0607L12.0508 24.081L1.6145 18.0607L1.6145 6.02025L12.0508 0Z" transform="matrix(0.866395 -0.499359 0.500641 0.865655 793.629 38.4824)" fill="white"/>
<path d="M12.0508 0L22.4871 6.02025L22.4871 18.0607L12.0508 24.081L1.6145 18.0607L1.6145 6.02025L12.0508 0Z" transform="matrix(0.866395 -0.499359 0.500641 0.865655 793.629 62.6582)" fill="white"/>
<path d="M12.0508 0L22.4871 6.02025L22.4871 18.0607L12.0508 24.081L1.6145 18.0607L1.6145 6.02025L12.0508 0Z" transform="matrix(0.866395 -0.499359 0.500641 0.865655 772.703 98.6045)" fill="white"/>
<path d="M12.0508 0L22.4871 6.02025L22.4871 18.0607L12.0508 24.081L1.6145 18.0607L1.6145 6.02025L12.0508 0Z" transform="matrix(0.866395 -0.499359 0.500641 0.865655 772.703 122.57)" fill="white"/>
<path d="M12.0508 0L22.4871 6.02025L22.4871 18.0607L12.0508 24.081L1.6145 18.0607L1.6145 6.02025L12.0508 0Z" transform="matrix(0.866395 -0.499359 0.500641 0.865655 793.629 134.555)" fill="white"/>
<path d="M12.0508 0L22.4871 6.02025L22.4871 18.0607L12.0508 24.081L1.6145 18.0607L1.6145 6.02025L12.0508 0Z" transform="matrix(0.866395 -0.499359 0.500641 0.865655 772.703 146.536)" fill="white"/>
<path d="M12.0508 0L22.4871 6.02025L22.4871 18.0607L12.0508 24.081L1.6145 18.0607L1.6145 6.02025L12.0508 0Z" transform="matrix(0.866395 -0.499359 0.500641 0.865655 793.629 158.519)" fill="white"/>
<path d="M12.0508 0L22.4871 6.02025L22.4871 18.0607L12.0508 24.081L1.6145 18.0607L1.6145 6.02025L12.0508 0Z" transform="matrix(0.866395 -0.499359 0.500641 0.865655 793.629 86.624)" fill="white"/>
<path d="M12.0508 0L22.4871 6.02025L22.4871 18.0607L12.0508 24.081L1.6145 18.0607L1.6145 6.02025L12.0508 0Z" transform="matrix(0.866395 -0.499359 0.500641 0.865655 793.629 110.588)" fill="white"/>
<path d="M12.0508 0L22.4871 6.02025L22.4871 18.0607L12.0508 24.081L1.6145 18.0607L1.6145 6.02025L12.0508 0Z" transform="matrix(0.866395 -0.499359 0.500641 0.865655 772.645 26.3945)" fill="white"/>
<path d="M12.0508 0L22.4871 6.02025L22.4871 18.0607L12.0508 24.081L1.6145 18.0607L1.6145 6.02025L12.0508 0Z" transform="matrix(0.866395 -0.499359 0.500641 0.865655 772.645 170.288)" fill="white"/>
<path d="M12.0508 0L22.4871 6.02025L22.4871 18.0607L12.0508 24.081L1.6145 18.0607L1.6145 6.02025L12.0508 0Z" transform="matrix(0.866395 -0.499359 0.500641 0.865655 814.602 50.8291)" fill="white"/>
<path d="M12.0508 0L22.4871 6.02025L22.4871 18.0607L12.0508 24.081L1.6145 18.0607L1.6145 6.02025L12.0508 0Z" transform="matrix(0.866395 -0.499359 0.500641 0.865655 814.66 74.8496)" fill="white"/>
<path d="M12.0508 0L22.4871 6.02025L22.4871 18.0607L12.0508 24.081L1.6145 18.0607L1.6145 6.02025L12.0508 0Z" transform="matrix(0.866395 -0.499359 0.500641 0.865655 835.586 38.6914)" fill="white"/>
<path d="M12.0508 0L22.4871 6.02025L22.4871 18.0607L12.0508 24.081L1.6145 18.0607L1.6145 6.02025L12.0508 0Z" transform="matrix(0.866395 -0.499359 0.500641 0.865655 835.586 62.8672)" fill="white"/>
<path d="M12.0508 0L22.4871 6.02025L22.4871 18.0607L12.0508 24.081L1.6145 18.0607L1.6145 6.02025L12.0508 0Z" transform="matrix(0.866395 -0.499359 0.500641 0.865655 814.66 98.8135)" fill="white"/>
<path d="M12.0508 0L22.4871 6.02025L22.4871 18.0607L12.0508 24.081L1.6145 18.0607L1.6145 6.02025L12.0508 0Z" transform="matrix(0.866395 -0.499359 0.500641 0.865655 814.66 122.779)" fill="white"/>
<path d="M12.0508 0L22.4871 6.02025L22.4871 18.0607L12.0508 24.081L1.6145 18.0607L1.6145 6.02025L12.0508 0Z" transform="matrix(0.866395 -0.499359 0.500641 0.865655 835.586 134.764)" fill="white"/>
<path d="M12.0508 0L22.4871 6.02025L22.4871 18.0607L12.0508 24.081L1.6145 18.0607L1.6145 6.02025L12.0508 0Z" transform="matrix(0.866395 -0.499359 0.500641 0.865655 814.66 146.745)" fill="white"/>
<path d="M12.0508 0L22.4871 6.02025L22.4871 18.0607L12.0508 24.081L1.6145 18.0607L1.6145 6.02025L12.0508 0Z" transform="matrix(0.866395 -0.499359 0.500641 0.865655 835.586 158.728)" fill="white"/>
<path d="M12.0508 0L22.4871 6.02025L22.4871 18.0607L12.0508 24.081L1.6145 18.0607L1.6145 6.02025L12.0508 0Z" transform="matrix(0.866395 -0.499359 0.500641 0.865655 835.586 86.833)" fill="white"/>
<path d="M12.0508 0L22.4871 6.02025L22.4871 18.0607L12.0508 24.081L1.6145 18.0607L1.6145 6.02025L12.0508 0Z" transform="matrix(0.866395 -0.499359 0.500641 0.865655 835.586 110.797)" fill="white"/>
<path d="M12.0508 0L22.4871 6.02025L22.4871 18.0607L12.0508 24.081L1.6145 18.0607L1.6145 6.02025L12.0508 0Z" transform="matrix(0.866395 -0.499359 0.500641 0.865655 814.602 26.6035)" fill="white"/>
<path d="M12.0508 0L22.4871 6.02025L22.4871 18.0607L12.0508 24.081L1.6145 18.0607L1.6145 6.02025L12.0508 0Z" transform="matrix(0.866395 -0.499359 0.500641 0.865655 814.602 170.497)" fill="white"/>
<path d="M12.0508 0L22.4871 6.02025L22.4871 18.0607L12.0508 24.081L1.6145 18.0607L1.6145 6.02025L12.0508 0Z" transform="matrix(0.866395 -0.499359 0.500641 0.865655 897.988 50.8271)" fill="white"/>
<path d="M12.0508 0L22.4871 6.02025L22.4871 18.0607L12.0508 24.081L1.6145 18.0607L1.6145 6.02025L12.0508 0Z" transform="matrix(0.866395 -0.499359 0.500641 0.865655 898.047 74.8477)" fill="white"/>
<path d="M12.0508 0L22.4871 6.02025L22.4871 18.0607L12.0508 24.081L1.6145 18.0607L1.6145 6.02025L12.0508 0Z" transform="matrix(0.866395 -0.499359 0.500641 0.865655 918.973 38.6895)" fill="white"/>
<path d="M12.0508 0L22.4871 6.02025L22.4871 18.0607L12.0508 24.081L1.6145 18.0607L1.6145 6.02025L12.0508 0Z" transform="matrix(0.866395 -0.499359 0.500641 0.865655 918.973 62.8652)" fill="white"/>
<path d="M12.0508 0L22.4871 6.02025L22.4871 18.0607L12.0508 24.081L1.6145 18.0607L1.6145 6.02025L12.0508 0Z" transform="matrix(0.866395 -0.499359 0.500641 0.865655 898.047 98.8115)" fill="white"/>
<path d="M12.0508 0L22.4871 6.02025L22.4871 18.0607L12.0508 24.081L1.6145 18.0607L1.6145 6.02025L12.0508 0Z" transform="matrix(0.866395 -0.499359 0.500641 0.865655 898.047 122.777)" fill="white"/>
<path d="M12.0508 0L22.4871 6.02025L22.4871 18.0607L12.0508 24.081L1.6145 18.0607L1.6145 6.02025L12.0508 0Z" transform="matrix(0.866395 -0.499359 0.500641 0.865655 918.973 134.762)" fill="white"/>
<path d="M12.0508 0L22.4871 6.02025L22.4871 18.0607L12.0508 24.081L1.6145 18.0607L1.6145 6.02025L12.0508 0Z" transform="matrix(0.866395 -0.499359 0.500641 0.865655 898.047 146.743)" fill="white"/>
<path d="M12.0508 0L22.4871 6.02025L22.4871 18.0607L12.0508 24.081L1.6145 18.0607L1.6145 6.02025L12.0508 0Z" transform="matrix(0.866395 -0.499359 0.500641 0.865655 918.973 158.726)" fill="white"/>
<path d="M12.0508 0L22.4871 6.02025L22.4871 18.0607L12.0508 24.081L1.6145 18.0607L1.6145 6.02025L12.0508 0Z" transform="matrix(0.866395 -0.499359 0.500641 0.865655 918.973 86.8311)" fill="white"/>
<path d="M12.0508 0L22.4871 6.02025L22.4871 18.0607L12.0508 24.081L1.6145 18.0607L1.6145 6.02025L12.0508 0Z" transform="matrix(0.866395 -0.499359 0.500641 0.865655 918.973 110.795)" fill="white"/>
<path d="M12.0508 0L22.4871 6.02025L22.4871 18.0607L12.0508 24.081L1.6145 18.0607L1.6145 6.02025L12.0508 0Z" transform="matrix(0.866395 -0.499359 0.500641 0.865655 897.988 26.6016)" fill="white"/>
<path d="M12.0508 0L22.4871 6.02025L22.4871 18.0607L12.0508 24.081L1.6145 18.0607L1.6145 6.02025L12.0508 0Z" transform="matrix(0.866395 -0.499359 0.500641 0.865655 897.988 170.495)" fill="white"/>
<path d="M12.0508 0L22.4871 6.02025L22.4871 18.0607L12.0508 24.081L1.6145 18.0607L1.6145 6.02025L12.0508 0Z" transform="matrix(0.866395 -0.499359 0.500641 0.865655 856.242 50.8271)" fill="white"/>
<path d="M12.0508 0L22.4871 6.02025L22.4871 18.0607L12.0508 24.081L1.6145 18.0607L1.6145 6.02025L12.0508 0Z" transform="matrix(0.866395 -0.499359 0.500641 0.865655 856.301 74.8477)" fill="white"/>
<path d="M12.0508 0L22.4871 6.02025L22.4871 18.0607L12.0508 24.081L1.6145 18.0607L1.6145 6.02025L12.0508 0Z" transform="matrix(0.866395 -0.499359 0.500641 0.865655 877.227 38.6895)" fill="white"/>
<path d="M12.0508 0L22.4871 6.02025L22.4871 18.0607L12.0508 24.081L1.6145 18.0607L1.6145 6.02025L12.0508 0Z" transform="matrix(0.866395 -0.499359 0.500641 0.865655 877.227 62.8652)" fill="white"/>
<path d="M12.0508 0L22.4871 6.02025L22.4871 18.0607L12.0508 24.081L1.6145 18.0607L1.6145 6.02025L12.0508 0Z" transform="matrix(0.866395 -0.499359 0.500641 0.865655 856.301 98.8115)" fill="white"/>
<path d="M12.0508 0L22.4871 6.02025L22.4871 18.0607L12.0508 24.081L1.6145 18.0607L1.6145 6.02025L12.0508 0Z" transform="matrix(0.866395 -0.499359 0.500641 0.865655 856.301 122.777)" fill="white"/>
<path d="M12.0508 0L22.4871 6.02025L22.4871 18.0607L12.0508 24.081L1.6145 18.0607L1.6145 6.02025L12.0508 0Z" transform="matrix(0.866395 -0.499359 0.500641 0.865655 877.227 134.762)" fill="white"/>
<path d="M12.0508 0L22.4871 6.02025L22.4871 18.0607L12.0508 24.081L1.6145 18.0607L1.6145 6.02025L12.0508 0Z" transform="matrix(0.866395 -0.499359 0.500641 0.865655 856.301 146.743)" fill="white"/>
<path d="M12.0508 0L22.4871 6.02025L22.4871 18.0607L12.0508 24.081L1.6145 18.0607L1.6145 6.02025L12.0508 0Z" transform="matrix(0.866395 -0.499359 0.500641 0.865655 877.227 158.726)" fill="white"/>
<path d="M12.0508 0L22.4871 6.02025L22.4871 18.0607L12.0508 24.081L1.6145 18.0607L1.6145 6.02025L12.0508 0Z" transform="matrix(0.866395 -0.499359 0.500641 0.865655 877.227 86.8311)" fill="white"/>
<path d="M12.0508 0L22.4871 6.02025L22.4871 18.0607L12.0508 24.081L1.6145 18.0607L1.6145 6.02025L12.0508 0Z" transform="matrix(0.866395 -0.499359 0.500641 0.865655 877.227 110.795)" fill="white"/>
<path d="M12.0508 0L22.4871 6.02025L22.4871 18.0607L12.0508 24.081L1.6145 18.0607L1.6145 6.02025L12.0508 0Z" transform="matrix(0.866395 -0.499359 0.500641 0.865655 856.242 26.6016)" fill="white"/>
<path d="M12.0508 0L22.4871 6.02025L22.4871 18.0607L12.0508 24.081L1.6145 18.0607L1.6145 6.02025L12.0508 0Z" transform="matrix(0.866395 -0.499359 0.500641 0.865655 856.242 170.495)" fill="white"/>
<path d="M12.0508 0L22.4871 6.02025L22.4871 18.0607L12.0508 24.081L1.6145 18.0607L1.6145 6.02025L12.0508 0Z" transform="matrix(0.866395 -0.499359 0.500641 0.865655 939.625 50.8271)" fill="white"/>
<path d="M12.0508 0L22.4871 6.02025L22.4871 18.0607L12.0508 24.081L1.6145 18.0607L1.6145 6.02025L12.0508 0Z" transform="matrix(0.866395 -0.499359 0.500641 0.865655 939.684 74.8477)" fill="white"/>
<path d="M12.0508 0L22.4871 6.02025L22.4871 18.0607L12.0508 24.081L1.6145 18.0607L1.6145 6.02025L12.0508 0Z" transform="matrix(0.866395 -0.499359 0.500641 0.865655 960.609 38.6895)" fill="white"/>
<path d="M12.0508 0L22.4871 6.02025L22.4871 18.0607L12.0508 24.081L1.6145 18.0607L1.6145 6.02025L12.0508 0Z" transform="matrix(0.866395 -0.499359 0.500641 0.865655 960.609 62.8652)" fill="white"/>
<path d="M12.0508 0L22.4871 6.02025L22.4871 18.0607L12.0508 24.081L1.6145 18.0607L1.6145 6.02025L12.0508 0Z" transform="matrix(0.866395 -0.499359 0.500641 0.865655 939.684 98.8115)" fill="white"/>
<path d="M12.0508 0L22.4871 6.02025L22.4871 18.0607L12.0508 24.081L1.6145 18.0607L1.6145 6.02025L12.0508 0Z" transform="matrix(0.866395 -0.499359 0.500641 0.865655 939.684 122.777)" fill="white"/>
<path d="M12.0508 0L22.4871 6.02025L22.4871 18.0607L12.0508 24.081L1.6145 18.0607L1.6145 6.02025L12.0508 0Z" transform="matrix(0.866395 -0.499359 0.500641 0.865655 960.609 134.762)" fill="white"/>
<path d="M12.0508 0L22.4871 6.02025L22.4871 18.0607L12.0508 24.081L1.6145 18.0607L1.6145 6.02025L12.0508 0Z" transform="matrix(0.866395 -0.499359 0.500641 0.865655 939.684 146.743)" fill="white"/>
<path d="M12.0508 0L22.4871 6.02025L22.4871 18.0607L12.0508 24.081L1.6145 18.0607L1.6145 6.02025L12.0508 0Z" transform="matrix(0.866395 -0.499359 0.500641 0.865655 960.609 158.726)" fill="white"/>
<path d="M12.0508 0L22.4871 6.02025L22.4871 18.0607L12.0508 24.081L1.6145 18.0607L1.6145 6.02025L12.0508 0Z" transform="matrix(0.866395 -0.499359 0.500641 0.865655 960.609 86.8311)" fill="white"/>
<path d="M12.0508 0L22.4871 6.02025L22.4871 18.0607L12.0508 24.081L1.6145 18.0607L1.6145 6.02025L12.0508 0Z" transform="matrix(0.866395 -0.499359 0.500641 0.865655 960.609 110.795)" fill="white"/>
<path d="M12.0508 0L22.4871 6.02025L22.4871 18.0607L12.0508 24.081L1.6145 18.0607L1.6145 6.02025L12.0508 0Z" transform="matrix(0.866395 -0.499359 0.500641 0.865655 939.625 26.6016)" fill="white"/>
<path d="M12.0508 0L22.4871 6.02025L22.4871 18.0607L12.0508 24.081L1.6145 18.0607L1.6145 6.02025L12.0508 0Z" transform="matrix(0.866395 -0.499359 0.500641 0.865655 939.625 170.495)" fill="white"/>
<path d="M12.0508 0L22.4871 6.02025L22.4871 18.0607L12.0508 24.081L1.6145 18.0607L1.6145 6.02025L12.0508 0Z" transform="matrix(0.866395 -0.499359 0.500641 0.865655 981.793 51.04)" fill="white"/>
<path d="M12.0508 0L22.4871 6.02025L22.4871 18.0607L12.0508 24.081L1.6145 18.0607L1.6145 6.02025L12.0508 0Z" transform="matrix(0.866395 -0.499359 0.500641 0.865655 981.852 75.0605)" fill="white"/>
<path d="M12.0508 0L22.4871 6.02025L22.4871 18.0607L12.0508 24.081L1.6145 18.0607L1.6145 6.02025L12.0508 0Z" transform="matrix(0.866395 -0.499359 0.500641 0.865655 1002.78 38.9023)" fill="white"/>
<path d="M12.0508 0L22.4871 6.02025L22.4871 18.0607L12.0508 24.081L1.6145 18.0607L1.6145 6.02025L12.0508 0Z" transform="matrix(0.866395 -0.499359 0.500641 0.865655 1002.78 63.0781)" fill="white"/>
<path d="M12.0508 0L22.4871 6.02025L22.4871 18.0607L12.0508 24.081L1.6145 18.0607L1.6145 6.02025L12.0508 0Z" transform="matrix(0.866395 -0.499359 0.500641 0.865655 981.852 99.0244)" fill="white"/>
<path d="M12.0508 0L22.4871 6.02025L22.4871 18.0607L12.0508 24.081L1.6145 18.0607L1.6145 6.02025L12.0508 0Z" transform="matrix(0.866395 -0.499359 0.500641 0.865655 981.852 122.99)" fill="white"/>
<path d="M12.0508 0L22.4871 6.02025L22.4871 18.0607L12.0508 24.081L1.6145 18.0607L1.6145 6.02025L12.0508 0Z" transform="matrix(0.866395 -0.499359 0.500641 0.865655 1002.78 134.975)" fill="white"/>
<path d="M12.0508 0L22.4871 6.02025L22.4871 18.0607L12.0508 24.081L1.6145 18.0607L1.6145 6.02025L12.0508 0Z" transform="matrix(0.866395 -0.499359 0.500641 0.865655 981.852 146.956)" fill="white"/>
<path d="M12.0508 0L22.4871 6.02025L22.4871 18.0607L12.0508 24.081L1.6145 18.0607L1.6145 6.02025L12.0508 0Z" transform="matrix(0.866395 -0.499359 0.500641 0.865655 1002.78 158.938)" fill="white"/>
<path d="M12.0508 0L22.4871 6.02025L22.4871 18.0607L12.0508 24.081L1.6145 18.0607L1.6145 6.02025L12.0508 0Z" transform="matrix(0.866395 -0.499359 0.500641 0.865655 1002.78 87.0439)" fill="white"/>
<path d="M12.0508 0L22.4871 6.02025L22.4871 18.0607L12.0508 24.081L1.6145 18.0607L1.6145 6.02025L12.0508 0Z" transform="matrix(0.866395 -0.499359 0.500641 0.865655 1002.78 111.008)" fill="white"/>
<path d="M12.0508 0L22.4871 6.02025L22.4871 18.0607L12.0508 24.081L1.6145 18.0607L1.6145 6.02025L12.0508 0Z" transform="matrix(0.866395 -0.499359 0.500641 0.865655 981.793 26.8125)" fill="white"/>
<path d="M12.0508 0L22.4871 6.02025L22.4871 18.0607L12.0508 24.081L1.6145 18.0607L1.6145 6.02025L12.0508 0Z" transform="matrix(0.866395 -0.499359 0.500641 0.865655 981.793 170.708)" fill="white"/>
<path d="M12.0508 0L22.4871 6.02025L22.4871 18.0607L12.0508 24.081L1.6145 18.0607L1.6145 6.02025L12.0508 0Z" transform="matrix(0.866395 -0.499359 0.500641 0.865655 1023.75 51.251)" fill="white"/>
<path d="M12.0508 0L22.4871 6.02025L22.4871 18.0607L12.0508 24.081L1.6145 18.0607L1.6145 6.02025L12.0508 0Z" transform="matrix(0.866395 -0.499359 0.500641 0.865655 1023.81 75.2715)" fill="white"/>
<path d="M12.0508 0L22.4871 6.02025L22.4871 18.0607L12.0508 24.081L1.6145 18.0607L1.6145 6.02025L12.0508 0Z" transform="matrix(0.866395 -0.499359 0.500641 0.865655 1044.73 39.1133)" fill="white"/>
<path d="M12.0508 0L22.4871 6.02025L22.4871 18.0607L12.0508 24.081L1.6145 18.0607L1.6145 6.02025L12.0508 0Z" transform="matrix(0.866395 -0.499359 0.500641 0.865655 1044.73 63.2891)" fill="white"/>
<path d="M12.0508 0L22.4871 6.02025L22.4871 18.0607L12.0508 24.081L1.6145 18.0607L1.6145 6.02025L12.0508 0Z" transform="matrix(0.866395 -0.499359 0.500641 0.865655 1023.81 99.2354)" fill="white"/>
<path d="M12.0508 0L22.4871 6.02025L22.4871 18.0607L12.0508 24.081L1.6145 18.0607L1.6145 6.02025L12.0508 0Z" transform="matrix(0.866395 -0.499359 0.500641 0.865655 1023.81 123.201)" fill="white"/>
<path d="M12.0508 0L22.4871 6.02025L22.4871 18.0607L12.0508 24.081L1.6145 18.0607L1.6145 6.02025L12.0508 0Z" transform="matrix(0.866395 -0.499359 0.500641 0.865655 1044.73 135.186)" fill="white"/>
<path d="M12.0508 0L22.4871 6.02025L22.4871 18.0607L12.0508 24.081L1.6145 18.0607L1.6145 6.02025L12.0508 0Z" transform="matrix(0.866395 -0.499359 0.500641 0.865655 1023.81 147.167)" fill="white"/>
<path d="M12.0508 0L22.4871 6.02025L22.4871 18.0607L12.0508 24.081L1.6145 18.0607L1.6145 6.02025L12.0508 0Z" transform="matrix(0.866395 -0.499359 0.500641 0.865655 1044.73 159.149)" fill="white"/>
<path d="M12.0508 0L22.4871 6.02025L22.4871 18.0607L12.0508 24.081L1.6145 18.0607L1.6145 6.02025L12.0508 0Z" transform="matrix(0.866395 -0.499359 0.500641 0.865655 1044.73 87.2549)" fill="white"/>
<path d="M12.0508 0L22.4871 6.02025L22.4871 18.0607L12.0508 24.081L1.6145 18.0607L1.6145 6.02025L12.0508 0Z" transform="matrix(0.866395 -0.499359 0.500641 0.865655 1044.73 111.219)" fill="white"/>
<path d="M12.0508 0L22.4871 6.02025L22.4871 18.0607L12.0508 24.081L1.6145 18.0607L1.6145 6.02025L12.0508 0Z" transform="matrix(0.866395 -0.499359 0.500641 0.865655 1023.75 27.0254)" fill="white"/>
<path d="M12.0508 0L22.4871 6.02025L22.4871 18.0607L12.0508 24.081L1.6145 18.0607L1.6145 6.02025L12.0508 0Z" transform="matrix(0.866395 -0.499359 0.500641 0.865655 1023.75 170.919)" fill="white"/>
<path d="M12.0508 0L22.4871 6.02025L22.4871 18.0607L12.0508 24.081L1.6145 18.0607L1.6145 6.02025L12.0508 0Z" transform="matrix(0.866395 -0.499359 0.500641 0.865655 1065.55 51.249)" fill="white"/>
<path d="M12.0508 0L22.4871 6.02025L22.4871 18.0607L12.0508 24.081L1.6145 18.0607L1.6145 6.02025L12.0508 0Z" transform="matrix(0.866395 -0.499359 0.500641 0.865655 1065.61 75.2695)" fill="white"/>
<path d="M12.0508 0L22.4871 6.02025L22.4871 18.0607L12.0508 24.081L1.6145 18.0607L1.6145 6.02025L12.0508 0Z" transform="matrix(0.866395 -0.499359 0.500641 0.865655 1065.61 99.2334)" fill="white"/>
<path d="M12.0508 0L22.4871 6.02025L22.4871 18.0607L12.0508 24.081L1.6145 18.0607L1.6145 6.02025L12.0508 0Z" transform="matrix(0.866395 -0.499359 0.500641 0.865655 1065.61 123.199)" fill="white"/>
<path d="M12.0508 0L22.4871 6.02025L22.4871 18.0607L12.0508 24.081L1.6145 18.0607L1.6145 6.02025L12.0508 0Z" transform="matrix(0.866395 -0.499359 0.500641 0.865655 1065.61 147.165)" fill="white"/>
<path d="M12.0508 0L22.4871 6.02025L22.4871 18.0607L12.0508 24.081L1.6145 18.0607L1.6145 6.02025L12.0508 0Z" transform="matrix(0.866395 -0.499359 0.500641 0.865655 1065.55 27.0234)" fill="white"/>
<path d="M12.0508 0L22.4871 6.02025L22.4871 18.0607L12.0508 24.081L1.6145 18.0607L1.6145 6.02025L12.0508 0Z" transform="matrix(0.866395 -0.499359 0.500641 0.865655 1065.55 170.917)" fill="white"/>
</g>
</g>
</g>
<defs>
<filter id="filter0_d" x="19" y="22" width="1081" height="165" filterUnits="userSpaceOnUse" color-interpolation-filters="sRGB">
<feFlood flood-opacity="0" result="BackgroundImageFix"/>
<feColorMatrix in="SourceAlpha" type="matrix" values="0 0 0 0 0 0 0 0 0 0 0 0 0 0 0 0 0 0 255 0"/>
<feOffset dy="2"/>
<feGaussianBlur stdDeviation="5"/>
<feColorMatrix type="matrix" values="0 0 0 0 0 0 0 0 0 0 0 0 0 0 0 0 0 0 0.25 0"/>
<feBlend mode="normal" in2="BackgroundImageFix" result="effect1_dropShadow"/>
<feBlend mode="normal" in="SourceGraphic" in2="effect1_dropShadow" result="shape"/>
</filter>
</defs>
</svg>
