<svg width="1120" height="206" viewBox="0 0 1120 206" fill="none" xmlns="http://www.w3.org/2000/svg">
<g filter="url(#filter0_d)">
<path fill-rule="evenodd" clip-rule="evenodd" d="M743.398 13.5713C745.387 13.5713 747 12.4199 747 10.999C747 9.80664 745.863 2.35742 744.32 0H755.363C754 2.19727 753 8.7666 753 9.82812C753 11.1064 754.449 12.1426 756.238 12.1426C758.023 12.1426 759.473 11.1064 759.473 9.82812C759.473 8.7666 758.473 2.19727 757.113 0H766.152C764.789 2.19727 763.789 8.7666 763.789 9.82812C763.789 11.1064 765.238 12.1426 767.027 12.1426C768.812 12.1426 770.262 11.1064 770.262 9.82812C770.262 8.7666 769.262 2.19727 767.902 0H776.941C775.578 2.19727 774.578 8.7666 774.578 9.82812C774.578 11.1064 776.027 12.1426 777.816 12.1426C779.602 12.1426 781.051 11.1064 781.051 9.82812C781.051 8.7666 780.051 2.19727 778.691 0H787.73C786.367 2.19727 785.367 8.7666 785.367 9.82812C785.367 11.1064 786.816 12.1426 788.605 12.1426C790.391 12.1426 791.84 11.1064 791.84 9.82812C791.84 8.7666 790.84 2.19727 789.48 0H798.52C797.156 2.19727 796.156 8.7666 796.156 9.82812C796.156 11.1064 797.605 12.1426 799.395 12.1426C801.18 12.1426 802.629 11.1064 802.629 9.82812C802.629 8.7666 801.629 2.19727 800.27 0H809.312C807.949 2.19727 806.949 8.7666 806.949 9.82812C806.949 11.1064 808.398 12.1426 810.188 12.1426C811.973 12.1426 813.422 11.1064 813.422 9.82812C813.422 8.7666 812.422 2.19727 811.062 0H820.102C818.738 2.19727 817.738 8.7666 817.738 9.82812C817.738 11.1064 819.188 12.1426 820.977 12.1426C822.762 12.1426 824.211 11.1064 824.211 9.82812C824.211 8.7666 823.211 2.19727 821.852 0H830.891C829.527 2.19727 828.527 8.7666 828.527 9.82812C828.527 11.1064 829.977 12.1426 831.766 12.1426C833.551 12.1426 835 11.1064 835 9.82812C835 8.7666 834 2.19727 832.641 0H842.363C841 2.19727 840 8.7666 840 9.82812C840 11.1064 841.449 12.1426 843.238 12.1426C845.023 12.1426 846.473 11.1064 846.473 9.82812C846.473 8.7666 845.473 2.19727 844.113 0H853.152C851.789 2.19727 850.789 8.7666 850.789 9.82812C850.789 11.1064 852.238 12.1426 854.027 12.1426C855.812 12.1426 857.262 11.1064 857.262 9.82812C857.262 8.7666 856.262 2.19727 854.902 0H863.941C862.578 2.19727 861.578 8.7666 861.578 9.82812C861.578 11.1064 863.027 12.1426 864.816 12.1426C866.602 12.1426 868.051 11.1064 868.051 9.82812C868.051 8.7666 867.051 2.19727 865.691 0H874.73C873.367 2.19727 872.367 8.7666 872.367 9.82812C872.367 11.1064 873.816 12.1426 875.605 12.1426C877.391 12.1426 878.84 11.1064 878.84 9.82812C878.84 8.7666 877.84 2.19727 876.48 0H885.52C884.156 2.19727 883.156 8.7666 883.156 9.82812C883.156 11.1064 884.605 12.1426 886.395 12.1426C888.18 12.1426 889.629 11.1064 889.629 9.82812C889.629 8.7666 888.629 2.19727 887.27 0H896.312C894.949 2.19727 893.949 8.7666 893.949 9.82812C893.949 11.1064 895.398 12.1426 897.188 12.1426C898.973 12.1426 900.422 11.1064 900.422 9.82812C900.422 8.7666 899.422 2.19727 898.062 0H907.102C905.738 2.19727 904.738 8.7666 904.738 9.82812C904.738 11.1064 906.188 12.1426 907.977 12.1426C909.762 12.1426 911.211 11.1064 911.211 9.82812C911.211 8.7666 910.211 2.19727 908.852 0H917.891C916.527 2.19727 915.527 8.7666 915.527 9.82812C915.527 11.1064 916.977 12.1426 918.766 12.1426C920.551 12.1426 922 11.1064 922 9.82812C922 8.7666 921 2.19727 919.641 0H1049C1053.42 0 1057 3.58203 1057 8V50H0V8C0 3.58203 3.58203 0 8 0H121.164C119.914 2.11328 119 8.24609 119 9.24219C119 10.4492 120.344 11.4277 122 11.4277C123.656 11.4277 125 10.4492 125 9.24219C125 8.24609 124.086 2.11328 122.836 0H131.164C129.914 2.11328 129 8.24609 129 9.24219C129 10.4492 130.344 11.4277 132 11.4277C133.656 11.4277 135 10.4492 135 9.24219C135 8.24609 134.086 2.11328 132.836 0H141.164C139.914 2.11328 139 8.24609 139 9.24219C139 10.4492 140.344 11.4277 142 11.4277C143.656 11.4277 145 10.4492 145 9.24219C145 8.24609 144.086 2.11328 142.836 0H151.164C149.914 2.11328 149 8.24609 149 9.24219C149 10.4492 150.344 11.4277 152 11.4277C153.656 11.4277 155 10.4492 155 9.24219C155 8.24609 154.086 2.11328 152.836 0H161.164C159.914 2.11328 159 8.24609 159 9.24219C159 10.4492 160.344 11.4277 162 11.4277C163.656 11.4277 165 10.4492 165 9.24219C165 8.24609 164.086 2.11328 162.836 0H171.164C169.914 2.11328 169 8.24609 169 9.24219C169 10.4492 170.344 11.4277 172 11.4277C173.656 11.4277 175 10.4492 175 9.24219C175 8.24609 174.086 2.11328 172.836 0H181.164C179.914 2.11328 179 8.24609 179 9.24219C179 10.4492 180.344 11.4277 182 11.4277C183.656 11.4277 185 10.4492 185 9.24219C185 8.24609 184.086 2.11328 182.836 0H191.164C189.914 2.11328 189 8.24609 189 9.24219C189 10.4492 190.344 11.4277 192 11.4277C193.656 11.4277 195 10.4492 195 9.24219C195 8.24609 194.086 2.11328 192.836 0H203.613C202.109 2.35742 201 9.80664 201 10.999C201 12.4199 202.574 13.5713 204.512 13.5713C206.453 13.5713 208.027 12.4199 208.027 10.999C208.027 9.80664 206.918 2.35742 205.414 0H215.324C213.82 2.35742 212.711 9.80664 212.711 10.999C212.711 12.4199 214.285 13.5713 216.223 13.5713C218.164 13.5713 219.738 12.4199 219.738 10.999C219.738 9.80664 218.629 2.35742 217.125 0H227.035C225.531 2.35742 224.422 9.80664 224.422 10.999C224.422 12.4199 225.996 13.5713 227.934 13.5713C229.875 13.5713 231.449 12.4199 231.449 10.999C231.449 9.80664 230.34 2.35742 228.836 0H238.746C237.242 2.35742 236.133 9.80664 236.133 10.999C236.133 12.4199 237.707 13.5713 239.645 13.5713C241.586 13.5713 243.16 12.4199 243.16 10.999C243.16 9.80664 242.051 2.35742 240.547 0H250.457C248.953 2.35742 247.844 9.80664 247.844 10.999C247.844 12.4199 249.418 13.5713 251.355 13.5713C253.297 13.5713 254.871 12.4199 254.871 10.999C254.871 9.80664 253.762 2.35742 252.258 0H262.164C260.66 2.35742 259.551 9.80664 259.551 10.999C259.551 12.4199 261.125 13.5713 263.062 13.5713C265.004 13.5713 266.578 12.4199 266.578 10.999C266.578 9.80664 265.469 2.35742 263.965 0H273.875C272.371 2.35742 271.262 9.80664 271.262 10.999C271.262 12.4199 272.836 13.5713 274.773 13.5713C276.715 13.5713 278.289 12.4199 278.289 10.999C278.289 9.80664 277.18 2.35742 275.676 0H285.586C284.082 2.35742 282.973 9.80664 282.973 10.999C282.973 12.4199 284.547 13.5713 286.484 13.5713C288.426 13.5713 290 12.4199 290 10.999C290 9.80664 288.891 2.35742 287.387 0H298.363C297 2.19727 296 8.7666 296 9.82812C296 11.1064 297.449 12.1426 299.238 12.1426C301.023 12.1426 302.473 11.1064 302.473 9.82812C302.473 8.7666 301.473 2.19727 300.113 0H309.152C307.789 2.19727 306.789 8.7666 306.789 9.82812C306.789 11.1064 308.238 12.1426 310.027 12.1426C311.812 12.1426 313.262 11.1064 313.262 9.82812C313.262 8.7666 312.262 2.19727 310.902 0H319.941C318.578 2.19727 317.578 8.7666 317.578 9.82812C317.578 11.1064 319.027 12.1426 320.816 12.1426C322.602 12.1426 324.051 11.1064 324.051 9.82812C324.051 8.7666 323.051 2.19727 321.691 0H330.73C329.367 2.19727 328.367 8.7666 328.367 9.82812C328.367 11.1064 329.816 12.1426 331.605 12.1426C333.391 12.1426 334.84 11.1064 334.84 9.82812C334.84 8.7666 333.84 2.19727 332.48 0H341.52C340.156 2.19727 339.156 8.7666 339.156 9.82812C339.156 11.1064 340.605 12.1426 342.395 12.1426C344.18 12.1426 345.629 11.1064 345.629 9.82812C345.629 8.7666 344.629 2.19727 343.27 0H352.312C350.949 2.19727 349.949 8.7666 349.949 9.82812C349.949 11.1064 351.398 12.1426 353.188 12.1426C354.973 12.1426 356.422 11.1064 356.422 9.82812C356.422 8.7666 355.422 2.19727 354.062 0H363.102C361.738 2.19727 360.738 8.7666 360.738 9.82812C360.738 11.1064 362.188 12.1426 363.977 12.1426C365.762 12.1426 367.211 11.1064 367.211 9.82812C367.211 8.7666 366.211 2.19727 364.852 0H373.891C372.527 2.19727 371.527 8.7666 371.527 9.82812C371.527 11.1064 372.977 12.1426 374.766 12.1426C376.551 12.1426 378 11.1064 378 9.82812C378 8.7666 377 2.19727 375.641 0H386.363C385 2.19727 384 8.7666 384 9.82812C384 11.1064 385.449 12.1426 387.238 12.1426C389.023 12.1426 390.473 11.1064 390.473 9.82812C390.473 8.7666 389.473 2.19727 388.113 0H397.152C395.789 2.19727 394.789 8.7666 394.789 9.82812C394.789 11.1064 396.238 12.1426 398.027 12.1426C399.812 12.1426 401.262 11.1064 401.262 9.82812C401.262 8.7666 400.262 2.19727 398.902 0H407.941C406.578 2.19727 405.578 8.7666 405.578 9.82812C405.578 11.1064 407.027 12.1426 408.816 12.1426C410.602 12.1426 412.051 11.1064 412.051 9.82812C412.051 8.7666 411.051 2.19727 409.691 0H418.73C417.367 2.19727 416.367 8.7666 416.367 9.82812C416.367 11.1064 417.816 12.1426 419.605 12.1426C421.391 12.1426 422.84 11.1064 422.84 9.82812C422.84 8.7666 421.84 2.19727 420.48 0H429.52C428.156 2.19727 427.156 8.7666 427.156 9.82812C427.156 11.1064 428.605 12.1426 430.395 12.1426C432.18 12.1426 433.629 11.1064 433.629 9.82812C433.629 8.7666 432.629 2.19727 431.27 0H440.312C438.949 2.19727 437.949 8.7666 437.949 9.82812C437.949 11.1064 439.398 12.1426 441.188 12.1426C442.973 12.1426 444.422 11.1064 444.422 9.82812C444.422 8.7666 443.422 2.19727 442.062 0H451.102C449.738 2.19727 448.738 8.7666 448.738 9.82812C448.738 11.1064 450.188 12.1426 451.977 12.1426C453.762 12.1426 455.211 11.1064 455.211 9.82812C455.211 8.7666 454.211 2.19727 452.852 0H461.891C460.527 2.19727 459.527 8.7666 459.527 9.82812C459.527 11.1064 460.977 12.1426 462.766 12.1426C464.551 12.1426 466 11.1064 466 9.82812C466 8.7666 465 2.19727 463.641 0H473.363C472 2.19727 471 8.7666 471 9.82812C471 11.1064 472.449 12.1426 474.238 12.1426C476.023 12.1426 477.473 11.1064 477.473 9.82812C477.473 8.7666 476.473 2.19727 475.113 0H484.152C482.789 2.19727 481.789 8.7666 481.789 9.82812C481.789 11.1064 483.238 12.1426 485.027 12.1426C486.812 12.1426 488.262 11.1064 488.262 9.82812C488.262 8.7666 487.262 2.19727 485.902 0H494.941C493.578 2.19727 492.578 8.7666 492.578 9.82812C492.578 11.1064 494.027 12.1426 495.816 12.1426C497.602 12.1426 499.051 11.1064 499.051 9.82812C499.051 8.7666 498.051 2.19727 496.691 0H505.73C504.367 2.19727 503.367 8.7666 503.367 9.82812C503.367 11.1064 504.816 12.1426 506.605 12.1426C508.391 12.1426 509.84 11.1064 509.84 9.82812C509.84 8.7666 508.84 2.19727 507.48 0H516.52C515.156 2.19727 514.156 8.7666 514.156 9.82812C514.156 11.1064 515.605 12.1426 517.395 12.1426C519.18 12.1426 520.629 11.1064 520.629 9.82812C520.629 8.7666 519.629 2.19727 518.27 0H527.312C525.949 2.19727 524.949 8.7666 524.949 9.82812C524.949 11.1064 526.398 12.1426 528.188 12.1426C529.973 12.1426 531.422 11.1064 531.422 9.82812C531.422 8.7666 530.422 2.19727 529.062 0H538.102C536.738 2.19727 535.738 8.7666 535.738 9.82812C535.738 11.1064 537.188 12.1426 538.977 12.1426C540.762 12.1426 542.211 11.1064 542.211 9.82812C542.211 8.7666 541.211 2.19727 539.852 0H548.891C547.527 2.19727 546.527 8.7666 546.527 9.82812C546.527 11.1064 547.977 12.1426 549.766 12.1426C551.551 12.1426 553 11.1064 553 9.82812C553 8.7666 552 2.19727 550.641 0H561.68C560.137 2.35742 559 9.80664 559 10.999C559 12.4199 560.613 13.5713 562.602 13.5713C564.59 13.5713 566.203 12.4199 566.203 10.999C566.203 9.80664 565.066 2.35742 563.523 0H573.684C572.141 2.35742 571.004 9.80664 571.004 10.999C571.004 12.4199 572.617 13.5713 574.605 13.5713C576.594 13.5713 578.207 12.4199 578.207 10.999C578.207 9.80664 577.07 2.35742 575.527 0H585.688C584.145 2.35742 583.008 9.80664 583.008 10.999C583.008 12.4199 584.621 13.5713 586.609 13.5713C588.598 13.5713 590.211 12.4199 590.211 10.999C590.211 9.80664 589.074 2.35742 587.531 0H597.688C596.145 2.35742 595.008 9.80664 595.008 10.999C595.008 12.4199 596.621 13.5713 598.609 13.5713C600.598 13.5713 602.211 12.4199 602.211 10.999C602.211 9.80664 601.074 2.35742 599.531 0H609.691C608.148 2.35742 607.012 9.80664 607.012 10.999C607.012 12.4199 608.625 13.5713 610.613 13.5713C612.602 13.5713 614.215 12.4199 614.215 10.999C614.215 9.80664 613.078 2.35742 611.535 0H621.691C620.148 2.35742 619.012 9.80664 619.012 10.999C619.012 12.4199 620.625 13.5713 622.613 13.5713C624.602 13.5713 626.215 12.4199 626.215 10.999C626.215 9.80664 625.078 2.35742 623.535 0H633.695C632.152 2.35742 631.016 9.80664 631.016 10.999C631.016 12.4199 632.629 13.5713 634.617 13.5713C636.605 13.5713 638.219 12.4199 638.219 10.999C638.219 9.80664 637.082 2.35742 635.539 0H645.699C644.156 2.35742 643.02 9.80664 643.02 10.999C643.02 12.4199 644.633 13.5713 646.621 13.5713C648.609 13.5713 650.223 12.4199 650.223 10.999C650.223 9.80664 649.086 2.35742 647.543 0H658.461C656.918 2.35742 655.781 9.80664 655.781 10.999C655.781 12.4199 657.395 13.5713 659.383 13.5713C661.371 13.5713 662.984 12.4199 662.984 10.999C662.984 9.80664 661.848 2.35742 660.305 0H670.461C668.918 2.35742 667.781 9.80664 667.781 10.999C667.781 12.4199 669.395 13.5713 671.383 13.5713C673.371 13.5713 674.984 12.4199 674.984 10.999C674.984 9.80664 673.848 2.35742 672.305 0H682.465C680.922 2.35742 679.785 9.80664 679.785 10.999C679.785 12.4199 681.398 13.5713 683.387 13.5713C685.375 13.5713 686.988 12.4199 686.988 10.999C686.988 9.80664 685.852 2.35742 684.309 0H694.465C692.922 2.35742 691.785 9.80664 691.785 10.999C691.785 12.4199 693.398 13.5713 695.387 13.5713C697.375 13.5713 698.988 12.4199 698.988 10.999C698.988 9.80664 697.852 2.35742 696.309 0H706.469C704.926 2.35742 703.789 9.80664 703.789 10.999C703.789 12.4199 705.402 13.5713 707.391 13.5713C709.379 13.5713 710.992 12.4199 710.992 10.999C710.992 9.80664 709.855 2.35742 708.312 0H718.473C716.93 2.35742 715.793 9.80664 715.793 10.999C715.793 12.4199 717.406 13.5713 719.395 13.5713C721.383 13.5713 722.996 12.4199 722.996 10.999C722.996 9.80664 721.859 2.35742 720.316 0H730.477C728.934 2.35742 727.797 9.80664 727.797 10.999C727.797 12.4199 729.41 13.5713 731.398 13.5713C733.387 13.5713 735 12.4199 735 10.999C735 9.80664 733.863 2.35742 732.32 0H742.477C740.934 2.35742 739.797 9.80664 739.797 10.999C739.797 12.4199 741.41 13.5713 743.398 13.5713Z" transform="translate(31 53)" fill="#FFE391"/>
<path fill-rule="evenodd" clip-rule="evenodd" d="M0 0H1057V42C1057 46.418 1053.42 50 1049 50H950.457C951.379 47.3271 952 43.0088 952 42.1865C952 40.9795 950.656 40.001 949 40.001C947.344 40.001 946 40.9795 946 42.1865C946 43.0088 946.621 47.3271 947.543 50H940.457C941.379 47.3271 942 43.0088 942 42.1865C942 40.9795 940.656 40.001 939 40.001C937.344 40.001 936 40.9795 936 42.1865C936 43.0088 936.621 47.3271 937.543 50H930.457C931.379 47.3271 932 43.0088 932 42.1865C932 40.9795 930.656 40.001 929 40.001C927.344 40.001 926 40.9795 926 42.1865C926 43.0088 926.621 47.3271 927.543 50H920.457C921.379 47.3271 922 43.0088 922 42.1865C922 40.9795 920.656 40.001 919 40.001C917.344 40.001 916 40.9795 916 42.1865C916 43.0088 916.621 47.3271 917.543 50H910.457C911.379 47.3271 912 43.0088 912 42.1865C912 40.9795 910.656 40.001 909 40.001C907.344 40.001 906 40.9795 906 42.1865C906 43.0088 906.621 47.3271 907.543 50H900.457C901.379 47.3271 902 43.0088 902 42.1865C902 40.9795 900.656 40.001 899 40.001C897.344 40.001 896 40.9795 896 42.1865C896 43.0088 896.621 47.3271 897.543 50H890.457C891.379 47.3271 892 43.0088 892 42.1865C892 40.9795 890.656 40.001 889 40.001C887.344 40.001 886 40.9795 886 42.1865C886 43.0088 886.621 47.3271 887.543 50H880.457C881.379 47.3271 882 43.0088 882 42.1865C882 40.9795 880.656 40.001 879 40.001C877.344 40.001 876 40.9795 876 42.1865C876 43.0088 876.621 47.3271 877.543 50H868.059C869.211 46.9033 870 41.4365 870 40.4297C870 39.0088 868.426 37.8574 866.488 37.8574C864.547 37.8574 862.973 39.0088 862.973 40.4297C862.973 41.4365 863.766 46.9033 864.918 50H856.348C857.5 46.9033 858.289 41.4365 858.289 40.4297C858.289 39.0088 856.715 37.8574 854.777 37.8574C852.836 37.8574 851.262 39.0088 851.262 40.4297C851.262 41.4365 852.055 46.9033 853.207 50H844.637C845.789 46.9033 846.578 41.4365 846.578 40.4297C846.578 39.0088 845.004 37.8574 843.066 37.8574C841.125 37.8574 839.551 39.0088 839.551 40.4297C839.551 41.4365 840.344 46.9033 841.496 50H832.926C834.078 46.9033 834.867 41.4365 834.867 40.4297C834.867 39.0088 833.293 37.8574 831.355 37.8574C829.414 37.8574 827.84 39.0088 827.84 40.4297C827.84 41.4365 828.633 46.9033 829.785 50H821.215C822.367 46.9033 823.156 41.4365 823.156 40.4297C823.156 39.0088 821.582 37.8574 819.645 37.8574C817.703 37.8574 816.129 39.0088 816.129 40.4297C816.129 41.4365 816.922 46.9033 818.074 50H809.508C810.66 46.9033 811.449 41.4365 811.449 40.4297C811.449 39.0088 809.875 37.8574 807.938 37.8574C805.996 37.8574 804.422 39.0088 804.422 40.4297C804.422 41.4365 805.215 46.9033 806.367 50H797.797C798.949 46.9033 799.738 41.4365 799.738 40.4297C799.738 39.0088 798.164 37.8574 796.227 37.8574C794.285 37.8574 792.711 39.0088 792.711 40.4297C792.711 41.4365 793.504 46.9033 794.656 50H786.086C787.238 46.9033 788.027 41.4365 788.027 40.4297C788.027 39.0088 786.453 37.8574 784.516 37.8574C782.574 37.8574 781 39.0088 781 40.4297C781 41.4365 781.793 46.9033 782.945 50H773.289C774.309 47.1816 775 42.4844 775 41.6006C775 40.3223 773.551 39.2861 771.762 39.2861C769.977 39.2861 768.527 40.3223 768.527 41.6006C768.527 42.4844 769.223 47.1816 770.238 50H762.5C763.52 47.1816 764.211 42.4844 764.211 41.6006C764.211 40.3223 762.762 39.2861 760.973 39.2861C759.188 39.2861 757.738 40.3223 757.738 41.6006C757.738 42.4844 758.434 47.1816 759.449 50H751.711C752.73 47.1816 753.422 42.4844 753.422 41.6006C753.422 40.3223 751.973 39.2861 750.184 39.2861C748.398 39.2861 746.949 40.3223 746.949 41.6006C746.949 42.4844 747.645 47.1816 748.66 50H740.922C741.941 47.1816 742.633 42.4844 742.633 41.6006C742.633 40.3223 741.184 39.2861 739.395 39.2861C737.609 39.2861 736.16 40.3223 736.16 41.6006C736.16 42.4844 736.855 47.1816 737.871 50H730.133C731.152 47.1816 731.844 42.4844 731.844 41.6006C731.844 40.3223 730.395 39.2861 728.605 39.2861C726.82 39.2861 725.371 40.3223 725.371 41.6006C725.371 42.4844 726.066 47.1816 727.082 50H719.34C720.359 47.1816 721.051 42.4844 721.051 41.6006C721.051 40.3223 719.602 39.2861 717.812 39.2861C716.027 39.2861 714.578 40.3223 714.578 41.6006C714.578 42.4844 715.273 47.1816 716.289 50H708.551C709.57 47.1816 710.262 42.4844 710.262 41.6006C710.262 40.3223 708.812 39.2861 707.023 39.2861C705.238 39.2861 703.789 40.3223 703.789 41.6006C703.789 42.4844 704.484 47.1816 705.5 50H697.762C698.781 47.1816 699.473 42.4844 699.473 41.6006C699.473 40.3223 698.023 39.2861 696.234 39.2861C694.449 39.2861 693 40.3223 693 41.6006C693 42.4844 693.695 47.1816 694.711 50H685.289C686.309 47.1816 687 42.4844 687 41.6006C687 40.3223 685.551 39.2861 683.762 39.2861C681.977 39.2861 680.527 40.3223 680.527 41.6006C680.527 42.4844 681.223 47.1816 682.238 50H674.5C675.52 47.1816 676.211 42.4844 676.211 41.6006C676.211 40.3223 674.762 39.2861 672.973 39.2861C671.188 39.2861 669.738 40.3223 669.738 41.6006C669.738 42.4844 670.434 47.1816 671.449 50H663.711C664.73 47.1816 665.422 42.4844 665.422 41.6006C665.422 40.3223 663.973 39.2861 662.184 39.2861C660.398 39.2861 658.949 40.3223 658.949 41.6006C658.949 42.4844 659.645 47.1816 660.66 50H652.922C653.941 47.1816 654.633 42.4844 654.633 41.6006C654.633 40.3223 653.184 39.2861 651.395 39.2861C649.609 39.2861 648.16 40.3223 648.16 41.6006C648.16 42.4844 648.855 47.1816 649.871 50H642.133C643.152 47.1816 643.844 42.4844 643.844 41.6006C643.844 40.3223 642.395 39.2861 640.605 39.2861C638.82 39.2861 637.371 40.3223 637.371 41.6006C637.371 42.4844 638.066 47.1816 639.082 50H631.34C632.359 47.1816 633.051 42.4844 633.051 41.6006C633.051 40.3223 631.602 39.2861 629.812 39.2861C628.027 39.2861 626.578 40.3223 626.578 41.6006C626.578 42.4844 627.273 47.1816 628.289 50H620.551C621.57 47.1816 622.262 42.4844 622.262 41.6006C622.262 40.3223 620.812 39.2861 619.023 39.2861C617.238 39.2861 615.789 40.3223 615.789 41.6006C615.789 42.4844 616.484 47.1816 617.5 50H609.762C610.781 47.1816 611.473 42.4844 611.473 41.6006C611.473 40.3223 610.023 39.2861 608.234 39.2861C606.449 39.2861 605 40.3223 605 41.6006C605 42.4844 605.695 47.1816 606.711 50H598.289C599.309 47.1816 600 42.4844 600 41.6006C600 40.3223 598.551 39.2861 596.762 39.2861C594.977 39.2861 593.527 40.3223 593.527 41.6006C593.527 42.4844 594.223 47.1816 595.238 50H587.5C588.52 47.1816 589.211 42.4844 589.211 41.6006C589.211 40.3223 587.762 39.2861 585.973 39.2861C584.188 39.2861 582.738 40.3223 582.738 41.6006C582.738 42.4844 583.434 47.1816 584.449 50H576.711C577.73 47.1816 578.422 42.4844 578.422 41.6006C578.422 40.3223 576.973 39.2861 575.184 39.2861C573.398 39.2861 571.949 40.3223 571.949 41.6006C571.949 42.4844 572.645 47.1816 573.66 50H565.922C566.941 47.1816 567.633 42.4844 567.633 41.6006C567.633 40.3223 566.184 39.2861 564.395 39.2861C562.609 39.2861 561.16 40.3223 561.16 41.6006C561.16 42.4844 561.855 47.1816 562.871 50H555.133C556.152 47.1816 556.844 42.4844 556.844 41.6006C556.844 40.3223 555.395 39.2861 553.605 39.2861C551.82 39.2861 550.371 40.3223 550.371 41.6006C550.371 42.4844 551.066 47.1816 552.082 50H544.34C545.359 47.1816 546.051 42.4844 546.051 41.6006C546.051 40.3223 544.602 39.2861 542.812 39.2861C541.027 39.2861 539.578 40.3223 539.578 41.6006C539.578 42.4844 540.273 47.1816 541.289 50H533.551C534.57 47.1816 535.262 42.4844 535.262 41.6006C535.262 40.3223 533.812 39.2861 532.023 39.2861C530.238 39.2861 528.789 40.3223 528.789 41.6006C528.789 42.4844 529.484 47.1816 530.5 50H522.762C523.781 47.1816 524.473 42.4844 524.473 41.6006C524.473 40.3223 523.023 39.2861 521.234 39.2861C519.449 39.2861 518 40.3223 518 41.6006C518 42.4844 518.695 47.1816 519.711 50H510.008C511.188 46.9033 512 41.4365 512 40.4297C512 39.0088 510.387 37.8574 508.398 37.8574C506.41 37.8574 504.797 39.0088 504.797 40.4297C504.797 41.4365 505.609 46.9033 506.789 50H498.004C499.184 46.9033 499.996 41.4365 499.996 40.4297C499.996 39.0088 498.383 37.8574 496.395 37.8574C494.406 37.8574 492.793 39.0088 492.793 40.4297C492.793 41.4365 493.605 46.9033 494.785 50H486C487.18 46.9033 487.992 41.4365 487.992 40.4297C487.992 39.0088 486.379 37.8574 484.391 37.8574C482.402 37.8574 480.789 39.0088 480.789 40.4297C480.789 41.4365 481.602 46.9033 482.781 50H474C475.18 46.9033 475.992 41.4365 475.992 40.4297C475.992 39.0088 474.379 37.8574 472.391 37.8574C470.402 37.8574 468.789 39.0088 468.789 40.4297C468.789 41.4365 469.602 46.9033 470.781 50H461.996C463.176 46.9033 463.988 41.4365 463.988 40.4297C463.988 39.0088 462.375 37.8574 460.387 37.8574C458.398 37.8574 456.785 39.0088 456.785 40.4297C456.785 41.4365 457.598 46.9033 458.777 50H449.996C451.176 46.9033 451.988 41.4365 451.988 40.4297C451.988 39.0088 450.375 37.8574 448.387 37.8574C446.398 37.8574 444.785 39.0088 444.785 40.4297C444.785 41.4365 445.598 46.9033 446.777 50H437.992C439.172 46.9033 439.984 41.4365 439.984 40.4297C439.984 39.0088 438.371 37.8574 436.383 37.8574C434.395 37.8574 432.781 39.0088 432.781 40.4297C432.781 41.4365 433.594 46.9033 434.773 50H425.988C427.168 46.9033 427.98 41.4365 427.98 40.4297C427.98 39.0088 426.367 37.8574 424.379 37.8574C422.391 37.8574 420.777 39.0088 420.777 40.4297C420.777 41.4365 421.59 46.9033 422.77 50H413.227C414.406 46.9033 415.219 41.4365 415.219 40.4297C415.219 39.0088 413.605 37.8574 411.617 37.8574C409.629 37.8574 408.016 39.0088 408.016 40.4297C408.016 41.4365 408.828 46.9033 410.008 50H401.227C402.406 46.9033 403.219 41.4365 403.219 40.4297C403.219 39.0088 401.605 37.8574 399.617 37.8574C397.629 37.8574 396.016 39.0088 396.016 40.4297C396.016 41.4365 396.828 46.9033 398.008 50H389.223C390.402 46.9033 391.215 41.4365 391.215 40.4297C391.215 39.0088 389.602 37.8574 387.613 37.8574C385.625 37.8574 384.012 39.0088 384.012 40.4297C384.012 41.4365 384.824 46.9033 386.004 50H377.223C378.402 46.9033 379.215 41.4365 379.215 40.4297C379.215 39.0088 377.602 37.8574 375.613 37.8574C373.625 37.8574 372.012 39.0088 372.012 40.4297C372.012 41.4365 372.824 46.9033 374.004 50H365.219C366.398 46.9033 367.211 41.4365 367.211 40.4297C367.211 39.0088 365.598 37.8574 363.609 37.8574C361.621 37.8574 360.008 39.0088 360.008 40.4297C360.008 41.4365 360.82 46.9033 362 50H353.215C354.395 46.9033 355.207 41.4365 355.207 40.4297C355.207 39.0088 353.594 37.8574 351.605 37.8574C349.617 37.8574 348.004 39.0088 348.004 40.4297C348.004 41.4365 348.816 46.9033 349.996 50H341.211C342.391 46.9033 343.203 41.4365 343.203 40.4297C343.203 39.0088 341.59 37.8574 339.602 37.8574C337.613 37.8574 336 39.0088 336 40.4297C336 41.4365 336.812 46.9033 337.992 50H329.211C330.391 46.9033 331.203 41.4365 331.203 40.4297C331.203 39.0088 329.59 37.8574 327.602 37.8574C325.613 37.8574 324 39.0088 324 40.4297C324 41.4365 324.812 46.9033 325.992 50H316.289C317.309 47.1816 318 42.4844 318 41.6006C318 40.3223 316.551 39.2861 314.762 39.2861C312.977 39.2861 311.527 40.3223 311.527 41.6006C311.527 42.4844 312.223 47.1816 313.238 50H305.5C306.52 47.1816 307.211 42.4844 307.211 41.6006C307.211 40.3223 305.762 39.2861 303.973 39.2861C302.188 39.2861 300.738 40.3223 300.738 41.6006C300.738 42.4844 301.434 47.1816 302.449 50H294.711C295.73 47.1816 296.422 42.4844 296.422 41.6006C296.422 40.3223 294.973 39.2861 293.184 39.2861C291.398 39.2861 289.949 40.3223 289.949 41.6006C289.949 42.4844 290.645 47.1816 291.66 50H283.922C284.941 47.1816 285.633 42.4844 285.633 41.6006C285.633 40.3223 284.184 39.2861 282.395 39.2861C280.609 39.2861 279.16 40.3223 279.16 41.6006C279.16 42.4844 279.855 47.1816 280.871 50H273.133C274.152 47.1816 274.844 42.4844 274.844 41.6006C274.844 40.3223 273.395 39.2861 271.605 39.2861C269.82 39.2861 268.371 40.3223 268.371 41.6006C268.371 42.4844 269.066 47.1816 270.082 50H262.34C263.359 47.1816 264.051 42.4844 264.051 41.6006C264.051 40.3223 262.602 39.2861 260.812 39.2861C259.027 39.2861 257.578 40.3223 257.578 41.6006C257.578 42.4844 258.273 47.1816 259.289 50H251.551C252.57 47.1816 253.262 42.4844 253.262 41.6006C253.262 40.3223 251.812 39.2861 250.023 39.2861C248.238 39.2861 246.789 40.3223 246.789 41.6006C246.789 42.4844 247.484 47.1816 248.5 50H240.762C241.781 47.1816 242.473 42.4844 242.473 41.6006C242.473 40.3223 241.023 39.2861 239.234 39.2861C237.449 39.2861 236 40.3223 236 41.6006C236 42.4844 236.695 47.1816 237.711 50H229.289C230.309 47.1816 231 42.4844 231 41.6006C231 40.3223 229.551 39.2861 227.762 39.2861C225.977 39.2861 224.527 40.3223 224.527 41.6006C224.527 42.4844 225.223 47.1816 226.238 50H218.5C219.52 47.1816 220.211 42.4844 220.211 41.6006C220.211 40.3223 218.762 39.2861 216.973 39.2861C215.188 39.2861 213.738 40.3223 213.738 41.6006C213.738 42.4844 214.434 47.1816 215.449 50H207.711C208.73 47.1816 209.422 42.4844 209.422 41.6006C209.422 40.3223 207.973 39.2861 206.184 39.2861C204.398 39.2861 202.949 40.3223 202.949 41.6006C202.949 42.4844 203.645 47.1816 204.66 50H196.922C197.941 47.1816 198.633 42.4844 198.633 41.6006C198.633 40.3223 197.184 39.2861 195.395 39.2861C193.609 39.2861 192.16 40.3223 192.16 41.6006C192.16 42.4844 192.855 47.1816 193.871 50H186.133C187.152 47.1816 187.844 42.4844 187.844 41.6006C187.844 40.3223 186.395 39.2861 184.605 39.2861C182.82 39.2861 181.371 40.3223 181.371 41.6006C181.371 42.4844 182.066 47.1816 183.082 50H175.34C176.359 47.1816 177.051 42.4844 177.051 41.6006C177.051 40.3223 175.602 39.2861 173.812 39.2861C172.027 39.2861 170.578 40.3223 170.578 41.6006C170.578 42.4844 171.273 47.1816 172.289 50H164.551C165.57 47.1816 166.262 42.4844 166.262 41.6006C166.262 40.3223 164.812 39.2861 163.023 39.2861C161.238 39.2861 159.789 40.3223 159.789 41.6006C159.789 42.4844 160.484 47.1816 161.5 50H153.762C154.781 47.1816 155.473 42.4844 155.473 41.6006C155.473 40.3223 154.023 39.2861 152.234 39.2861C150.449 39.2861 149 40.3223 149 41.6006C149 42.4844 149.695 47.1816 150.711 50H8C3.58203 50 0 46.418 0 42V0Z" transform="translate(31 103)" fill="#FFF7E1"/>
</g>
<defs>
<filter id="filter0_d" x="21" y="45" width="1077" height="120" filterUnits="userSpaceOnUse" color-interpolation-filters="sRGB">
<feFlood flood-opacity="0" result="BackgroundImageFix"/>
<feColorMatrix in="SourceAlpha" type="matrix" values="0 0 0 0 0 0 0 0 0 0 0 0 0 0 0 0 0 0 255 0"/>
<feOffset dy="2"/>
<feGaussianBlur stdDeviation="5"/>
<feColorMatrix type="matrix" values="0 0 0 0 0 0 0 0 0 0 0 0 0 0 0 0 0 0 0.25 0"/>
<feBlend mode="normal" in2="BackgroundImageFix" result="effect1_dropShadow"/>
<feBlend mode="normal" in="SourceGraphic" in2="effect1_dropShadow" result="shape"/>
</filter>
</defs>
</svg>
