<svg width="1120" height="206" viewBox="0 0 1120 206" fill="none" xmlns="http://www.w3.org/2000/svg">
<g filter="url(#filter0_d)">
<path fill-rule="evenodd" clip-rule="evenodd" d="M743.398 19C745.387 19 747 17.3887 747 15.4004C747 13.7305 745.863 3.30078 744.32 0H755.363C754 3.0752 753 12.2734 753 13.7598C753 15.5498 754.449 17 756.238 17C758.023 17 759.473 15.5498 759.473 13.7598C759.473 12.2734 758.477 3.0752 757.113 0H766.152C764.789 3.0752 763.789 12.2734 763.789 13.7598C763.789 15.5498 765.238 17 767.027 17C768.812 17 770.262 15.5498 770.262 13.7598C770.262 12.2734 769.266 3.0752 767.902 0H776.941C775.578 3.0752 774.578 12.2734 774.578 13.7598C774.578 15.5498 776.027 17 777.816 17C779.602 17 781.051 15.5498 781.051 13.7598C781.051 12.2734 780.055 3.0752 778.691 0H787.73C786.367 3.0752 785.367 12.2734 785.367 13.7598C785.367 15.5498 786.816 17 788.605 17C790.391 17 791.84 15.5498 791.84 13.7598C791.84 12.2734 790.844 3.0752 789.48 0H798.52C797.156 3.0752 796.156 12.2734 796.156 13.7598C796.156 15.5498 797.605 17 799.395 17C801.18 17 802.629 15.5498 802.629 13.7598C802.629 12.2734 801.633 3.0752 800.27 0H809.312C807.949 3.0752 806.949 12.2734 806.949 13.7598C806.949 15.5498 808.398 17 810.188 17C811.973 17 813.422 15.5498 813.422 13.7598C813.422 12.2734 812.426 3.0752 811.062 0H820.102C818.738 3.0752 817.738 12.2734 817.738 13.7598C817.738 15.5498 819.188 17 820.977 17C822.762 17 824.211 15.5498 824.211 13.7598C824.211 12.2734 823.215 3.0752 821.852 0H830.891C829.527 3.0752 828.527 12.2734 828.527 13.7598C828.527 15.5498 829.977 17 831.766 17C833.551 17 835 15.5498 835 13.7598C835 12.2734 834.004 3.0752 832.641 0H842.363C841 3.0752 840 12.2734 840 13.7598C840 15.5498 841.449 17 843.238 17C845.023 17 846.473 15.5498 846.473 13.7598C846.473 12.2734 845.477 3.0752 844.113 0H853.152C851.789 3.0752 850.789 12.2734 850.789 13.7598C850.789 15.5498 852.238 17 854.027 17C855.812 17 857.262 15.5498 857.262 13.7598C857.262 12.2734 856.266 3.0752 854.902 0H863.941C862.578 3.0752 861.578 12.2734 861.578 13.7598C861.578 15.5498 863.027 17 864.816 17C866.602 17 868.051 15.5498 868.051 13.7598C868.051 12.2734 867.055 3.0752 865.691 0H874.73C873.367 3.0752 872.367 12.2734 872.367 13.7598C872.367 15.5498 873.816 17 875.605 17C877.391 17 878.84 15.5498 878.84 13.7598C878.84 12.2734 877.844 3.0752 876.48 0H885.52C884.156 3.0752 883.156 12.2734 883.156 13.7598C883.156 15.5498 884.605 17 886.395 17C888.18 17 889.629 15.5498 889.629 13.7598C889.629 12.2734 888.633 3.0752 887.27 0H896.312C894.949 3.0752 893.949 12.2734 893.949 13.7598C893.949 15.5498 895.398 17 897.188 17C898.973 17 900.422 15.5498 900.422 13.7598C900.422 12.2734 899.426 3.0752 898.062 0H907.102C905.738 3.0752 904.738 12.2734 904.738 13.7598C904.738 15.5498 906.188 17 907.977 17C909.762 17 911.211 15.5498 911.211 13.7598C911.211 12.2734 910.215 3.0752 908.852 0H917.891C916.527 3.0752 915.527 12.2734 915.527 13.7598C915.527 15.5498 916.977 17 918.766 17C920.551 17 922 15.5498 922 13.7598C922 12.2734 921.004 3.0752 919.641 0H1049C1053.42 0 1057 3.58203 1057 8V70H0V8C0 3.58203 3.58203 0 8 0H121.168C119.918 2.95801 119 11.5449 119 12.9404C119 14.6299 120.344 16 122 16C123.656 16 125 14.6299 125 12.9404C125 11.5449 124.082 2.95801 122.832 0H131.168C129.918 2.95801 129 11.5449 129 12.9404C129 14.6299 130.344 16 132 16C133.656 16 135 14.6299 135 12.9404C135 11.5449 134.082 2.95801 132.832 0H141.168C139.918 2.95801 139 11.5449 139 12.9404C139 14.6299 140.344 16 142 16C143.656 16 145 14.6299 145 12.9404C145 11.5449 144.082 2.95801 142.832 0H151.168C149.918 2.95801 149 11.5449 149 12.9404C149 14.6299 150.344 16 152 16C153.656 16 155 14.6299 155 12.9404C155 11.5449 154.082 2.95801 152.832 0H161.168C159.918 2.95801 159 11.5449 159 12.9404C159 14.6299 160.344 16 162 16C163.656 16 165 14.6299 165 12.9404C165 11.5449 164.082 2.95801 162.832 0H171.168C169.918 2.95801 169 11.5449 169 12.9404C169 14.6299 170.344 16 172 16C173.656 16 175 14.6299 175 12.9404C175 11.5449 174.082 2.95801 172.832 0H181.168C179.918 2.95801 179 11.5449 179 12.9404C179 14.6299 180.344 16 182 16C183.656 16 185 14.6299 185 12.9404C185 11.5449 184.082 2.95801 182.832 0H191.168C189.918 2.95801 189 11.5449 189 12.9404C189 14.6299 190.344 16 192 16C193.656 16 195 14.6299 195 12.9404C195 11.5449 194.082 2.95801 192.832 0H203.613C202.109 3.30078 201 13.7305 201 15.4004C201 17.3887 202.574 19 204.512 19C206.453 19 208.027 17.3887 208.027 15.4004C208.027 13.7305 206.914 3.30078 205.41 0H215.324C213.82 3.30078 212.711 13.7305 212.711 15.4004C212.711 17.3887 214.285 19 216.223 19C218.164 19 219.738 17.3887 219.738 15.4004C219.738 13.7305 218.625 3.30078 217.121 0H227.035C225.531 3.30078 224.422 13.7305 224.422 15.4004C224.422 17.3887 225.996 19 227.934 19C229.875 19 231.449 17.3887 231.449 15.4004C231.449 13.7305 230.336 3.30078 228.832 0H238.746C237.242 3.30078 236.133 13.7305 236.133 15.4004C236.133 17.3887 237.707 19 239.645 19C241.586 19 243.16 17.3887 243.16 15.4004C243.16 13.7305 242.047 3.30078 240.543 0H250.457C248.953 3.30078 247.844 13.7305 247.844 15.4004C247.844 17.3887 249.418 19 251.355 19C253.297 19 254.871 17.3887 254.871 15.4004C254.871 13.7305 253.758 3.30078 252.254 0H262.164C260.66 3.30078 259.551 13.7305 259.551 15.4004C259.551 17.3887 261.125 19 263.062 19C265.004 19 266.578 17.3887 266.578 15.4004C266.578 13.7305 265.465 3.30078 263.961 0H273.875C272.371 3.30078 271.262 13.7305 271.262 15.4004C271.262 17.3887 272.836 19 274.773 19C276.715 19 278.289 17.3887 278.289 15.4004C278.289 13.7305 277.176 3.30078 275.672 0H285.586C284.082 3.30078 282.973 13.7305 282.973 15.4004C282.973 17.3887 284.547 19 286.484 19C288.426 19 290 17.3887 290 15.4004C290 13.7305 288.887 3.30078 287.383 0H298.363C297 3.0752 296 12.2734 296 13.7598C296 15.5498 297.449 17 299.238 17C301.023 17 302.473 15.5498 302.473 13.7598C302.473 12.2734 301.477 3.0752 300.113 0H309.152C307.789 3.0752 306.789 12.2734 306.789 13.7598C306.789 15.5498 308.238 17 310.027 17C311.812 17 313.262 15.5498 313.262 13.7598C313.262 12.2734 312.266 3.0752 310.902 0H319.941C318.578 3.0752 317.578 12.2734 317.578 13.7598C317.578 15.5498 319.027 17 320.816 17C322.602 17 324.051 15.5498 324.051 13.7598C324.051 12.2734 323.055 3.0752 321.691 0H330.73C329.367 3.0752 328.367 12.2734 328.367 13.7598C328.367 15.5498 329.816 17 331.605 17C333.391 17 334.84 15.5498 334.84 13.7598C334.84 12.2734 333.844 3.0752 332.48 0H341.52C340.156 3.0752 339.156 12.2734 339.156 13.7598C339.156 15.5498 340.605 17 342.395 17C344.18 17 345.629 15.5498 345.629 13.7598C345.629 12.2734 344.633 3.0752 343.27 0H352.312C350.949 3.0752 349.949 12.2734 349.949 13.7598C349.949 15.5498 351.398 17 353.188 17C354.973 17 356.422 15.5498 356.422 13.7598C356.422 12.2734 355.426 3.0752 354.062 0H363.102C361.738 3.0752 360.738 12.2734 360.738 13.7598C360.738 15.5498 362.188 17 363.977 17C365.762 17 367.211 15.5498 367.211 13.7598C367.211 12.2734 366.215 3.0752 364.852 0H373.891C372.527 3.0752 371.527 12.2734 371.527 13.7598C371.527 15.5498 372.977 17 374.766 17C376.551 17 378 15.5498 378 13.7598C378 12.2734 377.004 3.0752 375.641 0H386.363C385 3.0752 384 12.2734 384 13.7598C384 15.5498 385.449 17 387.238 17C389.023 17 390.473 15.5498 390.473 13.7598C390.473 12.2734 389.477 3.0752 388.113 0H397.152C395.789 3.0752 394.789 12.2734 394.789 13.7598C394.789 15.5498 396.238 17 398.027 17C399.812 17 401.262 15.5498 401.262 13.7598C401.262 12.2734 400.266 3.0752 398.902 0H407.941C406.578 3.0752 405.578 12.2734 405.578 13.7598C405.578 15.5498 407.027 17 408.816 17C410.602 17 412.051 15.5498 412.051 13.7598C412.051 12.2734 411.055 3.0752 409.691 0H418.73C417.367 3.0752 416.367 12.2734 416.367 13.7598C416.367 15.5498 417.816 17 419.605 17C421.391 17 422.84 15.5498 422.84 13.7598C422.84 12.2734 421.844 3.0752 420.48 0H429.52C428.156 3.0752 427.156 12.2734 427.156 13.7598C427.156 15.5498 428.605 17 430.395 17C432.18 17 433.629 15.5498 433.629 13.7598C433.629 12.2734 432.633 3.0752 431.27 0H440.312C438.949 3.0752 437.949 12.2734 437.949 13.7598C437.949 15.5498 439.398 17 441.188 17C442.973 17 444.422 15.5498 444.422 13.7598C444.422 12.2734 443.426 3.0752 442.062 0H451.102C449.738 3.0752 448.738 12.2734 448.738 13.7598C448.738 15.5498 450.188 17 451.977 17C453.762 17 455.211 15.5498 455.211 13.7598C455.211 12.2734 454.215 3.0752 452.852 0H461.891C460.527 3.0752 459.527 12.2734 459.527 13.7598C459.527 15.5498 460.977 17 462.766 17C464.551 17 466 15.5498 466 13.7598C466 12.2734 465.004 3.0752 463.641 0H473.363C472 3.0752 471 12.2734 471 13.7598C471 15.5498 472.449 17 474.238 17C476.023 17 477.473 15.5498 477.473 13.7598C477.473 12.2734 476.477 3.0752 475.113 0H484.152C482.789 3.0752 481.789 12.2734 481.789 13.7598C481.789 15.5498 483.238 17 485.027 17C486.812 17 488.262 15.5498 488.262 13.7598C488.262 12.2734 487.266 3.0752 485.902 0H494.941C493.578 3.0752 492.578 12.2734 492.578 13.7598C492.578 15.5498 494.027 17 495.816 17C497.602 17 499.051 15.5498 499.051 13.7598C499.051 12.2734 498.055 3.0752 496.691 0H505.73C504.367 3.0752 503.367 12.2734 503.367 13.7598C503.367 15.5498 504.816 17 506.605 17C508.391 17 509.84 15.5498 509.84 13.7598C509.84 12.2734 508.844 3.0752 507.48 0H516.52C515.156 3.0752 514.156 12.2734 514.156 13.7598C514.156 15.5498 515.605 17 517.395 17C519.18 17 520.629 15.5498 520.629 13.7598C520.629 12.2734 519.633 3.0752 518.27 0H527.312C525.949 3.0752 524.949 12.2734 524.949 13.7598C524.949 15.5498 526.398 17 528.188 17C529.973 17 531.422 15.5498 531.422 13.7598C531.422 12.2734 530.426 3.0752 529.062 0H538.102C536.738 3.0752 535.738 12.2734 535.738 13.7598C535.738 15.5498 537.188 17 538.977 17C540.762 17 542.211 15.5498 542.211 13.7598C542.211 12.2734 541.215 3.0752 539.852 0H548.891C547.527 3.0752 546.527 12.2734 546.527 13.7598C546.527 15.5498 547.977 17 549.766 17C551.551 17 553 15.5498 553 13.7598C553 12.2734 552.004 3.0752 550.641 0H561.68C560.137 3.30078 559 13.7305 559 15.4004C559 17.3887 560.613 19 562.602 19C564.59 19 566.203 17.3887 566.203 15.4004C566.203 13.7305 565.066 3.30078 563.523 0H573.684C572.141 3.30078 571.004 13.7305 571.004 15.4004C571.004 17.3887 572.617 19 574.605 19C576.594 19 578.207 17.3887 578.207 15.4004C578.207 13.7305 577.07 3.30078 575.527 0H585.688C584.145 3.30078 583.008 13.7305 583.008 15.4004C583.008 17.3887 584.621 19 586.609 19C588.598 19 590.211 17.3887 590.211 15.4004C590.211 13.7305 589.074 3.30078 587.531 0H597.688C596.145 3.30078 595.008 13.7305 595.008 15.4004C595.008 17.3887 596.621 19 598.609 19C600.598 19 602.211 17.3887 602.211 15.4004C602.211 13.7305 601.074 3.30078 599.531 0H609.691C608.148 3.30078 607.012 13.7305 607.012 15.4004C607.012 17.3887 608.625 19 610.613 19C612.602 19 614.215 17.3887 614.215 15.4004C614.215 13.7305 613.078 3.30078 611.535 0H621.691C620.148 3.30078 619.012 13.7305 619.012 15.4004C619.012 17.3887 620.625 19 622.613 19C624.602 19 626.215 17.3887 626.215 15.4004C626.215 13.7305 625.078 3.30078 623.535 0H633.695C632.152 3.30078 631.016 13.7305 631.016 15.4004C631.016 17.3887 632.629 19 634.617 19C636.605 19 638.219 17.3887 638.219 15.4004C638.219 13.7305 637.082 3.30078 635.539 0H645.699C644.156 3.30078 643.02 13.7305 643.02 15.4004C643.02 17.3887 644.633 19 646.621 19C648.609 19 650.223 17.3887 650.223 15.4004C650.223 13.7305 649.086 3.30078 647.543 0H658.461C656.918 3.30078 655.781 13.7305 655.781 15.4004C655.781 17.3887 657.395 19 659.383 19C661.371 19 662.984 17.3887 662.984 15.4004C662.984 13.7305 661.848 3.30078 660.305 0H670.461C668.918 3.30078 667.781 13.7305 667.781 15.4004C667.781 17.3887 669.395 19 671.383 19C673.371 19 674.984 17.3887 674.984 15.4004C674.984 13.7305 673.848 3.30078 672.305 0H682.465C680.922 3.30078 679.785 13.7305 679.785 15.4004C679.785 17.3887 681.398 19 683.387 19C685.375 19 686.988 17.3887 686.988 15.4004C686.988 13.7305 685.852 3.30078 684.309 0H694.465C692.922 3.30078 691.785 13.7305 691.785 15.4004C691.785 17.3887 693.398 19 695.387 19C697.375 19 698.988 17.3887 698.988 15.4004C698.988 13.7305 697.852 3.30078 696.309 0H706.469C704.926 3.30078 703.789 13.7305 703.789 15.4004C703.789 17.3887 705.402 19 707.391 19C709.379 19 710.992 17.3887 710.992 15.4004C710.992 13.7305 709.855 3.30078 708.312 0H718.473C716.93 3.30078 715.793 13.7305 715.793 15.4004C715.793 17.3887 717.406 19 719.395 19C721.383 19 722.996 17.3887 722.996 15.4004C722.996 13.7305 721.859 3.30078 720.316 0H730.477C728.934 3.30078 727.797 13.7305 727.797 15.4004C727.797 17.3887 729.41 19 731.398 19C733.387 19 735 17.3887 735 15.4004C735 13.7305 733.863 3.30078 732.32 0H742.477C740.934 3.30078 739.797 13.7305 739.797 15.4004C739.797 17.3887 741.41 19 743.398 19Z" transform="translate(31 32)" fill="#FFE391"/>
<path fill-rule="evenodd" clip-rule="evenodd" d="M0 0H1057V62C1057 66.418 1053.42 70 1049 70H950.457C951.379 66.2578 952 60.2109 952 59.0596C952 57.3701 950.656 56 949 56C947.344 56 946 57.3701 946 59.0596C946 60.2109 946.621 66.2578 947.543 70H940.457C941.379 66.2578 942 60.2109 942 59.0596C942 57.3701 940.656 56 939 56C937.344 56 936 57.3701 936 59.0596C936 60.2109 936.621 66.2578 937.543 70H930.457C931.379 66.2578 932 60.2109 932 59.0596C932 57.3701 930.656 56 929 56C927.344 56 926 57.3701 926 59.0596C926 60.2109 926.621 66.2578 927.543 70H920.457C921.379 66.2578 922 60.2109 922 59.0596C922 57.3701 920.656 56 919 56C917.344 56 916 57.3701 916 59.0596C916 60.2109 916.621 66.2578 917.543 70H910.457C911.379 66.2578 912 60.2109 912 59.0596C912 57.3701 910.656 56 909 56C907.344 56 906 57.3701 906 59.0596C906 60.2109 906.621 66.2578 907.543 70H900.457C901.379 66.2578 902 60.2109 902 59.0596C902 57.3701 900.656 56 899 56C897.344 56 896 57.3701 896 59.0596C896 60.2109 896.621 66.2578 897.543 70H890.457C891.379 66.2578 892 60.2109 892 59.0596C892 57.3701 890.656 56 889 56C887.344 56 886 57.3701 886 59.0596C886 60.2109 886.621 66.2578 887.543 70H880.457C881.379 66.2578 882 60.2109 882 59.0596C882 57.3701 880.656 56 879 56C877.344 56 876 57.3701 876 59.0596C876 60.2109 876.621 66.2578 877.543 70H868.059C869.211 65.6641 870 58.0098 870 56.5996C870 54.6113 868.426 53 866.488 53C864.547 53 862.973 54.6113 862.973 56.5996C862.973 58.0098 863.766 65.6641 864.918 70H856.348C857.5 65.6641 858.289 58.0098 858.289 56.5996C858.289 54.6113 856.715 53 854.777 53C852.836 53 851.262 54.6113 851.262 56.5996C851.262 58.0098 852.055 65.6641 853.207 70H844.637C845.789 65.6641 846.578 58.0098 846.578 56.5996C846.578 54.6113 845.004 53 843.066 53C841.125 53 839.551 54.6113 839.551 56.5996C839.551 58.0098 840.344 65.6641 841.496 70H832.926C834.078 65.6641 834.867 58.0098 834.867 56.5996C834.867 54.6113 833.293 53 831.355 53C829.414 53 827.84 54.6113 827.84 56.5996C827.84 58.0098 828.633 65.6641 829.785 70H821.215C822.367 65.6641 823.156 58.0098 823.156 56.5996C823.156 54.6113 821.582 53 819.645 53C817.703 53 816.129 54.6113 816.129 56.5996C816.129 58.0098 816.922 65.6641 818.074 70H809.508C810.66 65.6641 811.449 58.0098 811.449 56.5996C811.449 54.6113 809.875 53 807.938 53C805.996 53 804.422 54.6113 804.422 56.5996C804.422 58.0098 805.215 65.6641 806.367 70H797.797C798.949 65.6641 799.738 58.0098 799.738 56.5996C799.738 54.6113 798.164 53 796.227 53C794.285 53 792.711 54.6113 792.711 56.5996C792.711 58.0098 793.504 65.6641 794.656 70H786.086C787.238 65.6641 788.027 58.0098 788.027 56.5996C788.027 54.6113 786.453 53 784.516 53C782.574 53 781 54.6113 781 56.5996C781 58.0098 781.793 65.6641 782.945 70H773.289C774.309 66.0547 775 59.4766 775 58.2402C775 56.4502 773.551 55 771.762 55C769.977 55 768.527 56.4502 768.527 58.2402C768.527 59.4766 769.223 66.0547 770.238 70H762.5C763.52 66.0547 764.211 59.4766 764.211 58.2402C764.211 56.4502 762.762 55 760.973 55C759.188 55 757.738 56.4502 757.738 58.2402C757.738 59.4766 758.434 66.0547 759.449 70H751.711C752.73 66.0547 753.422 59.4766 753.422 58.2402C753.422 56.4502 751.973 55 750.184 55C748.398 55 746.949 56.4502 746.949 58.2402C746.949 59.4766 747.645 66.0547 748.66 70H740.922C741.941 66.0547 742.633 59.4766 742.633 58.2402C742.633 56.4502 741.184 55 739.395 55C737.609 55 736.16 56.4502 736.16 58.2402C736.16 59.4766 736.855 66.0547 737.871 70H730.133C731.152 66.0547 731.844 59.4766 731.844 58.2402C731.844 56.4502 730.395 55 728.605 55C726.82 55 725.371 56.4502 725.371 58.2402C725.371 59.4766 726.066 66.0547 727.082 70H719.34C720.359 66.0547 721.051 59.4766 721.051 58.2402C721.051 56.4502 719.602 55 717.812 55C716.027 55 714.578 56.4502 714.578 58.2402C714.578 59.4766 715.273 66.0547 716.289 70H708.551C709.57 66.0547 710.262 59.4766 710.262 58.2402C710.262 56.4502 708.812 55 707.023 55C705.238 55 703.789 56.4502 703.789 58.2402C703.789 59.4766 704.484 66.0547 705.5 70H697.762C698.781 66.0547 699.473 59.4766 699.473 58.2402C699.473 56.4502 698.023 55 696.234 55C694.449 55 693 56.4502 693 58.2402C693 59.4766 693.695 66.0547 694.711 70H685.289C686.309 66.0547 687 59.4766 687 58.2402C687 56.4502 685.551 55 683.762 55C681.977 55 680.527 56.4502 680.527 58.2402C680.527 59.4766 681.223 66.0547 682.238 70H674.5C675.52 66.0547 676.211 59.4766 676.211 58.2402C676.211 56.4502 674.762 55 672.973 55C671.188 55 669.738 56.4502 669.738 58.2402C669.738 59.4766 670.434 66.0547 671.449 70H663.711C664.73 66.0547 665.422 59.4766 665.422 58.2402C665.422 56.4502 663.973 55 662.184 55C660.398 55 658.949 56.4502 658.949 58.2402C658.949 59.4766 659.645 66.0547 660.66 70H652.922C653.941 66.0547 654.633 59.4766 654.633 58.2402C654.633 56.4502 653.184 55 651.395 55C649.609 55 648.16 56.4502 648.16 58.2402C648.16 59.4766 648.855 66.0547 649.871 70H642.133C643.152 66.0547 643.844 59.4766 643.844 58.2402C643.844 56.4502 642.395 55 640.605 55C638.82 55 637.371 56.4502 637.371 58.2402C637.371 59.4766 638.066 66.0547 639.082 70H631.34C632.359 66.0547 633.051 59.4766 633.051 58.2402C633.051 56.4502 631.602 55 629.812 55C628.027 55 626.578 56.4502 626.578 58.2402C626.578 59.4766 627.273 66.0547 628.289 70H620.551C621.57 66.0547 622.262 59.4766 622.262 58.2402C622.262 56.4502 620.812 55 619.023 55C617.238 55 615.789 56.4502 615.789 58.2402C615.789 59.4766 616.484 66.0547 617.5 70H609.762C610.781 66.0547 611.473 59.4766 611.473 58.2402C611.473 56.4502 610.023 55 608.234 55C606.449 55 605 56.4502 605 58.2402C605 59.4766 605.695 66.0547 606.711 70H598.289C599.309 66.0547 600 59.4766 600 58.2402C600 56.4502 598.551 55 596.762 55C594.977 55 593.527 56.4502 593.527 58.2402C593.527 59.4766 594.223 66.0547 595.238 70H587.5C588.52 66.0547 589.211 59.4766 589.211 58.2402C589.211 56.4502 587.762 55 585.973 55C584.188 55 582.738 56.4502 582.738 58.2402C582.738 59.4766 583.434 66.0547 584.449 70H576.711C577.73 66.0547 578.422 59.4766 578.422 58.2402C578.422 56.4502 576.973 55 575.184 55C573.398 55 571.949 56.4502 571.949 58.2402C571.949 59.4766 572.645 66.0547 573.66 70H565.922C566.941 66.0547 567.633 59.4766 567.633 58.2402C567.633 56.4502 566.184 55 564.395 55C562.609 55 561.16 56.4502 561.16 58.2402C561.16 59.4766 561.855 66.0547 562.871 70H555.133C556.152 66.0547 556.844 59.4766 556.844 58.2402C556.844 56.4502 555.395 55 553.605 55C551.82 55 550.371 56.4502 550.371 58.2402C550.371 59.4766 551.066 66.0547 552.082 70H544.34C545.359 66.0547 546.051 59.4766 546.051 58.2402C546.051 56.4502 544.602 55 542.812 55C541.027 55 539.578 56.4502 539.578 58.2402C539.578 59.4766 540.273 66.0547 541.289 70H533.551C534.57 66.0547 535.262 59.4766 535.262 58.2402C535.262 56.4502 533.812 55 532.023 55C530.238 55 528.789 56.4502 528.789 58.2402C528.789 59.4766 529.484 66.0547 530.5 70H522.762C523.781 66.0547 524.473 59.4766 524.473 58.2402C524.473 56.4502 523.023 55 521.234 55C519.449 55 518 56.4502 518 58.2402C518 59.4766 518.695 66.0547 519.711 70H510.008C511.188 65.6641 512 58.0098 512 56.5996C512 54.6113 510.387 53 508.398 53C506.41 53 504.797 54.6113 504.797 56.5996C504.797 58.0098 505.609 65.6641 506.789 70H498.004C499.184 65.6641 499.996 58.0098 499.996 56.5996C499.996 54.6113 498.383 53 496.395 53C494.406 53 492.793 54.6113 492.793 56.5996C492.793 58.0098 493.605 65.6641 494.785 70H486C487.18 65.6641 487.992 58.0098 487.992 56.5996C487.992 54.6113 486.379 53 484.391 53C482.402 53 480.789 54.6113 480.789 56.5996C480.789 58.0098 481.602 65.6641 482.781 70H474C475.18 65.6641 475.992 58.0098 475.992 56.5996C475.992 54.6113 474.379 53 472.391 53C470.402 53 468.789 54.6113 468.789 56.5996C468.789 58.0098 469.602 65.6641 470.781 70H461.996C463.176 65.6641 463.988 58.0098 463.988 56.5996C463.988 54.6113 462.375 53 460.387 53C458.398 53 456.785 54.6113 456.785 56.5996C456.785 58.0098 457.598 65.6641 458.777 70H449.996C451.176 65.6641 451.988 58.0098 451.988 56.5996C451.988 54.6113 450.375 53 448.387 53C446.398 53 444.785 54.6113 444.785 56.5996C444.785 58.0098 445.598 65.6641 446.777 70H437.992C439.172 65.6641 439.984 58.0098 439.984 56.5996C439.984 54.6113 438.371 53 436.383 53C434.395 53 432.781 54.6113 432.781 56.5996C432.781 58.0098 433.594 65.6641 434.773 70H425.988C427.168 65.6641 427.98 58.0098 427.98 56.5996C427.98 54.6113 426.367 53 424.379 53C422.391 53 420.777 54.6113 420.777 56.5996C420.777 58.0098 421.59 65.6641 422.77 70H413.227C414.406 65.6641 415.219 58.0098 415.219 56.5996C415.219 54.6113 413.605 53 411.617 53C409.629 53 408.016 54.6113 408.016 56.5996C408.016 58.0098 408.828 65.6641 410.008 70H401.227C402.406 65.6641 403.219 58.0098 403.219 56.5996C403.219 54.6113 401.605 53 399.617 53C397.629 53 396.016 54.6113 396.016 56.5996C396.016 58.0098 396.828 65.6641 398.008 70H389.223C390.402 65.6641 391.215 58.0098 391.215 56.5996C391.215 54.6113 389.602 53 387.613 53C385.625 53 384.012 54.6113 384.012 56.5996C384.012 58.0098 384.824 65.6641 386.004 70H377.223C378.402 65.6641 379.215 58.0098 379.215 56.5996C379.215 54.6113 377.602 53 375.613 53C373.625 53 372.012 54.6113 372.012 56.5996C372.012 58.0098 372.824 65.6641 374.004 70H365.219C366.398 65.6641 367.211 58.0098 367.211 56.5996C367.211 54.6113 365.598 53 363.609 53C361.621 53 360.008 54.6113 360.008 56.5996C360.008 58.0098 360.82 65.6641 362 70H353.215C354.395 65.6641 355.207 58.0098 355.207 56.5996C355.207 54.6113 353.594 53 351.605 53C349.617 53 348.004 54.6113 348.004 56.5996C348.004 58.0098 348.816 65.6641 349.996 70H341.211C342.391 65.6641 343.203 58.0098 343.203 56.5996C343.203 54.6113 341.59 53 339.602 53C337.613 53 336 54.6113 336 56.5996C336 58.0098 336.812 65.6641 337.992 70H329.211C330.391 65.6641 331.203 58.0098 331.203 56.5996C331.203 54.6113 329.59 53 327.602 53C325.613 53 324 54.6113 324 56.5996C324 58.0098 324.812 65.6641 325.992 70H316.289C317.309 66.0547 318 59.4766 318 58.2402C318 56.4502 316.551 55 314.762 55C312.977 55 311.527 56.4502 311.527 58.2402C311.527 59.4766 312.223 66.0547 313.238 70H305.5C306.52 66.0547 307.211 59.4766 307.211 58.2402C307.211 56.4502 305.762 55 303.973 55C302.188 55 300.738 56.4502 300.738 58.2402C300.738 59.4766 301.434 66.0547 302.449 70H294.711C295.73 66.0547 296.422 59.4766 296.422 58.2402C296.422 56.4502 294.973 55 293.184 55C291.398 55 289.949 56.4502 289.949 58.2402C289.949 59.4766 290.645 66.0547 291.66 70H283.922C284.941 66.0547 285.633 59.4766 285.633 58.2402C285.633 56.4502 284.184 55 282.395 55C280.609 55 279.16 56.4502 279.16 58.2402C279.16 59.4766 279.855 66.0547 280.871 70H273.133C274.152 66.0547 274.844 59.4766 274.844 58.2402C274.844 56.4502 273.395 55 271.605 55C269.82 55 268.371 56.4502 268.371 58.2402C268.371 59.4766 269.066 66.0547 270.082 70H262.34C263.359 66.0547 264.051 59.4766 264.051 58.2402C264.051 56.4502 262.602 55 260.812 55C259.027 55 257.578 56.4502 257.578 58.2402C257.578 59.4766 258.273 66.0547 259.289 70H251.551C252.57 66.0547 253.262 59.4766 253.262 58.2402C253.262 56.4502 251.812 55 250.023 55C248.238 55 246.789 56.4502 246.789 58.2402C246.789 59.4766 247.484 66.0547 248.5 70H240.762C241.781 66.0547 242.473 59.4766 242.473 58.2402C242.473 56.4502 241.023 55 239.234 55C237.449 55 236 56.4502 236 58.2402C236 59.4766 236.695 66.0547 237.711 70H229.289C230.309 66.0547 231 59.4766 231 58.2402C231 56.4502 229.551 55 227.762 55C225.977 55 224.527 56.4502 224.527 58.2402C224.527 59.4766 225.223 66.0547 226.238 70H218.5C219.52 66.0547 220.211 59.4766 220.211 58.2402C220.211 56.4502 218.762 55 216.973 55C215.188 55 213.738 56.4502 213.738 58.2402C213.738 59.4766 214.434 66.0547 215.449 70H207.711C208.73 66.0547 209.422 59.4766 209.422 58.2402C209.422 56.4502 207.973 55 206.184 55C204.398 55 202.949 56.4502 202.949 58.2402C202.949 59.4766 203.645 66.0547 204.66 70H196.922C197.941 66.0547 198.633 59.4766 198.633 58.2402C198.633 56.4502 197.184 55 195.395 55C193.609 55 192.16 56.4502 192.16 58.2402C192.16 59.4766 192.855 66.0547 193.871 70H186.133C187.152 66.0547 187.844 59.4766 187.844 58.2402C187.844 56.4502 186.395 55 184.605 55C182.82 55 181.371 56.4502 181.371 58.2402C181.371 59.4766 182.066 66.0547 183.082 70H175.34C176.359 66.0547 177.051 59.4766 177.051 58.2402C177.051 56.4502 175.602 55 173.812 55C172.027 55 170.578 56.4502 170.578 58.2402C170.578 59.4766 171.273 66.0547 172.289 70H164.551C165.57 66.0547 166.262 59.4766 166.262 58.2402C166.262 56.4502 164.812 55 163.023 55C161.238 55 159.789 56.4502 159.789 58.2402C159.789 59.4766 160.484 66.0547 161.5 70H153.762C154.781 66.0547 155.473 59.4766 155.473 58.2402C155.473 56.4502 154.023 55 152.234 55C150.449 55 149 56.4502 149 58.2402C149 59.4766 149.695 66.0547 150.711 70H8C3.58203 70 0 66.418 0 62V0Z" transform="translate(31 102)" fill="#FFF7E1"/>
</g>
<defs>
<filter id="filter0_d" x="21" y="24" width="1077" height="160" filterUnits="userSpaceOnUse" color-interpolation-filters="sRGB">
<feFlood flood-opacity="0" result="BackgroundImageFix"/>
<feColorMatrix in="SourceAlpha" type="matrix" values="0 0 0 0 0 0 0 0 0 0 0 0 0 0 0 0 0 0 255 0"/>
<feOffset dy="2"/>
<feGaussianBlur stdDeviation="5"/>
<feColorMatrix type="matrix" values="0 0 0 0 0 0 0 0 0 0 0 0 0 0 0 0 0 0 0.25 0"/>
<feBlend mode="normal" in2="BackgroundImageFix" result="effect1_dropShadow"/>
<feBlend mode="normal" in="SourceGraphic" in2="effect1_dropShadow" result="shape"/>
</filter>
</defs>
</svg>
