<svg width="1120" height="206" viewBox="0 0 1120 206" fill="none" xmlns="http://www.w3.org/2000/svg">
<g filter="url(#filter0_d)">
<path d="M0 0H1057V62C1057 66.4183 1053.42 70 1049 70H8C3.58172 70 0 66.4183 0 62V0Z" transform="translate(31 102)" fill="#618F75"/>
<path d="M0 8C0 3.58172 3.58172 0 8 0H1049C1053.42 0 1057 3.58172 1057 8V70H0V8Z" transform="translate(31 32)" fill="#84B398"/>
<path d="M6 13.94C6 15.63 4.65685 17 3 17C1.34315 17 0 15.63 0 13.94C0 12.25 1.34315 0 3 0C4.65685 0 6 12.25 6 13.94Z" transform="translate(150 31)" fill="white"/>
<path d="M6 13.94C6 15.63 4.65685 17 3 17C1.34315 17 0 15.63 0 13.94C0 12.25 1.34315 0 3 0C4.65685 0 6 12.25 6 13.94Z" transform="translate(160 31)" fill="white"/>
<path d="M6 13.94C6 15.63 4.65685 17 3 17C1.34315 17 0 15.63 0 13.94C0 12.25 1.34315 0 3 0C4.65685 0 6 12.25 6 13.94Z" transform="translate(170 31)" fill="white"/>
<path d="M6 13.94C6 15.63 4.65685 17 3 17C1.34315 17 0 15.63 0 13.94C0 12.25 1.34315 0 3 0C4.65685 0 6 12.25 6 13.94Z" transform="translate(180 31)" fill="white"/>
<path d="M6 13.94C6 15.63 4.65685 17 3 17C1.34315 17 0 15.63 0 13.94C0 12.25 1.34315 0 3 0C4.65685 0 6 12.25 6 13.94Z" transform="translate(190 31)" fill="white"/>
<path d="M6 13.94C6 15.63 4.65685 17 3 17C1.34315 17 0 15.63 0 13.94C0 12.25 1.34315 0 3 0C4.65685 0 6 12.25 6 13.94Z" transform="translate(200 31)" fill="white"/>
<path d="M6 13.94C6 15.63 4.65685 17 3 17C1.34315 17 0 15.63 0 13.94C0 12.25 1.34315 0 3 0C4.65685 0 6 12.25 6 13.94Z" transform="translate(210 31)" fill="white"/>
<path d="M6 13.94C6 15.63 4.65685 17 3 17C1.34315 17 0 15.63 0 13.94C0 12.25 1.34315 0 3 0C4.65685 0 6 12.25 6 13.94Z" transform="translate(220 31)" fill="white"/>
<path d="M7.02632 16.4C7.02632 18.3882 5.45342 20 3.51316 20C1.57289 20 0 18.3882 0 16.4C0 14.4118 1.57289 0 3.51316 0C5.45342 0 7.02632 14.4118 7.02632 16.4Z" transform="translate(232 31)" fill="white"/>
<path d="M7.02632 16.4C7.02632 18.3882 5.45342 20 3.51316 20C1.57289 20 0 18.3882 0 16.4C0 14.4118 1.57289 0 3.51316 0C5.45342 0 7.02632 14.4118 7.02632 16.4Z" transform="translate(243.711 31)" fill="white"/>
<path d="M7.02632 16.4C7.02632 18.3882 5.45342 20 3.51316 20C1.57289 20 0 18.3882 0 16.4C0 14.4118 1.57289 0 3.51316 0C5.45342 0 7.02632 14.4118 7.02632 16.4Z" transform="translate(255.422 31)" fill="white"/>
<path d="M7.02632 16.4C7.02632 18.3882 5.45342 20 3.51316 20C1.57289 20 0 18.3882 0 16.4C0 14.4118 1.57289 0 3.51316 0C5.45342 0 7.02632 14.4118 7.02632 16.4Z" transform="translate(267.133 31)" fill="white"/>
<path d="M7.02632 16.4C7.02632 18.3882 5.45342 20 3.51316 20C1.57289 20 0 18.3882 0 16.4C0 14.4118 1.57289 0 3.51316 0C5.45342 0 7.02632 14.4118 7.02632 16.4Z" transform="translate(278.844 31)" fill="white"/>
<path d="M7.02632 16.4C7.02632 18.3882 5.45342 20 3.51316 20C1.57289 20 0 18.3882 0 16.4C0 14.4118 1.57289 0 3.51316 0C5.45342 0 7.02632 14.4118 7.02632 16.4Z" transform="translate(290.551 31)" fill="white"/>
<path d="M7.02632 16.4C7.02632 18.3882 5.45342 20 3.51316 20C1.57289 20 0 18.3882 0 16.4C0 14.4118 1.57289 0 3.51316 0C5.45342 0 7.02632 14.4118 7.02632 16.4Z" transform="translate(302.262 31)" fill="white"/>
<path d="M7.02632 16.4C7.02632 18.3882 5.45342 20 3.51316 20C1.57289 20 0 18.3882 0 16.4C0 14.4118 1.57289 0 3.51316 0C5.45342 0 7.02632 14.4118 7.02632 16.4Z" transform="translate(313.973 31)" fill="white"/>
<path d="M6.47368 14.76C6.47368 16.5494 5.0245 18 3.23684 18C1.44918 18 0 16.5494 0 14.76C0 12.9706 1.44918 0 3.23684 0C5.0245 0 6.47368 12.9706 6.47368 14.76Z" transform="translate(327 31)" fill="white"/>
<path d="M6.47368 14.76C6.47368 16.5494 5.0245 18 3.23684 18C1.44918 18 0 16.5494 0 14.76C0 12.9706 1.44918 0 3.23684 0C5.0245 0 6.47368 12.9706 6.47368 14.76Z" transform="translate(337.789 31)" fill="white"/>
<path d="M6.47368 14.76C6.47368 16.5494 5.0245 18 3.23684 18C1.44918 18 0 16.5494 0 14.76C0 12.9706 1.44918 0 3.23684 0C5.0245 0 6.47368 12.9706 6.47368 14.76Z" transform="translate(348.578 31)" fill="white"/>
<path d="M6.47368 14.76C6.47368 16.5494 5.0245 18 3.23684 18C1.44918 18 0 16.5494 0 14.76C0 12.9706 1.44918 0 3.23684 0C5.0245 0 6.47368 12.9706 6.47368 14.76Z" transform="translate(359.367 31)" fill="white"/>
<path d="M6.47368 14.76C6.47368 16.5494 5.0245 18 3.23684 18C1.44918 18 0 16.5494 0 14.76C0 12.9706 1.44918 0 3.23684 0C5.0245 0 6.47368 12.9706 6.47368 14.76Z" transform="translate(370.156 31)" fill="white"/>
<path d="M6.47368 14.76C6.47368 16.5494 5.0245 18 3.23684 18C1.44918 18 0 16.5494 0 14.76C0 12.9706 1.44918 0 3.23684 0C5.0245 0 6.47368 12.9706 6.47368 14.76Z" transform="translate(380.949 31)" fill="white"/>
<path d="M6.47368 14.76C6.47368 16.5494 5.0245 18 3.23684 18C1.44918 18 0 16.5494 0 14.76C0 12.9706 1.44918 0 3.23684 0C5.0245 0 6.47368 12.9706 6.47368 14.76Z" transform="translate(391.738 31)" fill="white"/>
<path d="M6.47368 14.76C6.47368 16.5494 5.0245 18 3.23684 18C1.44918 18 0 16.5494 0 14.76C0 12.9706 1.44918 0 3.23684 0C5.0245 0 6.47368 12.9706 6.47368 14.76Z" transform="translate(402.527 31)" fill="white"/>
<path d="M6.47368 14.76C6.47368 16.5494 5.0245 18 3.23684 18C1.44918 18 0 16.5494 0 14.76C0 12.9706 1.44918 0 3.23684 0C5.0245 0 6.47368 12.9706 6.47368 14.76Z" transform="translate(415 31)" fill="white"/>
<path d="M6.47368 14.76C6.47368 16.5494 5.0245 18 3.23684 18C1.44918 18 0 16.5494 0 14.76C0 12.9706 1.44918 0 3.23684 0C5.0245 0 6.47368 12.9706 6.47368 14.76Z" transform="translate(425.789 31)" fill="white"/>
<path d="M6.47368 14.76C6.47368 16.5494 5.0245 18 3.23684 18C1.44918 18 0 16.5494 0 14.76C0 12.9706 1.44918 0 3.23684 0C5.0245 0 6.47368 12.9706 6.47368 14.76Z" transform="translate(436.578 31)" fill="white"/>
<path d="M6.47368 14.76C6.47368 16.5494 5.0245 18 3.23684 18C1.44918 18 0 16.5494 0 14.76C0 12.9706 1.44918 0 3.23684 0C5.0245 0 6.47368 12.9706 6.47368 14.76Z" transform="translate(447.367 31)" fill="white"/>
<path d="M6.47368 14.76C6.47368 16.5494 5.0245 18 3.23684 18C1.44918 18 0 16.5494 0 14.76C0 12.9706 1.44918 0 3.23684 0C5.0245 0 6.47368 12.9706 6.47368 14.76Z" transform="translate(458.156 31)" fill="white"/>
<path d="M6.47368 14.76C6.47368 16.5494 5.0245 18 3.23684 18C1.44918 18 0 16.5494 0 14.76C0 12.9706 1.44918 0 3.23684 0C5.0245 0 6.47368 12.9706 6.47368 14.76Z" transform="translate(468.949 31)" fill="white"/>
<path d="M6.47368 14.76C6.47368 16.5494 5.0245 18 3.23684 18C1.44918 18 0 16.5494 0 14.76C0 12.9706 1.44918 0 3.23684 0C5.0245 0 6.47368 12.9706 6.47368 14.76Z" transform="translate(479.738 31)" fill="white"/>
<path d="M6.47368 14.76C6.47368 16.5494 5.0245 18 3.23684 18C1.44918 18 0 16.5494 0 14.76C0 12.9706 1.44918 0 3.23684 0C5.0245 0 6.47368 12.9706 6.47368 14.76Z" transform="translate(490.527 31)" fill="white"/>
<path d="M6.47368 14.76C6.47368 16.5494 5.0245 18 3.23684 18C1.44918 18 0 16.5494 0 14.76C0 12.9706 1.44918 0 3.23684 0C5.0245 0 6.47368 12.9706 6.47368 14.76Z" transform="translate(502 31)" fill="white"/>
<path d="M6.47368 14.76C6.47368 16.5494 5.0245 18 3.23684 18C1.44918 18 0 16.5494 0 14.76C0 12.9706 1.44918 0 3.23684 0C5.0245 0 6.47368 12.9706 6.47368 14.76Z" transform="translate(512.789 31)" fill="white"/>
<path d="M6.47368 14.76C6.47368 16.5494 5.0245 18 3.23684 18C1.44918 18 0 16.5494 0 14.76C0 12.9706 1.44918 0 3.23684 0C5.0245 0 6.47368 12.9706 6.47368 14.76Z" transform="translate(523.578 31)" fill="white"/>
<path d="M6.47368 14.76C6.47368 16.5494 5.0245 18 3.23684 18C1.44918 18 0 16.5494 0 14.76C0 12.9706 1.44918 0 3.23684 0C5.0245 0 6.47368 12.9706 6.47368 14.76Z" transform="translate(534.367 31)" fill="white"/>
<path d="M6.47368 14.76C6.47368 16.5494 5.0245 18 3.23684 18C1.44918 18 0 16.5494 0 14.76C0 12.9706 1.44918 0 3.23684 0C5.0245 0 6.47368 12.9706 6.47368 14.76Z" transform="translate(545.156 31)" fill="white"/>
<path d="M6.47368 14.76C6.47368 16.5494 5.0245 18 3.23684 18C1.44918 18 0 16.5494 0 14.76C0 12.9706 1.44918 0 3.23684 0C5.0245 0 6.47368 12.9706 6.47368 14.76Z" transform="translate(555.949 31)" fill="white"/>
<path d="M6.47368 14.76C6.47368 16.5494 5.0245 18 3.23684 18C1.44918 18 0 16.5494 0 14.76C0 12.9706 1.44918 0 3.23684 0C5.0245 0 6.47368 12.9706 6.47368 14.76Z" transform="translate(566.738 31)" fill="white"/>
<path d="M6.47368 14.76C6.47368 16.5494 5.0245 18 3.23684 18C1.44918 18 0 16.5494 0 14.76C0 12.9706 1.44918 0 3.23684 0C5.0245 0 6.47368 12.9706 6.47368 14.76Z" transform="translate(577.527 31)" fill="white"/>
<path d="M6.47368 14.76C6.47368 16.5494 5.0245 18 3.23684 18C1.44918 18 0 16.5494 0 14.76C0 12.9706 1.44918 0 3.23684 0C5.0245 0 6.47368 12.9706 6.47368 14.76Z" transform="translate(784 31)" fill="white"/>
<path d="M6.47368 14.76C6.47368 16.5494 5.0245 18 3.23684 18C1.44918 18 0 16.5494 0 14.76C0 12.9706 1.44918 0 3.23684 0C5.0245 0 6.47368 12.9706 6.47368 14.76Z" transform="translate(794.789 31)" fill="white"/>
<path d="M6.47368 14.76C6.47368 16.5494 5.0245 18 3.23684 18C1.44918 18 0 16.5494 0 14.76C0 12.9706 1.44918 0 3.23684 0C5.0245 0 6.47368 12.9706 6.47368 14.76Z" transform="translate(805.578 31)" fill="white"/>
<path d="M6.47368 14.76C6.47368 16.5494 5.0245 18 3.23684 18C1.44918 18 0 16.5494 0 14.76C0 12.9706 1.44918 0 3.23684 0C5.0245 0 6.47368 12.9706 6.47368 14.76Z" transform="translate(816.367 31)" fill="white"/>
<path d="M6.47368 14.76C6.47368 16.5494 5.0245 18 3.23684 18C1.44918 18 0 16.5494 0 14.76C0 12.9706 1.44918 0 3.23684 0C5.0245 0 6.47368 12.9706 6.47368 14.76Z" transform="translate(827.156 31)" fill="white"/>
<path d="M6.47368 14.76C6.47368 16.5494 5.0245 18 3.23684 18C1.44918 18 0 16.5494 0 14.76C0 12.9706 1.44918 0 3.23684 0C5.0245 0 6.47368 12.9706 6.47368 14.76Z" transform="translate(837.949 31)" fill="white"/>
<path d="M6.47368 14.76C6.47368 16.5494 5.0245 18 3.23684 18C1.44918 18 0 16.5494 0 14.76C0 12.9706 1.44918 0 3.23684 0C5.0245 0 6.47368 12.9706 6.47368 14.76Z" transform="translate(848.738 31)" fill="white"/>
<path d="M6.47368 14.76C6.47368 16.5494 5.0245 18 3.23684 18C1.44918 18 0 16.5494 0 14.76C0 12.9706 1.44918 0 3.23684 0C5.0245 0 6.47368 12.9706 6.47368 14.76Z" transform="translate(859.527 31)" fill="white"/>
<path d="M6.47368 14.76C6.47368 16.5494 5.0245 18 3.23684 18C1.44918 18 0 16.5494 0 14.76C0 12.9706 1.44918 0 3.23684 0C5.0245 0 6.47368 12.9706 6.47368 14.76Z" transform="translate(871 31)" fill="white"/>
<path d="M6.47368 14.76C6.47368 16.5494 5.0245 18 3.23684 18C1.44918 18 0 16.5494 0 14.76C0 12.9706 1.44918 0 3.23684 0C5.0245 0 6.47368 12.9706 6.47368 14.76Z" transform="translate(881.789 31)" fill="white"/>
<path d="M6.47368 14.76C6.47368 16.5494 5.0245 18 3.23684 18C1.44918 18 0 16.5494 0 14.76C0 12.9706 1.44918 0 3.23684 0C5.0245 0 6.47368 12.9706 6.47368 14.76Z" transform="translate(892.578 31)" fill="white"/>
<path d="M6.47368 14.76C6.47368 16.5494 5.0245 18 3.23684 18C1.44918 18 0 16.5494 0 14.76C0 12.9706 1.44918 0 3.23684 0C5.0245 0 6.47368 12.9706 6.47368 14.76Z" transform="translate(903.367 31)" fill="white"/>
<path d="M6.47368 14.76C6.47368 16.5494 5.0245 18 3.23684 18C1.44918 18 0 16.5494 0 14.76C0 12.9706 1.44918 0 3.23684 0C5.0245 0 6.47368 12.9706 6.47368 14.76Z" transform="translate(914.156 31)" fill="white"/>
<path d="M6.47368 14.76C6.47368 16.5494 5.0245 18 3.23684 18C1.44918 18 0 16.5494 0 14.76C0 12.9706 1.44918 0 3.23684 0C5.0245 0 6.47368 12.9706 6.47368 14.76Z" transform="translate(924.949 31)" fill="white"/>
<path d="M6.47368 14.76C6.47368 16.5494 5.0245 18 3.23684 18C1.44918 18 0 16.5494 0 14.76C0 12.9706 1.44918 0 3.23684 0C5.0245 0 6.47368 12.9706 6.47368 14.76Z" transform="translate(935.738 31)" fill="white"/>
<path d="M6.47368 14.76C6.47368 16.5494 5.0245 18 3.23684 18C1.44918 18 0 16.5494 0 14.76C0 12.9706 1.44918 0 3.23684 0C5.0245 0 6.47368 12.9706 6.47368 14.76Z" transform="translate(946.527 31)" fill="white"/>
<path d="M7.20146 16.4C7.20146 18.3882 5.58936 20 3.60073 20C1.6121 20 0 18.3882 0 16.4C0 14.4118 1.6121 0 3.60073 0C5.58936 0 7.20146 14.4118 7.20146 16.4Z" transform="translate(590 31)" fill="white"/>
<path d="M7.20146 16.4C7.20146 18.3882 5.58936 20 3.60073 20C1.6121 20 0 18.3882 0 16.4C0 14.4118 1.6121 0 3.60073 0C5.58936 0 7.20146 14.4118 7.20146 16.4Z" transform="translate(602.004 31)" fill="white"/>
<path d="M7.20146 16.4C7.20146 18.3882 5.58936 20 3.60073 20C1.6121 20 0 18.3882 0 16.4C0 14.4118 1.6121 0 3.60073 0C5.58936 0 7.20146 14.4118 7.20146 16.4Z" transform="translate(614.008 31)" fill="white"/>
<path d="M7.20146 16.4C7.20146 18.3882 5.58936 20 3.60073 20C1.6121 20 0 18.3882 0 16.4C0 14.4118 1.6121 0 3.60073 0C5.58936 0 7.20146 14.4118 7.20146 16.4Z" transform="translate(626.008 31)" fill="white"/>
<path d="M7.20146 16.4C7.20146 18.3882 5.58936 20 3.60073 20C1.6121 20 0 18.3882 0 16.4C0 14.4118 1.6121 0 3.60073 0C5.58936 0 7.20146 14.4118 7.20146 16.4Z" transform="translate(638.012 31)" fill="white"/>
<path d="M7.20146 16.4C7.20146 18.3882 5.58936 20 3.60073 20C1.6121 20 0 18.3882 0 16.4C0 14.4118 1.6121 0 3.60073 0C5.58936 0 7.20146 14.4118 7.20146 16.4Z" transform="translate(650.012 31)" fill="white"/>
<path d="M7.20146 16.4C7.20146 18.3882 5.58936 20 3.60073 20C1.6121 20 0 18.3882 0 16.4C0 14.4118 1.6121 0 3.60073 0C5.58936 0 7.20146 14.4118 7.20146 16.4Z" transform="translate(662.016 31)" fill="white"/>
<path d="M7.20146 16.4C7.20146 18.3882 5.58936 20 3.60073 20C1.6121 20 0 18.3882 0 16.4C0 14.4118 1.6121 0 3.60073 0C5.58936 0 7.20146 14.4118 7.20146 16.4Z" transform="translate(674.02 31)" fill="white"/>
<path d="M7.20146 16.4C7.20146 18.3882 5.58936 20 3.60073 20C1.6121 20 0 18.3882 0 16.4C0 14.4118 1.6121 0 3.60073 0C5.58936 0 7.20146 14.4118 7.20146 16.4Z" transform="translate(686.781 31)" fill="white"/>
<path d="M7.20146 16.4C7.20146 18.3882 5.58936 20 3.60073 20C1.6121 20 0 18.3882 0 16.4C0 14.4118 1.6121 0 3.60073 0C5.58936 0 7.20146 14.4118 7.20146 16.4Z" transform="translate(698.781 31)" fill="white"/>
<path d="M7.20146 16.4C7.20146 18.3882 5.58936 20 3.60073 20C1.6121 20 0 18.3882 0 16.4C0 14.4118 1.6121 0 3.60073 0C5.58936 0 7.20146 14.4118 7.20146 16.4Z" transform="translate(710.785 31)" fill="white"/>
<path d="M7.20146 16.4C7.20146 18.3882 5.58936 20 3.60073 20C1.6121 20 0 18.3882 0 16.4C0 14.4118 1.6121 0 3.60073 0C5.58936 0 7.20146 14.4118 7.20146 16.4Z" transform="translate(722.785 31)" fill="white"/>
<path d="M7.20146 16.4C7.20146 18.3882 5.58936 20 3.60073 20C1.6121 20 0 18.3882 0 16.4C0 14.4118 1.6121 0 3.60073 0C5.58936 0 7.20146 14.4118 7.20146 16.4Z" transform="translate(734.789 31)" fill="white"/>
<path d="M7.20146 16.4C7.20146 18.3882 5.58936 20 3.60073 20C1.6121 20 0 18.3882 0 16.4C0 14.4118 1.6121 0 3.60073 0C5.58936 0 7.20146 14.4118 7.20146 16.4Z" transform="translate(746.793 31)" fill="white"/>
<path d="M7.20146 16.4C7.20146 18.3882 5.58936 20 3.60073 20C1.6121 20 0 18.3882 0 16.4C0 14.4118 1.6121 0 3.60073 0C5.58936 0 7.20146 14.4118 7.20146 16.4Z" transform="translate(758.797 31)" fill="white"/>
<path d="M7.20146 16.4C7.20146 18.3882 5.58936 20 3.60073 20C1.6121 20 0 18.3882 0 16.4C0 14.4118 1.6121 0 3.60073 0C5.58936 0 7.20146 14.4118 7.20146 16.4Z" transform="translate(770.797 31)" fill="white"/>
<path d="M6 13.94C6 15.63 4.65685 17 3 17C1.34315 17 0 15.63 0 13.94C0 12.25 1.34315 0 3 0C4.65685 0 6 12.25 6 13.94Z" transform="translate(983 175) rotate(-180)" fill="white"/>
<path d="M6 13.94C6 15.63 4.65685 17 3 17C1.34315 17 0 15.63 0 13.94C0 12.25 1.34315 0 3 0C4.65685 0 6 12.25 6 13.94Z" transform="translate(973 175) rotate(-180)" fill="white"/>
<path d="M6 13.94C6 15.63 4.65685 17 3 17C1.34315 17 0 15.63 0 13.94C0 12.25 1.34315 0 3 0C4.65685 0 6 12.25 6 13.94Z" transform="translate(963 175) rotate(-180)" fill="white"/>
<path d="M6 13.94C6 15.63 4.65685 17 3 17C1.34315 17 0 15.63 0 13.94C0 12.25 1.34315 0 3 0C4.65685 0 6 12.25 6 13.94Z" transform="translate(953 175) rotate(-180)" fill="white"/>
<path d="M6 13.94C6 15.63 4.65685 17 3 17C1.34315 17 0 15.63 0 13.94C0 12.25 1.34315 0 3 0C4.65685 0 6 12.25 6 13.94Z" transform="translate(943 175) rotate(-180)" fill="white"/>
<path d="M6 13.94C6 15.63 4.65685 17 3 17C1.34315 17 0 15.63 0 13.94C0 12.25 1.34315 0 3 0C4.65685 0 6 12.25 6 13.94Z" transform="translate(933 175) rotate(-180)" fill="white"/>
<path d="M6 13.94C6 15.63 4.65685 17 3 17C1.34315 17 0 15.63 0 13.94C0 12.25 1.34315 0 3 0C4.65685 0 6 12.25 6 13.94Z" transform="translate(923 175) rotate(-180)" fill="white"/>
<path d="M6 13.94C6 15.63 4.65685 17 3 17C1.34315 17 0 15.63 0 13.94C0 12.25 1.34315 0 3 0C4.65685 0 6 12.25 6 13.94Z" transform="translate(913 175) rotate(-180)" fill="white"/>
<path d="M7.02632 16.4C7.02632 18.3882 5.45342 20 3.51316 20C1.57289 20 0 18.3882 0 16.4C0 14.4118 1.57289 0 3.51316 0C5.45342 0 7.02632 14.4118 7.02632 16.4Z" transform="translate(901 175) rotate(-180)" fill="white"/>
<path d="M7.02632 16.4C7.02632 18.3882 5.45342 20 3.51316 20C1.57289 20 0 18.3882 0 16.4C0 14.4118 1.57289 0 3.51316 0C5.45342 0 7.02632 14.4118 7.02632 16.4Z" transform="translate(889.289 175) rotate(-180)" fill="white"/>
<path d="M7.02632 16.4C7.02632 18.3882 5.45342 20 3.51316 20C1.57289 20 0 18.3882 0 16.4C0 14.4118 1.57289 0 3.51316 0C5.45342 0 7.02632 14.4118 7.02632 16.4Z" transform="translate(877.578 175) rotate(-180)" fill="white"/>
<path d="M7.02632 16.4C7.02632 18.3882 5.45342 20 3.51316 20C1.57289 20 0 18.3882 0 16.4C0 14.4118 1.57289 0 3.51316 0C5.45342 0 7.02632 14.4118 7.02632 16.4Z" transform="translate(865.867 175) rotate(-180)" fill="white"/>
<path d="M7.02632 16.4C7.02632 18.3882 5.45342 20 3.51316 20C1.57289 20 0 18.3882 0 16.4C0 14.4118 1.57289 0 3.51316 0C5.45342 0 7.02632 14.4118 7.02632 16.4Z" transform="translate(854.156 175) rotate(-180)" fill="white"/>
<path d="M7.02632 16.4C7.02632 18.3882 5.45342 20 3.51316 20C1.57289 20 0 18.3882 0 16.4C0 14.4118 1.57289 0 3.51316 0C5.45342 0 7.02632 14.4118 7.02632 16.4Z" transform="translate(842.449 175) rotate(-180)" fill="white"/>
<path d="M7.02632 16.4C7.02632 18.3882 5.45342 20 3.51316 20C1.57289 20 0 18.3882 0 16.4C0 14.4118 1.57289 0 3.51316 0C5.45342 0 7.02632 14.4118 7.02632 16.4Z" transform="translate(830.738 175) rotate(-180)" fill="white"/>
<path d="M7.02632 16.4C7.02632 18.3882 5.45342 20 3.51316 20C1.57289 20 0 18.3882 0 16.4C0 14.4118 1.57289 0 3.51316 0C5.45342 0 7.02632 14.4118 7.02632 16.4Z" transform="translate(819.027 175) rotate(-180)" fill="white"/>
<path d="M6.47368 14.76C6.47368 16.5494 5.0245 18 3.23684 18C1.44918 18 0 16.5494 0 14.76C0 12.9706 1.44918 0 3.23684 0C5.0245 0 6.47368 12.9706 6.47368 14.76Z" transform="translate(806 175) rotate(-180)" fill="white"/>
<path d="M6.47368 14.76C6.47368 16.5494 5.0245 18 3.23684 18C1.44918 18 0 16.5494 0 14.76C0 12.9706 1.44918 0 3.23684 0C5.0245 0 6.47368 12.9706 6.47368 14.76Z" transform="translate(795.211 175) rotate(-180)" fill="white"/>
<path d="M6.47368 14.76C6.47368 16.5494 5.0245 18 3.23684 18C1.44918 18 0 16.5494 0 14.76C0 12.9706 1.44918 0 3.23684 0C5.0245 0 6.47368 12.9706 6.47368 14.76Z" transform="translate(784.422 175) rotate(-180)" fill="white"/>
<path d="M6.47368 14.76C6.47368 16.5494 5.0245 18 3.23684 18C1.44918 18 0 16.5494 0 14.76C0 12.9706 1.44918 0 3.23684 0C5.0245 0 6.47368 12.9706 6.47368 14.76Z" transform="translate(773.633 175) rotate(-180)" fill="white"/>
<path d="M6.47368 14.76C6.47368 16.5494 5.0245 18 3.23684 18C1.44918 18 0 16.5494 0 14.76C0 12.9706 1.44918 0 3.23684 0C5.0245 0 6.47368 12.9706 6.47368 14.76Z" transform="translate(762.844 175) rotate(-180)" fill="white"/>
<path d="M6.47368 14.76C6.47368 16.5494 5.0245 18 3.23684 18C1.44918 18 0 16.5494 0 14.76C0 12.9706 1.44918 0 3.23684 0C5.0245 0 6.47368 12.9706 6.47368 14.76Z" transform="translate(752.051 175) rotate(-180)" fill="white"/>
<path d="M6.47368 14.76C6.47368 16.5494 5.0245 18 3.23684 18C1.44918 18 0 16.5494 0 14.76C0 12.9706 1.44918 0 3.23684 0C5.0245 0 6.47368 12.9706 6.47368 14.76Z" transform="translate(741.262 175) rotate(-180)" fill="white"/>
<path d="M6.47368 14.76C6.47368 16.5494 5.0245 18 3.23684 18C1.44918 18 0 16.5494 0 14.76C0 12.9706 1.44918 0 3.23684 0C5.0245 0 6.47368 12.9706 6.47368 14.76Z" transform="translate(730.473 175) rotate(-180)" fill="white"/>
<path d="M6.47368 14.76C6.47368 16.5494 5.0245 18 3.23684 18C1.44918 18 0 16.5494 0 14.76C0 12.9706 1.44918 0 3.23684 0C5.0245 0 6.47368 12.9706 6.47368 14.76Z" transform="translate(718 175) rotate(-180)" fill="white"/>
<path d="M6.47368 14.76C6.47368 16.5494 5.0245 18 3.23684 18C1.44918 18 0 16.5494 0 14.76C0 12.9706 1.44918 0 3.23684 0C5.0245 0 6.47368 12.9706 6.47368 14.76Z" transform="translate(707.211 175) rotate(-180)" fill="white"/>
<path d="M6.47368 14.76C6.47368 16.5494 5.0245 18 3.23684 18C1.44918 18 0 16.5494 0 14.76C0 12.9706 1.44918 0 3.23684 0C5.0245 0 6.47368 12.9706 6.47368 14.76Z" transform="translate(696.422 175) rotate(-180)" fill="white"/>
<path d="M6.47368 14.76C6.47368 16.5494 5.0245 18 3.23684 18C1.44918 18 0 16.5494 0 14.76C0 12.9706 1.44918 0 3.23684 0C5.0245 0 6.47368 12.9706 6.47368 14.76Z" transform="translate(685.633 175) rotate(-180)" fill="white"/>
<path d="M6.47368 14.76C6.47368 16.5494 5.0245 18 3.23684 18C1.44918 18 0 16.5494 0 14.76C0 12.9706 1.44918 0 3.23684 0C5.0245 0 6.47368 12.9706 6.47368 14.76Z" transform="translate(674.844 175) rotate(-180)" fill="white"/>
<path d="M6.47368 14.76C6.47368 16.5494 5.0245 18 3.23684 18C1.44918 18 0 16.5494 0 14.76C0 12.9706 1.44918 0 3.23684 0C5.0245 0 6.47368 12.9706 6.47368 14.76Z" transform="translate(664.051 175) rotate(-180)" fill="white"/>
<path d="M6.47368 14.76C6.47368 16.5494 5.0245 18 3.23684 18C1.44918 18 0 16.5494 0 14.76C0 12.9706 1.44918 0 3.23684 0C5.0245 0 6.47368 12.9706 6.47368 14.76Z" transform="translate(653.262 175) rotate(-180)" fill="white"/>
<path d="M6.47368 14.76C6.47368 16.5494 5.0245 18 3.23684 18C1.44918 18 0 16.5494 0 14.76C0 12.9706 1.44918 0 3.23684 0C5.0245 0 6.47368 12.9706 6.47368 14.76Z" transform="translate(642.473 175) rotate(-180)" fill="white"/>
<path d="M6.47368 14.76C6.47368 16.5494 5.0245 18 3.23684 18C1.44918 18 0 16.5494 0 14.76C0 12.9706 1.44918 0 3.23684 0C5.0245 0 6.47368 12.9706 6.47368 14.76Z" transform="translate(631 175) rotate(-180)" fill="white"/>
<path d="M6.47368 14.76C6.47368 16.5494 5.0245 18 3.23684 18C1.44918 18 0 16.5494 0 14.76C0 12.9706 1.44918 0 3.23684 0C5.0245 0 6.47368 12.9706 6.47368 14.76Z" transform="translate(620.211 175) rotate(-180)" fill="white"/>
<path d="M6.47368 14.76C6.47368 16.5494 5.0245 18 3.23684 18C1.44918 18 0 16.5494 0 14.76C0 12.9706 1.44918 0 3.23684 0C5.0245 0 6.47368 12.9706 6.47368 14.76Z" transform="translate(609.422 175) rotate(-180)" fill="white"/>
<path d="M6.47368 14.76C6.47368 16.5494 5.0245 18 3.23684 18C1.44918 18 0 16.5494 0 14.76C0 12.9706 1.44918 0 3.23684 0C5.0245 0 6.47368 12.9706 6.47368 14.76Z" transform="translate(598.633 175) rotate(-180)" fill="white"/>
<path d="M6.47368 14.76C6.47368 16.5494 5.0245 18 3.23684 18C1.44918 18 0 16.5494 0 14.76C0 12.9706 1.44918 0 3.23684 0C5.0245 0 6.47368 12.9706 6.47368 14.76Z" transform="translate(587.844 175) rotate(-180)" fill="white"/>
<path d="M6.47368 14.76C6.47368 16.5494 5.0245 18 3.23684 18C1.44918 18 0 16.5494 0 14.76C0 12.9706 1.44918 0 3.23684 0C5.0245 0 6.47368 12.9706 6.47368 14.76Z" transform="translate(577.051 175) rotate(-180)" fill="white"/>
<path d="M6.47368 14.76C6.47368 16.5494 5.0245 18 3.23684 18C1.44918 18 0 16.5494 0 14.76C0 12.9706 1.44918 0 3.23684 0C5.0245 0 6.47368 12.9706 6.47368 14.76Z" transform="translate(566.262 175) rotate(-180)" fill="white"/>
<path d="M6.47368 14.76C6.47368 16.5494 5.0245 18 3.23684 18C1.44918 18 0 16.5494 0 14.76C0 12.9706 1.44918 0 3.23684 0C5.0245 0 6.47368 12.9706 6.47368 14.76Z" transform="translate(555.473 175) rotate(-180)" fill="white"/>
<path d="M6.47368 14.76C6.47368 16.5494 5.0245 18 3.23684 18C1.44918 18 0 16.5494 0 14.76C0 12.9706 1.44918 0 3.23684 0C5.0245 0 6.47368 12.9706 6.47368 14.76Z" transform="translate(349 175) rotate(-180)" fill="white"/>
<path d="M6.47368 14.76C6.47368 16.5494 5.0245 18 3.23684 18C1.44918 18 0 16.5494 0 14.76C0 12.9706 1.44918 0 3.23684 0C5.0245 0 6.47368 12.9706 6.47368 14.76Z" transform="translate(338.211 175) rotate(-180)" fill="white"/>
<path d="M6.47368 14.76C6.47368 16.5494 5.0245 18 3.23684 18C1.44918 18 0 16.5494 0 14.76C0 12.9706 1.44918 0 3.23684 0C5.0245 0 6.47368 12.9706 6.47368 14.76Z" transform="translate(327.422 175) rotate(-180)" fill="white"/>
<path d="M6.47368 14.76C6.47368 16.5494 5.0245 18 3.23684 18C1.44918 18 0 16.5494 0 14.76C0 12.9706 1.44918 0 3.23684 0C5.0245 0 6.47368 12.9706 6.47368 14.76Z" transform="translate(316.633 175) rotate(-180)" fill="white"/>
<path d="M6.47368 14.76C6.47368 16.5494 5.0245 18 3.23684 18C1.44918 18 0 16.5494 0 14.76C0 12.9706 1.44918 0 3.23684 0C5.0245 0 6.47368 12.9706 6.47368 14.76Z" transform="translate(305.844 175) rotate(-180)" fill="white"/>
<path d="M6.47368 14.76C6.47368 16.5494 5.0245 18 3.23684 18C1.44918 18 0 16.5494 0 14.76C0 12.9706 1.44918 0 3.23684 0C5.0245 0 6.47368 12.9706 6.47368 14.76Z" transform="translate(295.051 175) rotate(-180)" fill="white"/>
<path d="M6.47368 14.76C6.47368 16.5494 5.0245 18 3.23684 18C1.44918 18 0 16.5494 0 14.76C0 12.9706 1.44918 0 3.23684 0C5.0245 0 6.47368 12.9706 6.47368 14.76Z" transform="translate(284.262 175) rotate(-180)" fill="white"/>
<path d="M6.47368 14.76C6.47368 16.5494 5.0245 18 3.23684 18C1.44918 18 0 16.5494 0 14.76C0 12.9706 1.44918 0 3.23684 0C5.0245 0 6.47368 12.9706 6.47368 14.76Z" transform="translate(273.473 175) rotate(-180)" fill="white"/>
<path d="M6.47368 14.76C6.47368 16.5494 5.0245 18 3.23684 18C1.44918 18 0 16.5494 0 14.76C0 12.9706 1.44918 0 3.23684 0C5.0245 0 6.47368 12.9706 6.47368 14.76Z" transform="translate(262 175) rotate(-180)" fill="white"/>
<path d="M6.47368 14.76C6.47368 16.5494 5.0245 18 3.23684 18C1.44918 18 0 16.5494 0 14.76C0 12.9706 1.44918 0 3.23684 0C5.0245 0 6.47368 12.9706 6.47368 14.76Z" transform="translate(251.211 175) rotate(-180)" fill="white"/>
<path d="M6.47368 14.76C6.47368 16.5494 5.0245 18 3.23684 18C1.44918 18 0 16.5494 0 14.76C0 12.9706 1.44918 0 3.23684 0C5.0245 0 6.47368 12.9706 6.47368 14.76Z" transform="translate(240.422 175) rotate(-180)" fill="white"/>
<path d="M6.47368 14.76C6.47368 16.5494 5.0245 18 3.23684 18C1.44918 18 0 16.5494 0 14.76C0 12.9706 1.44918 0 3.23684 0C5.0245 0 6.47368 12.9706 6.47368 14.76Z" transform="translate(229.633 175) rotate(-180)" fill="white"/>
<path d="M6.47368 14.76C6.47368 16.5494 5.0245 18 3.23684 18C1.44918 18 0 16.5494 0 14.76C0 12.9706 1.44918 0 3.23684 0C5.0245 0 6.47368 12.9706 6.47368 14.76Z" transform="translate(218.844 175) rotate(-180)" fill="white"/>
<path d="M6.47368 14.76C6.47368 16.5494 5.0245 18 3.23684 18C1.44918 18 0 16.5494 0 14.76C0 12.9706 1.44918 0 3.23684 0C5.0245 0 6.47368 12.9706 6.47368 14.76Z" transform="translate(208.051 175) rotate(-180)" fill="white"/>
<path d="M6.47368 14.76C6.47368 16.5494 5.0245 18 3.23684 18C1.44918 18 0 16.5494 0 14.76C0 12.9706 1.44918 0 3.23684 0C5.0245 0 6.47368 12.9706 6.47368 14.76Z" transform="translate(197.262 175) rotate(-180)" fill="white"/>
<path d="M6.47368 14.76C6.47368 16.5494 5.0245 18 3.23684 18C1.44918 18 0 16.5494 0 14.76C0 12.9706 1.44918 0 3.23684 0C5.0245 0 6.47368 12.9706 6.47368 14.76Z" transform="translate(186.473 175) rotate(-180)" fill="white"/>
<path d="M7.20146 16.4C7.20146 18.3882 5.58936 20 3.60073 20C1.6121 20 0 18.3882 0 16.4C0 14.4118 1.6121 0 3.60073 0C5.58936 0 7.20146 14.4118 7.20146 16.4Z" transform="translate(543 175) rotate(-180)" fill="white"/>
<path d="M7.20146 16.4C7.20146 18.3882 5.58936 20 3.60073 20C1.6121 20 0 18.3882 0 16.4C0 14.4118 1.6121 0 3.60073 0C5.58936 0 7.20146 14.4118 7.20146 16.4Z" transform="translate(530.996 175) rotate(-180)" fill="white"/>
<path d="M7.20146 16.4C7.20146 18.3882 5.58936 20 3.60073 20C1.6121 20 0 18.3882 0 16.4C0 14.4118 1.6121 0 3.60073 0C5.58936 0 7.20146 14.4118 7.20146 16.4Z" transform="translate(518.992 175) rotate(-180)" fill="white"/>
<path d="M7.20146 16.4C7.20146 18.3882 5.58936 20 3.60073 20C1.6121 20 0 18.3882 0 16.4C0 14.4118 1.6121 0 3.60073 0C5.58936 0 7.20146 14.4118 7.20146 16.4Z" transform="translate(506.992 175) rotate(-180)" fill="white"/>
<path d="M7.20146 16.4C7.20146 18.3882 5.58936 20 3.60073 20C1.6121 20 0 18.3882 0 16.4C0 14.4118 1.6121 0 3.60073 0C5.58936 0 7.20146 14.4118 7.20146 16.4Z" transform="translate(494.988 175) rotate(-180)" fill="white"/>
<path d="M7.20146 16.4C7.20146 18.3882 5.58936 20 3.60073 20C1.6121 20 0 18.3882 0 16.4C0 14.4118 1.6121 0 3.60073 0C5.58936 0 7.20146 14.4118 7.20146 16.4Z" transform="translate(482.988 175) rotate(-180)" fill="white"/>
<path d="M7.20146 16.4C7.20146 18.3882 5.58936 20 3.60073 20C1.6121 20 0 18.3882 0 16.4C0 14.4118 1.6121 0 3.60073 0C5.58936 0 7.20146 14.4118 7.20146 16.4Z" transform="translate(470.984 175) rotate(-180)" fill="white"/>
<path d="M7.20146 16.4C7.20146 18.3882 5.58936 20 3.60073 20C1.6121 20 0 18.3882 0 16.4C0 14.4118 1.6121 0 3.60073 0C5.58936 0 7.20146 14.4118 7.20146 16.4Z" transform="translate(458.98 175) rotate(-180)" fill="white"/>
<path d="M7.20146 16.4C7.20146 18.3882 5.58936 20 3.60073 20C1.6121 20 0 18.3882 0 16.4C0 14.4118 1.6121 0 3.60073 0C5.58936 0 7.20146 14.4118 7.20146 16.4Z" transform="translate(446.219 175) rotate(-180)" fill="white"/>
<path d="M7.20146 16.4C7.20146 18.3882 5.58936 20 3.60073 20C1.6121 20 0 18.3882 0 16.4C0 14.4118 1.6121 0 3.60073 0C5.58936 0 7.20146 14.4118 7.20146 16.4Z" transform="translate(434.219 175) rotate(-180)" fill="white"/>
<path d="M7.20146 16.4C7.20146 18.3882 5.58936 20 3.60073 20C1.6121 20 0 18.3882 0 16.4C0 14.4118 1.6121 0 3.60073 0C5.58936 0 7.20146 14.4118 7.20146 16.4Z" transform="translate(422.215 175) rotate(-180)" fill="white"/>
<path d="M7.20146 16.4C7.20146 18.3882 5.58936 20 3.60073 20C1.6121 20 0 18.3882 0 16.4C0 14.4118 1.6121 0 3.60073 0C5.58936 0 7.20146 14.4118 7.20146 16.4Z" transform="translate(410.215 175) rotate(-180)" fill="white"/>
<path d="M7.20146 16.4C7.20146 18.3882 5.58936 20 3.60073 20C1.6121 20 0 18.3882 0 16.4C0 14.4118 1.6121 0 3.60073 0C5.58936 0 7.20146 14.4118 7.20146 16.4Z" transform="translate(398.211 175) rotate(-180)" fill="white"/>
<path d="M7.20146 16.4C7.20146 18.3882 5.58936 20 3.60073 20C1.6121 20 0 18.3882 0 16.4C0 14.4118 1.6121 0 3.60073 0C5.58936 0 7.20146 14.4118 7.20146 16.4Z" transform="translate(386.207 175) rotate(-180)" fill="white"/>
<path d="M7.20146 16.4C7.20146 18.3882 5.58936 20 3.60073 20C1.6121 20 0 18.3882 0 16.4C0 14.4118 1.6121 0 3.60073 0C5.58936 0 7.20146 14.4118 7.20146 16.4Z" transform="translate(374.203 175) rotate(-180)" fill="white"/>
<path d="M7.20146 16.4C7.20146 18.3882 5.58936 20 3.60073 20C1.6121 20 0 18.3882 0 16.4C0 14.4118 1.6121 0 3.60073 0C5.58936 0 7.20146 14.4118 7.20146 16.4Z" transform="translate(362.203 175) rotate(-180)" fill="white"/>
</g>
<defs>
<filter id="filter0_d" x="21" y="23" width="1077" height="164" filterUnits="userSpaceOnUse" color-interpolation-filters="sRGB">
<feFlood flood-opacity="0" result="BackgroundImageFix"/>
<feColorMatrix in="SourceAlpha" type="matrix" values="0 0 0 0 0 0 0 0 0 0 0 0 0 0 0 0 0 0 255 0"/>
<feOffset dy="2"/>
<feGaussianBlur stdDeviation="5"/>
<feColorMatrix type="matrix" values="0 0 0 0 0 0 0 0 0 0 0 0 0 0 0 0 0 0 0.25 0"/>
<feBlend mode="normal" in2="BackgroundImageFix" result="effect1_dropShadow"/>
<feBlend mode="normal" in="SourceGraphic" in2="effect1_dropShadow" result="shape"/>
</filter>
</defs>
</svg>
