<svg width="1120" height="206" viewBox="0 0 1120 206" fill="none" xmlns="http://www.w3.org/2000/svg">
<g filter="url(#filter0_d)">
<path d="M0 0H1057V62C1057 66.4183 1053.42 70 1049 70H8C3.58172 70 0 66.4183 0 62V0Z" transform="translate(1088 103) rotate(-180)" fill="#B6323F"/>
<path d="M0 8C0 3.58172 3.58172 0 8 0H1049C1053.42 0 1057 3.58172 1057 8V70H0V8Z" transform="translate(1088 173) rotate(-180)" fill="#B6323F"/>
<line y1="-7.5" x2="1057" y2="-7.5" transform="translate(31 110)" stroke="white" stroke-width="15"/>
<line y1="-7.5" x2="140" y2="-7.5" transform="translate(286 173) rotate(-90)" stroke="white" stroke-width="15"/>
</g>
<path d="M44.527 48.3859C50.027 26.3859 66.127 -13.2141 86.527 4.38592C106.927 21.9859 67.027 41.0526 44.527 48.3859ZM44.527 48.3859C26.8603 50.7195 -14.9721 63.8867 5.52766 83.3867C25.442 102.33 41.8603 63.3862 44.527 48.3859Z" transform="translate(231.973 56.6133)" stroke="white" stroke-width="10"/>
<defs>
<filter id="filter0_d" x="21" y="25" width="1077" height="160" filterUnits="userSpaceOnUse" color-interpolation-filters="sRGB">
<feFlood flood-opacity="0" result="BackgroundImageFix"/>
<feColorMatrix in="SourceAlpha" type="matrix" values="0 0 0 0 0 0 0 0 0 0 0 0 0 0 0 0 0 0 255 0"/>
<feOffset dy="2"/>
<feGaussianBlur stdDeviation="5"/>
<feColorMatrix type="matrix" values="0 0 0 0 0 0 0 0 0 0 0 0 0 0 0 0 0 0 0.25 0"/>
<feBlend mode="normal" in2="BackgroundImageFix" result="effect1_dropShadow"/>
<feBlend mode="normal" in="SourceGraphic" in2="effect1_dropShadow" result="shape"/>
</filter>
</defs>
</svg>
