<svg width="141" height="98" viewBox="0 0 141 98" fill="none" xmlns="http://www.w3.org/2000/svg">
<path fill-rule="evenodd" clip-rule="evenodd" d="M97.6992 0.46875L94.3828 14.2051L115.59 20.502L115.301 21.5L116.117 21.1172L125.34 40.7451L139.289 36.04L139.93 37.9355L125.547 42.7852L116.84 62.8828L116.141 62.5732L116.5 63.3447L96.1953 72.8408L95.9727 72.3613L95.8789 72.6846L75.1406 66.5273L65.957 86.623L65.6953 86.5L75.5547 95.6416L74.1953 97.1084L64.0977 87.7461L45.1055 96.1367L44.8906 95.6523L44.793 95.9756L23.3711 89.1104L23.6016 88.3535L22.8516 88.6865L13.6797 68.0293L14.4453 67.6885L0 64.3203L0.453125 62.373L14.3867 65.6221L23.0312 46.7129L23.543 46.9521L23.2695 46.3369L43.7734 37.2783L44.0312 37.8682L44.1875 37.3633L64.457 43.8564L73.0664 23.9014L73.5859 24.1309L73.3008 23.5186L92.4727 14.5527L92.2539 14.5L95.7539 0L97.6992 0.46875ZM125.289 42.0234L125.219 41.8135L125.023 41.9053L125.289 42.0234ZM14.5547 67.584L14.543 67.6455L14.6172 67.6123L14.5547 67.584ZM93.8242 16.127L74.7461 25.0488L66.168 44.9414L75.3594 64.5059L96.1172 70.6689L115.145 61.7715L123.695 41.9482L114.434 22.2451L93.8242 16.127ZM64.4219 45.9453L43.9492 39.3848L24.6836 47.8975L15.6797 67.6064L24.4531 87.3594L45.0742 93.9648L64.2812 85.4775L73.2578 65.8389L64.4219 45.9453Z" transform="translate(0.742188)" fill="white"/>
</svg>
