<svg width="140" height="97" viewBox="0 0 140 97" fill="none" xmlns="http://www.w3.org/2000/svg">
<g clip-path="url(#clip0)">
<path fill-rule="evenodd" clip-rule="evenodd" d="M97.6992 0.46875L94.3828 14.2051L115.59 20.502L115.301 21.4971L116.113 21.1162L125.34 40.7461L139.289 36.04L139.93 37.9355L125.547 42.7852L116.836 62.8818L116.137 62.5723L116.496 63.3438L96.1914 72.8398L95.9688 72.3652L95.8789 72.6836L75.1406 66.5264L65.957 86.623L65.6953 86.501L75.5547 95.6416L74.1953 97.1084L64.0977 87.7461L45.1055 96.1367L44.8945 95.6533L44.793 95.9736L23.3672 89.1104L23.6016 88.3535L22.8516 88.6865L13.6797 68.0293L14.4453 67.6885L0 64.3203L0.453125 62.373L14.3867 65.6221L23.0273 46.7139L23.5469 46.9561L23.2734 46.3359L43.7734 37.2773L44.0352 37.8682L44.1914 37.3623L64.457 43.8545L73.0625 23.9004L73.5859 24.1318L73.3008 23.5176L92.4688 14.5518L92.2539 14.5L95.7539 0L97.6992 0.46875ZM125.293 42.0244L125.219 41.8105L125.02 41.9043L125.293 42.0244ZM14.5547 67.5859L14.543 67.6455L14.6133 67.6133L14.5547 67.5859ZM93.8242 16.126L74.7422 25.0508L66.1641 44.9404L66.2422 45.1064L75.3555 64.5039L96.1172 70.668L115.141 61.7705L123.691 41.9473L114.43 22.2441L93.8242 16.126ZM64.4922 46.0898L64.4258 45.9443L43.9531 39.3857L24.6836 47.8975L15.6797 67.6035L24.4492 87.3564L45.0742 93.9648L64.2812 85.4775L73.2578 65.8369L64.4922 46.0898Z" fill="black"/>
</g>
<defs>
<clipPath id="clip0">
<rect width="140" height="97" fill="white"/>
</clipPath>
</defs>
</svg>
