<svg width="37" height="38" viewBox="0 0 37 38" fill="none" xmlns="http://www.w3.org/2000/svg">
<path fill-rule="evenodd" clip-rule="evenodd" d="M10.7891 5.31445C13.2812 4.24219 15.3496 2.60547 17.7383 0L18.4756 0.675781L19.2129 0C21.6016 2.60547 23.6699 4.24219 26.1621 5.31445C28.6709 6.39258 31.6875 6.92969 36.0352 7.19727L35.9707 8.24414L36.7188 8.4043C34.915 16.8672 32.9473 22.5137 30.2031 26.8359C27.4463 31.1797 23.9551 34.1113 19.2617 37.2266L18.71 36.3965H18.2412L17.6895 37.2266C13.001 34.1152 9.45215 31.1855 6.63672 26.8438C3.83301 22.5215 1.80469 16.873 0 8.4043L0.977539 8.19531L0.916016 7.19727C5.26367 6.92969 8.28027 6.39258 10.7891 5.31445ZM19.4756 34.666C23.375 31.9609 26.2236 29.373 28.5146 25.7637C30.9551 21.918 32.8057 16.8457 34.5215 9.0957C30.7812 8.79297 27.8916 8.23242 25.3721 7.15039C23.1982 6.2168 21.3457 4.91406 19.4756 3.13281V34.666ZM17.4756 3.13281V34.666C13.5625 31.957 10.6582 29.3691 8.31543 25.7559C5.82324 21.916 3.9209 16.8477 2.20215 9.11328C6.05371 8.81445 9.00879 8.25391 11.5791 7.15039C13.7529 6.2168 15.6055 4.91406 17.4756 3.13281Z" fill="white"/>
</svg>
